<svg xmlns="http://www.w3.org/2000/svg" version="1.1" xmlns:xlink="http://www.w3.org/1999/xlink" xmlns:svgjs="http://svgjs.dev/svgjs" width="1440" height="560" preserveAspectRatio="none" viewBox="0 0 1440 560"><g mask="url(&quot;#SvgjsMask2006&quot;)" fill="none"><rect width="1440" height="560" x="0" y="0" fill="url(&quot;#SvgjsLinearGradient2007&quot;)"></rect><path d="M-108.84 400.41L-108.84 400.41" stroke="rgba(84, 195, 146, 0.77)" stroke-width="1.5"></path><path d="M-108.84 400.41L-64.02 561.91" stroke="rgba(84, 195, 146, 0.77)" stroke-width="1.5"></path><path d="M-108.84 400.41L59.89 410.94" stroke="rgba(84, 195, 146, 0.77)" stroke-width="1.5"></path><path d="M-108.84 400.41L71.69 500.71" stroke="rgba(84, 195, 146, 0.77)" stroke-width="1.5"></path><path d="M-108.84 400.41L-42.15 685.42" stroke="rgba(84, 195, 146, 0.77)" stroke-width="1.5"></path><path d="M-64.02 561.91L-64.02 561.91" stroke="rgba(84, 195, 146, 0.77)" stroke-width="1.5"></path><path d="M-64.02 561.91L-42.15 685.42" stroke="rgba(84, 195, 146, 0.77)" stroke-width="1.5"></path><path d="M-64.02 561.91L71.69 500.71" stroke="rgba(84, 195, 146, 0.77)" stroke-width="1.5"></path><path d="M-42.15 685.42L-42.15 685.42" stroke="rgba(84, 195, 146, 0.77)" stroke-width="1.5"></path><path d="M-42.15 685.42L71.69 500.71" stroke="rgba(84, 195, 146, 0.77)" stroke-width="1.5"></path><path d="M-42.15 685.42L59.89 410.94" stroke="rgba(84, 195, 146, 0.77)" stroke-width="1.5"></path><path d="M-42.15 685.42L253.12 648.01" stroke="rgba(84, 195, 146, 0.77)" stroke-width="1.5"></path><path d="M-42.15 685.42L196.78 506.52" stroke="rgba(84, 195, 146, 0.77)" stroke-width="1.5"></path><path d="M59.89 410.94L59.89 410.94" stroke="rgba(84, 195, 146, 0.77)" stroke-width="1.5"></path><path d="M59.89 410.94L71.69 500.71" stroke="rgba(84, 195, 146, 0.77)" stroke-width="1.5"></path><path d="M59.89 410.94L196.78 506.52" stroke="rgba(84, 195, 146, 0.77)" stroke-width="1.5"></path><path d="M59.89 410.94L242.81 372.33" stroke="rgba(84, 195, 146, 0.77)" stroke-width="1.5"></path><path d="M59.89 410.94L-64.02 561.91" stroke="rgba(84, 195, 146, 0.77)" stroke-width="1.5"></path><path d="M71.69 500.71L71.69 500.71" stroke="rgba(84, 195, 146, 0.77)" stroke-width="1.5"></path><path d="M71.69 500.71L196.78 506.52" stroke="rgba(84, 195, 146, 0.77)" stroke-width="1.5"></path><path d="M71.69 500.71L242.81 372.33" stroke="rgba(84, 195, 146, 0.77)" stroke-width="1.5"></path><path d="M242.81 372.33L242.81 372.33" stroke="rgba(84, 195, 146, 0.77)" stroke-width="1.5"></path><path d="M242.81 372.33L196.78 506.52" stroke="rgba(84, 195, 146, 0.77)" stroke-width="1.5"></path><path d="M242.81 372.33L408.63 368.55" stroke="rgba(84, 195, 146, 0.77)" stroke-width="1.5"></path><path d="M196.78 506.52L196.78 506.52" stroke="rgba(84, 195, 146, 0.77)" stroke-width="1.5"></path><path d="M196.78 506.52L253.12 648.01" stroke="rgba(84, 195, 146, 0.77)" stroke-width="1.5"></path><path d="M253.12 648.01L253.12 648.01" stroke="rgba(84, 195, 146, 0.77)" stroke-width="1.5"></path><path d="M253.12 648.01L374 656.01" stroke="rgba(84, 195, 146, 0.77)" stroke-width="1.5"></path><path d="M253.12 648.01L373.17 556.31" stroke="rgba(84, 195, 146, 0.77)" stroke-width="1.5"></path><path d="M253.12 648.01L71.69 500.71" stroke="rgba(84, 195, 146, 0.77)" stroke-width="1.5"></path><path d="M408.63 368.55L408.63 368.55" stroke="rgba(84, 195, 146, 0.77)" stroke-width="1.5"></path><path d="M408.63 368.55L527.86 372.52" stroke="rgba(84, 195, 146, 0.77)" stroke-width="1.5"></path><path d="M373.17 556.31L373.17 556.31" stroke="rgba(84, 195, 146, 0.77)" stroke-width="1.5"></path><path d="M373.17 556.31L374 656.01" stroke="rgba(84, 195, 146, 0.77)" stroke-width="1.5"></path><path d="M373.17 556.31L548.02 523.06" stroke="rgba(84, 195, 146, 0.77)" stroke-width="1.5"></path><path d="M374 656.01L374 656.01" stroke="rgba(84, 195, 146, 0.77)" stroke-width="1.5"></path><path d="M374 656.01L548.02 523.06" stroke="rgba(84, 195, 146, 0.77)" stroke-width="1.5"></path><path d="M374 656.01L196.78 506.52" stroke="rgba(84, 195, 146, 0.77)" stroke-width="1.5"></path><path d="M527.86 372.52L527.86 372.52" stroke="rgba(84, 195, 146, 0.77)" stroke-width="1.5"></path><path d="M527.86 372.52L661.33 337.83" stroke="rgba(84, 195, 146, 0.77)" stroke-width="1.5"></path><path d="M527.86 372.52L548.02 523.06" stroke="rgba(84, 195, 146, 0.77)" stroke-width="1.5"></path><path d="M527.86 372.52L688.03 546.16" stroke="rgba(84, 195, 146, 0.77)" stroke-width="1.5"></path><path d="M548.02 523.06L548.02 523.06" stroke="rgba(84, 195, 146, 0.77)" stroke-width="1.5"></path><path d="M548.02 523.06L688.03 546.16" stroke="rgba(84, 195, 146, 0.77)" stroke-width="1.5"></path><path d="M548.02 523.06L408.63 368.55" stroke="rgba(84, 195, 146, 0.77)" stroke-width="1.5"></path><path d="M548.02 523.06L704.52 662.87" stroke="rgba(84, 195, 146, 0.77)" stroke-width="1.5"></path><path d="M661.33 337.83L661.33 337.83" stroke="rgba(84, 195, 146, 0.77)" stroke-width="1.5"></path><path d="M661.33 337.83L838.18 386.11" stroke="rgba(84, 195, 146, 0.77)" stroke-width="1.5"></path><path d="M688.03 546.16L688.03 546.16" stroke="rgba(84, 195, 146, 0.77)" stroke-width="1.5"></path><path d="M688.03 546.16L704.52 662.87" stroke="rgba(84, 195, 146, 0.77)" stroke-width="1.5"></path><path d="M688.03 546.16L830.39 505.29" stroke="rgba(84, 195, 146, 0.77)" stroke-width="1.5"></path><path d="M704.52 662.87L704.52 662.87" stroke="rgba(84, 195, 146, 0.77)" stroke-width="1.5"></path><path d="M704.52 662.87L817.38 700.83" stroke="rgba(84, 195, 146, 0.77)" stroke-width="1.5"></path><path d="M854.89 76.95L854.89 76.95" stroke="rgba(84, 195, 146, 0.77)" stroke-width="1.5"></path><path d="M854.89 76.95L959.7 63.84" stroke="rgba(84, 195, 146, 0.77)" stroke-width="1.5"></path><path d="M854.89 76.95L853.43 250.57" stroke="rgba(84, 195, 146, 0.77)" stroke-width="1.5"></path><path d="M854.89 76.95L1002.12 198.14" stroke="rgba(84, 195, 146, 0.77)" stroke-width="1.5"></path><path d="M854.89 76.95L963.97 -89.48" stroke="rgba(84, 195, 146, 0.77)" stroke-width="1.5"></path><path d="M853.43 250.57L853.43 250.57" stroke="rgba(84, 195, 146, 0.77)" stroke-width="1.5"></path><path d="M853.43 250.57L838.18 386.11" stroke="rgba(84, 195, 146, 0.77)" stroke-width="1.5"></path><path d="M853.43 250.57L1002.12 198.14" stroke="rgba(84, 195, 146, 0.77)" stroke-width="1.5"></path><path d="M853.43 250.57L959.62 375.53" stroke="rgba(84, 195, 146, 0.77)" stroke-width="1.5"></path><path d="M853.43 250.57L661.33 337.83" stroke="rgba(84, 195, 146, 0.77)" stroke-width="1.5"></path><path d="M838.18 386.11L838.18 386.11" stroke="rgba(84, 195, 146, 0.77)" stroke-width="1.5"></path><path d="M838.18 386.11L830.39 505.29" stroke="rgba(84, 195, 146, 0.77)" stroke-width="1.5"></path><path d="M838.18 386.11L959.62 375.53" stroke="rgba(84, 195, 146, 0.77)" stroke-width="1.5"></path><path d="M838.18 386.11L688.03 546.16" stroke="rgba(84, 195, 146, 0.77)" stroke-width="1.5"></path><path d="M838.18 386.11L1005.4 552.76" stroke="rgba(84, 195, 146, 0.77)" stroke-width="1.5"></path><path d="M830.39 505.29L830.39 505.29" stroke="rgba(84, 195, 146, 0.77)" stroke-width="1.5"></path><path d="M830.39 505.29L1005.4 552.76" stroke="rgba(84, 195, 146, 0.77)" stroke-width="1.5"></path><path d="M830.39 505.29L959.62 375.53" stroke="rgba(84, 195, 146, 0.77)" stroke-width="1.5"></path><path d="M830.39 505.29L817.38 700.83" stroke="rgba(84, 195, 146, 0.77)" stroke-width="1.5"></path><path d="M830.39 505.29L704.52 662.87" stroke="rgba(84, 195, 146, 0.77)" stroke-width="1.5"></path><path d="M817.38 700.83L817.38 700.83" stroke="rgba(84, 195, 146, 0.77)" stroke-width="1.5"></path><path d="M817.38 700.83L1011.05 647.93" stroke="rgba(84, 195, 146, 0.77)" stroke-width="1.5"></path><path d="M817.38 700.83L688.03 546.16" stroke="rgba(84, 195, 146, 0.77)" stroke-width="1.5"></path><path d="M817.38 700.83L1005.4 552.76" stroke="rgba(84, 195, 146, 0.77)" stroke-width="1.5"></path><path d="M817.38 700.83L1109 669.52" stroke="rgba(84, 195, 146, 0.77)" stroke-width="1.5"></path><path d="M963.97 -89.48L963.97 -89.48" stroke="rgba(84, 195, 146, 0.77)" stroke-width="1.5"></path><path d="M963.97 -89.48L1095.16 -112.07" stroke="rgba(84, 195, 146, 0.77)" stroke-width="1.5"></path><path d="M963.97 -89.48L959.7 63.84" stroke="rgba(84, 195, 146, 0.77)" stroke-width="1.5"></path><path d="M959.7 63.84L959.7 63.84" stroke="rgba(84, 195, 146, 0.77)" stroke-width="1.5"></path><path d="M1002.12 198.14L1002.12 198.14" stroke="rgba(84, 195, 146, 0.77)" stroke-width="1.5"></path><path d="M1002.12 198.14L959.7 63.84" stroke="rgba(84, 195, 146, 0.77)" stroke-width="1.5"></path><path d="M1002.12 198.14L1108.4 55.74" stroke="rgba(84, 195, 146, 0.77)" stroke-width="1.5"></path><path d="M959.62 375.53L959.62 375.53" stroke="rgba(84, 195, 146, 0.77)" stroke-width="1.5"></path><path d="M959.62 375.53L1107.87 394.72" stroke="rgba(84, 195, 146, 0.77)" stroke-width="1.5"></path><path d="M959.62 375.53L1002.12 198.14" stroke="rgba(84, 195, 146, 0.77)" stroke-width="1.5"></path><path d="M959.62 375.53L1005.4 552.76" stroke="rgba(84, 195, 146, 0.77)" stroke-width="1.5"></path><path d="M1005.4 552.76L1005.4 552.76" stroke="rgba(84, 195, 146, 0.77)" stroke-width="1.5"></path><path d="M1005.4 552.76L1087.96 551.85" stroke="rgba(84, 195, 146, 0.77)" stroke-width="1.5"></path><path d="M1005.4 552.76L1011.05 647.93" stroke="rgba(84, 195, 146, 0.77)" stroke-width="1.5"></path><path d="M1005.4 552.76L1109 669.52" stroke="rgba(84, 195, 146, 0.77)" stroke-width="1.5"></path><path d="M1011.05 647.93L1011.05 647.93" stroke="rgba(84, 195, 146, 0.77)" stroke-width="1.5"></path><path d="M1095.16 -112.07L1095.16 -112.07" stroke="rgba(84, 195, 146, 0.77)" stroke-width="1.5"></path><path d="M1095.16 -112.07L1257.74 -100.68" stroke="rgba(84, 195, 146, 0.77)" stroke-width="1.5"></path><path d="M1095.16 -112.07L1108.4 55.74" stroke="rgba(84, 195, 146, 0.77)" stroke-width="1.5"></path><path d="M1095.16 -112.07L959.7 63.84" stroke="rgba(84, 195, 146, 0.77)" stroke-width="1.5"></path><path d="M1108.4 55.74L1108.4 55.74" stroke="rgba(84, 195, 146, 0.77)" stroke-width="1.5"></path><path d="M1108.4 55.74L959.7 63.84" stroke="rgba(84, 195, 146, 0.77)" stroke-width="1.5"></path><path d="M1108.4 55.74L1256.93 95.38" stroke="rgba(84, 195, 146, 0.77)" stroke-width="1.5"></path><path d="M1107.87 394.72L1107.87 394.72" stroke="rgba(84, 195, 146, 0.77)" stroke-width="1.5"></path><path d="M1107.87 394.72L1087.96 551.85" stroke="rgba(84, 195, 146, 0.77)" stroke-width="1.5"></path><path d="M1107.87 394.72L1005.4 552.76" stroke="rgba(84, 195, 146, 0.77)" stroke-width="1.5"></path><path d="M1107.87 394.72L1311.56 393.8" stroke="rgba(84, 195, 146, 0.77)" stroke-width="1.5"></path><path d="M1087.96 551.85L1087.96 551.85" stroke="rgba(84, 195, 146, 0.77)" stroke-width="1.5"></path><path d="M1087.96 551.85L1109 669.52" stroke="rgba(84, 195, 146, 0.77)" stroke-width="1.5"></path><path d="M1087.96 551.85L1011.05 647.93" stroke="rgba(84, 195, 146, 0.77)" stroke-width="1.5"></path><path d="M1087.96 551.85L959.62 375.53" stroke="rgba(84, 195, 146, 0.77)" stroke-width="1.5"></path><path d="M1087.96 551.85L1304.93 493.46" stroke="rgba(84, 195, 146, 0.77)" stroke-width="1.5"></path><path d="M1109 669.52L1109 669.52" stroke="rgba(84, 195, 146, 0.77)" stroke-width="1.5"></path><path d="M1109 669.52L1011.05 647.93" stroke="rgba(84, 195, 146, 0.77)" stroke-width="1.5"></path><path d="M1257.74 -100.68L1257.74 -100.68" stroke="rgba(84, 195, 146, 0.77)" stroke-width="1.5"></path><path d="M1257.74 -100.68L1388.11 -69.43" stroke="rgba(84, 195, 146, 0.77)" stroke-width="1.5"></path><path d="M1257.74 -100.68L1256.93 95.38" stroke="rgba(84, 195, 146, 0.77)" stroke-width="1.5"></path><path d="M1257.74 -100.68L1108.4 55.74" stroke="rgba(84, 195, 146, 0.77)" stroke-width="1.5"></path><path d="M1257.74 -100.68L1448.51 72.38" stroke="rgba(84, 195, 146, 0.77)" stroke-width="1.5"></path><path d="M1256.93 95.38L1256.93 95.38" stroke="rgba(84, 195, 146, 0.77)" stroke-width="1.5"></path><path d="M1256.93 95.38L1302.59 247.3" stroke="rgba(84, 195, 146, 0.77)" stroke-width="1.5"></path><path d="M1256.93 95.38L1448.51 72.38" stroke="rgba(84, 195, 146, 0.77)" stroke-width="1.5"></path><path d="M1256.93 95.38L1388.11 -69.43" stroke="rgba(84, 195, 146, 0.77)" stroke-width="1.5"></path><path d="M1302.59 247.3L1302.59 247.3" stroke="rgba(84, 195, 146, 0.77)" stroke-width="1.5"></path><path d="M1302.59 247.3L1399.31 261.41" stroke="rgba(84, 195, 146, 0.77)" stroke-width="1.5"></path><path d="M1302.59 247.3L1311.56 393.8" stroke="rgba(84, 195, 146, 0.77)" stroke-width="1.5"></path><path d="M1302.59 247.3L1449.67 395.51" stroke="rgba(84, 195, 146, 0.77)" stroke-width="1.5"></path><path d="M1302.59 247.3L1448.51 72.38" stroke="rgba(84, 195, 146, 0.77)" stroke-width="1.5"></path><path d="M1302.59 247.3L1107.87 394.72" stroke="rgba(84, 195, 146, 0.77)" stroke-width="1.5"></path><path d="M1311.56 393.8L1311.56 393.8" stroke="rgba(84, 195, 146, 0.77)" stroke-width="1.5"></path><path d="M1311.56 393.8L1304.93 493.46" stroke="rgba(84, 195, 146, 0.77)" stroke-width="1.5"></path><path d="M1311.56 393.8L1449.67 395.51" stroke="rgba(84, 195, 146, 0.77)" stroke-width="1.5"></path><path d="M1311.56 393.8L1399.31 261.41" stroke="rgba(84, 195, 146, 0.77)" stroke-width="1.5"></path><path d="M1311.56 393.8L1406.77 559.51" stroke="rgba(84, 195, 146, 0.77)" stroke-width="1.5"></path><path d="M1304.93 493.46L1304.93 493.46" stroke="rgba(84, 195, 146, 0.77)" stroke-width="1.5"></path><path d="M1304.93 493.46L1406.77 559.51" stroke="rgba(84, 195, 146, 0.77)" stroke-width="1.5"></path><path d="M1304.93 493.46L1449.67 395.51" stroke="rgba(84, 195, 146, 0.77)" stroke-width="1.5"></path><path d="M1304.93 493.46L1274.19 687.69" stroke="rgba(84, 195, 146, 0.77)" stroke-width="1.5"></path><path d="M1274.19 687.69L1274.19 687.69" stroke="rgba(84, 195, 146, 0.77)" stroke-width="1.5"></path><path d="M1274.19 687.69L1109 669.52" stroke="rgba(84, 195, 146, 0.77)" stroke-width="1.5"></path><path d="M1274.19 687.69L1449.33 680.04" stroke="rgba(84, 195, 146, 0.77)" stroke-width="1.5"></path><path d="M1388.11 -69.43L1388.11 -69.43" stroke="rgba(84, 195, 146, 0.77)" stroke-width="1.5"></path><path d="M1388.11 -69.43L1448.51 72.38" stroke="rgba(84, 195, 146, 0.77)" stroke-width="1.5"></path><path d="M1388.11 -69.43L1556.17 79.86" stroke="rgba(84, 195, 146, 0.77)" stroke-width="1.5"></path><path d="M1388.11 -69.43L1095.16 -112.07" stroke="rgba(84, 195, 146, 0.77)" stroke-width="1.5"></path><path d="M1388.11 -69.43L1108.4 55.74" stroke="rgba(84, 195, 146, 0.77)" stroke-width="1.5"></path><path d="M1448.51 72.38L1448.51 72.38" stroke="rgba(84, 195, 146, 0.77)" stroke-width="1.5"></path><path d="M1448.51 72.38L1556.17 79.86" stroke="rgba(84, 195, 146, 0.77)" stroke-width="1.5"></path><path d="M1448.51 72.38L1399.31 261.41" stroke="rgba(84, 195, 146, 0.77)" stroke-width="1.5"></path><path d="M1399.31 261.41L1399.31 261.41" stroke="rgba(84, 195, 146, 0.77)" stroke-width="1.5"></path><path d="M1399.31 261.41L1449.67 395.51" stroke="rgba(84, 195, 146, 0.77)" stroke-width="1.5"></path><path d="M1449.67 395.51L1449.67 395.51" stroke="rgba(84, 195, 146, 0.77)" stroke-width="1.5"></path><path d="M1449.67 395.51L1581.23 411.68" stroke="rgba(84, 195, 146, 0.77)" stroke-width="1.5"></path><path d="M1406.77 559.51L1406.77 559.51" stroke="rgba(84, 195, 146, 0.77)" stroke-width="1.5"></path><path d="M1406.77 559.51L1449.33 680.04" stroke="rgba(84, 195, 146, 0.77)" stroke-width="1.5"></path><path d="M1406.77 559.51L1544.02 530.94" stroke="rgba(84, 195, 146, 0.77)" stroke-width="1.5"></path><path d="M1406.77 559.51L1449.67 395.51" stroke="rgba(84, 195, 146, 0.77)" stroke-width="1.5"></path><path d="M1449.33 680.04L1449.33 680.04" stroke="rgba(84, 195, 146, 0.77)" stroke-width="1.5"></path><path d="M1449.33 680.04L1574.03 679.52" stroke="rgba(84, 195, 146, 0.77)" stroke-width="1.5"></path><path d="M1556.17 79.86L1556.17 79.86" stroke="rgba(84, 195, 146, 0.77)" stroke-width="1.5"></path><path d="M1556.17 79.86L1594.6 211.34" stroke="rgba(84, 195, 146, 0.77)" stroke-width="1.5"></path><path d="M1556.17 79.86L1399.31 261.41" stroke="rgba(84, 195, 146, 0.77)" stroke-width="1.5"></path><path d="M1556.17 79.86L1256.93 95.38" stroke="rgba(84, 195, 146, 0.77)" stroke-width="1.5"></path><path d="M1556.17 79.86L1302.59 247.3" stroke="rgba(84, 195, 146, 0.77)" stroke-width="1.5"></path><path d="M1594.6 211.34L1594.6 211.34" stroke="rgba(84, 195, 146, 0.77)" stroke-width="1.5"></path><path d="M1594.6 211.34L1581.23 411.68" stroke="rgba(84, 195, 146, 0.77)" stroke-width="1.5"></path><path d="M1594.6 211.34L1399.31 261.41" stroke="rgba(84, 195, 146, 0.77)" stroke-width="1.5"></path><path d="M1594.6 211.34L1448.51 72.38" stroke="rgba(84, 195, 146, 0.77)" stroke-width="1.5"></path><path d="M1594.6 211.34L1449.67 395.51" stroke="rgba(84, 195, 146, 0.77)" stroke-width="1.5"></path><path d="M1581.23 411.68L1581.23 411.68" stroke="rgba(84, 195, 146, 0.77)" stroke-width="1.5"></path><path d="M1581.23 411.68L1544.02 530.94" stroke="rgba(84, 195, 146, 0.77)" stroke-width="1.5"></path><path d="M1581.23 411.68L1406.77 559.51" stroke="rgba(84, 195, 146, 0.77)" stroke-width="1.5"></path><path d="M1544.02 530.94L1544.02 530.94" stroke="rgba(84, 195, 146, 0.77)" stroke-width="1.5"></path><path d="M1544.02 530.94L1574.03 679.52" stroke="rgba(84, 195, 146, 0.77)" stroke-width="1.5"></path><path d="M1544.02 530.94L1449.67 395.51" stroke="rgba(84, 195, 146, 0.77)" stroke-width="1.5"></path><path d="M1574.03 679.52L1574.03 679.52" stroke="rgba(84, 195, 146, 0.77)" stroke-width="1.5"></path><path d="M1574.03 679.52L1406.77 559.51" stroke="rgba(84, 195, 146, 0.77)" stroke-width="1.5"></path><path d="M1574.03 679.52L1581.23 411.68" stroke="rgba(84, 195, 146, 0.77)" stroke-width="1.5"></path><path d="M1574.03 679.52L1274.19 687.69" stroke="rgba(84, 195, 146, 0.77)" stroke-width="1.5"></path><circle r="5" cx="-108.84" cy="400.41" fill="rgba(84, 195, 146, 0.77)"></circle><circle r="5" cx="-64.02" cy="561.91" fill="rgba(84, 195, 146, 0.77)"></circle><circle r="5" cx="-42.15" cy="685.42" fill="rgba(84, 195, 146, 0.77)"></circle><circle r="5" cx="59.89" cy="410.94" fill="rgba(84, 195, 146, 0.77)"></circle><circle r="5" cx="71.69" cy="500.71" fill="rgba(84, 195, 146, 0.77)"></circle><circle r="5" cx="242.81" cy="372.33" fill="rgba(84, 195, 146, 0.77)"></circle><circle r="5" cx="196.78" cy="506.52" fill="rgba(84, 195, 146, 0.77)"></circle><circle r="5" cx="253.12" cy="648.01" fill="rgba(84, 195, 146, 0.77)"></circle><circle r="5" cx="408.63" cy="368.55" fill="rgba(84, 195, 146, 0.77)"></circle><circle r="5" cx="373.17" cy="556.31" fill="rgba(84, 195, 146, 0.77)"></circle><circle r="5" cx="374" cy="656.01" fill="rgba(84, 195, 146, 0.77)"></circle><circle r="5" cx="527.86" cy="372.52" fill="rgba(84, 195, 146, 0.77)"></circle><circle r="5" cx="548.02" cy="523.06" fill="rgba(84, 195, 146, 0.77)"></circle><circle r="5" cx="661.33" cy="337.83" fill="rgba(84, 195, 146, 0.77)"></circle><circle r="5" cx="688.03" cy="546.16" fill="rgba(84, 195, 146, 0.77)"></circle><circle r="5" cx="704.52" cy="662.87" fill="rgba(84, 195, 146, 0.77)"></circle><circle r="5" cx="854.89" cy="76.95" fill="rgba(84, 195, 146, 0.77)"></circle><circle r="5" cx="853.43" cy="250.57" fill="rgba(84, 195, 146, 0.77)"></circle><circle r="5" cx="838.18" cy="386.11" fill="rgba(84, 195, 146, 0.77)"></circle><circle r="5" cx="830.39" cy="505.29" fill="rgba(84, 195, 146, 0.77)"></circle><circle r="5" cx="817.38" cy="700.83" fill="rgba(84, 195, 146, 0.77)"></circle><circle r="5" cx="963.97" cy="-89.48" fill="rgba(84, 195, 146, 0.77)"></circle><circle r="5" cx="959.7" cy="63.84" fill="rgba(84, 195, 146, 0.77)"></circle><circle r="5" cx="1002.12" cy="198.14" fill="rgba(84, 195, 146, 0.77)"></circle><circle r="5" cx="959.62" cy="375.53" fill="rgba(84, 195, 146, 0.77)"></circle><circle r="5" cx="1005.4" cy="552.76" fill="rgba(84, 195, 146, 0.77)"></circle><circle r="5" cx="1011.05" cy="647.93" fill="rgba(84, 195, 146, 0.77)"></circle><circle r="5" cx="1095.16" cy="-112.07" fill="rgba(84, 195, 146, 0.77)"></circle><circle r="5" cx="1108.4" cy="55.74" fill="rgba(84, 195, 146, 0.77)"></circle><circle r="5" cx="1107.87" cy="394.72" fill="rgba(84, 195, 146, 0.77)"></circle><circle r="5" cx="1087.96" cy="551.85" fill="rgba(84, 195, 146, 0.77)"></circle><circle r="5" cx="1109" cy="669.52" fill="rgba(84, 195, 146, 0.77)"></circle><circle r="5" cx="1257.74" cy="-100.68" fill="rgba(84, 195, 146, 0.77)"></circle><circle r="5" cx="1256.93" cy="95.38" fill="rgba(84, 195, 146, 0.77)"></circle><circle r="5" cx="1302.59" cy="247.3" fill="rgba(84, 195, 146, 0.77)"></circle><circle r="5" cx="1311.56" cy="393.8" fill="rgba(84, 195, 146, 0.77)"></circle><circle r="5" cx="1304.93" cy="493.46" fill="rgba(84, 195, 146, 0.77)"></circle><circle r="5" cx="1274.19" cy="687.69" fill="rgba(84, 195, 146, 0.77)"></circle><circle r="5" cx="1388.11" cy="-69.43" fill="rgba(84, 195, 146, 0.77)"></circle><circle r="5" cx="1448.51" cy="72.38" fill="rgba(84, 195, 146, 0.77)"></circle><circle r="5" cx="1399.31" cy="261.41" fill="rgba(84, 195, 146, 0.77)"></circle><circle r="5" cx="1449.67" cy="395.51" fill="rgba(84, 195, 146, 0.77)"></circle><circle r="5" cx="1406.77" cy="559.51" fill="rgba(84, 195, 146, 0.77)"></circle><circle r="5" cx="1449.33" cy="680.04" fill="rgba(84, 195, 146, 0.77)"></circle><circle r="5" cx="1556.17" cy="79.86" fill="rgba(84, 195, 146, 0.77)"></circle><circle r="5" cx="1594.6" cy="211.34" fill="rgba(84, 195, 146, 0.77)"></circle><circle r="5" cx="1581.23" cy="411.68" fill="rgba(84, 195, 146, 0.77)"></circle><circle r="5" cx="1544.02" cy="530.94" fill="rgba(84, 195, 146, 0.77)"></circle><circle r="5" cx="1574.03" cy="679.52" fill="rgba(84, 195, 146, 0.77)"></circle><path d="M-58.57 650.91L-58.57 650.91" stroke="hsla(153.5, 48.1%, 71.1%, 0.68)" stroke-width="1.5"></path><path d="M-58.57 650.91L-112.1 528.38" stroke="hsla(153.5, 48.1%, 71.1%, 0.68)" stroke-width="1.5"></path><path d="M-58.57 650.91L93.98 666.2" stroke="hsla(153.5, 48.1%, 71.1%, 0.68)" stroke-width="1.5"></path><path d="M70.09 492.21L70.09 492.21" stroke="hsla(153.5, 48.1%, 71.1%, 0.68)" stroke-width="1.5"></path><path d="M70.09 492.21L93.98 666.2" stroke="hsla(153.5, 48.1%, 71.1%, 0.68)" stroke-width="1.5"></path><path d="M70.09 492.21L-112.1 528.38" stroke="hsla(153.5, 48.1%, 71.1%, 0.68)" stroke-width="1.5"></path><path d="M391.32 518.72L391.32 518.72" stroke="hsla(153.5, 48.1%, 71.1%, 0.68)" stroke-width="1.5"></path><path d="M391.32 518.72L257.11 533.72" stroke="hsla(153.5, 48.1%, 71.1%, 0.68)" stroke-width="1.5"></path><path d="M391.32 518.72L539.76 489.39" stroke="hsla(153.5, 48.1%, 71.1%, 0.68)" stroke-width="1.5"></path><path d="M391.32 518.72L342.01 677.53" stroke="hsla(153.5, 48.1%, 71.1%, 0.68)" stroke-width="1.5"></path><path d="M391.32 518.72L496.43 659.87" stroke="hsla(153.5, 48.1%, 71.1%, 0.68)" stroke-width="1.5"></path><path d="M391.32 518.72L224.92 707.65" stroke="hsla(153.5, 48.1%, 71.1%, 0.68)" stroke-width="1.5"></path><path d="M391.32 518.72L658.47 508.19" stroke="hsla(153.5, 48.1%, 71.1%, 0.68)" stroke-width="1.5"></path><path d="M695.75 398.54L695.75 398.54" stroke="hsla(153.5, 48.1%, 71.1%, 0.68)" stroke-width="1.5"></path><path d="M695.75 398.54L658.47 508.19" stroke="hsla(153.5, 48.1%, 71.1%, 0.68)" stroke-width="1.5"></path><path d="M695.75 398.54L860.92 411.38" stroke="hsla(153.5, 48.1%, 71.1%, 0.68)" stroke-width="1.5"></path><path d="M695.75 398.54L823.26 516.58" stroke="hsla(153.5, 48.1%, 71.1%, 0.68)" stroke-width="1.5"></path><path d="M695.75 398.54L539.76 489.39" stroke="hsla(153.5, 48.1%, 71.1%, 0.68)" stroke-width="1.5"></path><path d="M844.5 703.94L844.5 703.94" stroke="hsla(153.5, 48.1%, 71.1%, 0.68)" stroke-width="1.5"></path><path d="M844.5 703.94L941.43 682.08" stroke="hsla(153.5, 48.1%, 71.1%, 0.68)" stroke-width="1.5"></path><path d="M844.5 703.94L710.46 680.5" stroke="hsla(153.5, 48.1%, 71.1%, 0.68)" stroke-width="1.5"></path><path d="M844.5 703.94L952.95 557.94" stroke="hsla(153.5, 48.1%, 71.1%, 0.68)" stroke-width="1.5"></path><path d="M844.5 703.94L823.26 516.58" stroke="hsla(153.5, 48.1%, 71.1%, 0.68)" stroke-width="1.5"></path><path d="M1011.86 401.56L1011.86 401.56" stroke="hsla(153.5, 48.1%, 71.1%, 0.68)" stroke-width="1.5"></path><path d="M1011.86 401.56L1125.94 409.4" stroke="hsla(153.5, 48.1%, 71.1%, 0.68)" stroke-width="1.5"></path><path d="M1011.86 401.56L860.92 411.38" stroke="hsla(153.5, 48.1%, 71.1%, 0.68)" stroke-width="1.5"></path><path d="M1011.86 401.56L994.15 247.84" stroke="hsla(153.5, 48.1%, 71.1%, 0.68)" stroke-width="1.5"></path><path d="M1011.86 401.56L952.95 557.94" stroke="hsla(153.5, 48.1%, 71.1%, 0.68)" stroke-width="1.5"></path><path d="M1011.86 401.56L1089.98 219.92" stroke="hsla(153.5, 48.1%, 71.1%, 0.68)" stroke-width="1.5"></path><path d="M1011.86 401.56L1161.44 543.48" stroke="hsla(153.5, 48.1%, 71.1%, 0.68)" stroke-width="1.5"></path><path d="M1089.98 219.92L1089.98 219.92" stroke="hsla(153.5, 48.1%, 71.1%, 0.68)" stroke-width="1.5"></path><path d="M1089.98 219.92L994.15 247.84" stroke="hsla(153.5, 48.1%, 71.1%, 0.68)" stroke-width="1.5"></path><path d="M1089.98 219.92L1245.48 222.02" stroke="hsla(153.5, 48.1%, 71.1%, 0.68)" stroke-width="1.5"></path><path d="M1089.98 219.92L1125.94 409.4" stroke="hsla(153.5, 48.1%, 71.1%, 0.68)" stroke-width="1.5"></path><path d="M1261.59 -101.22L1261.59 -101.22" stroke="hsla(153.5, 48.1%, 71.1%, 0.68)" stroke-width="1.5"></path><path d="M1261.59 -101.22L1420.43 -100.67" stroke="hsla(153.5, 48.1%, 71.1%, 0.68)" stroke-width="1.5"></path><path d="M1261.59 -101.22L1294.25 68.1" stroke="hsla(153.5, 48.1%, 71.1%, 0.68)" stroke-width="1.5"></path><path d="M1261.59 -101.22L1458.96 108.47" stroke="hsla(153.5, 48.1%, 71.1%, 0.68)" stroke-width="1.5"></path><path d="M1265.11 508.59L1265.11 508.59" stroke="hsla(153.5, 48.1%, 71.1%, 0.68)" stroke-width="1.5"></path><path d="M1265.11 508.59L1161.44 543.48" stroke="hsla(153.5, 48.1%, 71.1%, 0.68)" stroke-width="1.5"></path><path d="M1265.11 508.59L1289.62 648.41" stroke="hsla(153.5, 48.1%, 71.1%, 0.68)" stroke-width="1.5"></path><path d="M1265.11 508.59L1422.34 537.55" stroke="hsla(153.5, 48.1%, 71.1%, 0.68)" stroke-width="1.5"></path><path d="M1422.34 537.55L1422.34 537.55" stroke="hsla(153.5, 48.1%, 71.1%, 0.68)" stroke-width="1.5"></path><path d="M1422.34 537.55L1558.39 560.82" stroke="hsla(153.5, 48.1%, 71.1%, 0.68)" stroke-width="1.5"></path><path d="M1422.34 537.55L1455.94 692.68" stroke="hsla(153.5, 48.1%, 71.1%, 0.68)" stroke-width="1.5"></path><path d="M1422.34 537.55L1289.62 648.41" stroke="hsla(153.5, 48.1%, 71.1%, 0.68)" stroke-width="1.5"></path><path d="M1585.79 86.29L1585.79 86.29" stroke="hsla(153.5, 48.1%, 71.1%, 0.68)" stroke-width="1.5"></path><path d="M1585.79 86.29L1458.96 108.47" stroke="hsla(153.5, 48.1%, 71.1%, 0.68)" stroke-width="1.5"></path><path d="M1585.79 86.29L1570 243.54" stroke="hsla(153.5, 48.1%, 71.1%, 0.68)" stroke-width="1.5"></path><path d="M1585.79 86.29L1571.32 -76.49" stroke="hsla(153.5, 48.1%, 71.1%, 0.68)" stroke-width="1.5"></path><path d="M1585.79 86.29L1447.69 237.63" stroke="hsla(153.5, 48.1%, 71.1%, 0.68)" stroke-width="1.5"></path><path d="M1585.79 86.29L1420.43 -100.67" stroke="hsla(153.5, 48.1%, 71.1%, 0.68)" stroke-width="1.5"></path><path d="M-112.1 528.38L-112.1 528.38" stroke="hsla(153.5, 48.1%, 71.1%, 0.68)" stroke-width="1.5"></path><path d="M93.98 666.2L93.98 666.2" stroke="hsla(153.5, 48.1%, 71.1%, 0.68)" stroke-width="1.5"></path><path d="M93.98 666.2L224.92 707.65" stroke="hsla(153.5, 48.1%, 71.1%, 0.68)" stroke-width="1.5"></path><path d="M257.11 533.72L257.11 533.72" stroke="hsla(153.5, 48.1%, 71.1%, 0.68)" stroke-width="1.5"></path><path d="M257.11 533.72L342.01 677.53" stroke="hsla(153.5, 48.1%, 71.1%, 0.68)" stroke-width="1.5"></path><path d="M257.11 533.72L224.92 707.65" stroke="hsla(153.5, 48.1%, 71.1%, 0.68)" stroke-width="1.5"></path><path d="M257.11 533.72L70.09 492.21" stroke="hsla(153.5, 48.1%, 71.1%, 0.68)" stroke-width="1.5"></path><path d="M257.11 533.72L93.98 666.2" stroke="hsla(153.5, 48.1%, 71.1%, 0.68)" stroke-width="1.5"></path><path d="M257.11 533.72L496.43 659.87" stroke="hsla(153.5, 48.1%, 71.1%, 0.68)" stroke-width="1.5"></path><path d="M224.92 707.65L224.92 707.65" stroke="hsla(153.5, 48.1%, 71.1%, 0.68)" stroke-width="1.5"></path><path d="M224.92 707.65L342.01 677.53" stroke="hsla(153.5, 48.1%, 71.1%, 0.68)" stroke-width="1.5"></path><path d="M224.92 707.65L70.09 492.21" stroke="hsla(153.5, 48.1%, 71.1%, 0.68)" stroke-width="1.5"></path><path d="M342.01 677.53L342.01 677.53" stroke="hsla(153.5, 48.1%, 71.1%, 0.68)" stroke-width="1.5"></path><path d="M342.01 677.53L496.43 659.87" stroke="hsla(153.5, 48.1%, 71.1%, 0.68)" stroke-width="1.5"></path><path d="M539.76 489.39L539.76 489.39" stroke="hsla(153.5, 48.1%, 71.1%, 0.68)" stroke-width="1.5"></path><path d="M539.76 489.39L658.47 508.19" stroke="hsla(153.5, 48.1%, 71.1%, 0.68)" stroke-width="1.5"></path><path d="M496.43 659.87L496.43 659.87" stroke="hsla(153.5, 48.1%, 71.1%, 0.68)" stroke-width="1.5"></path><path d="M496.43 659.87L539.76 489.39" stroke="hsla(153.5, 48.1%, 71.1%, 0.68)" stroke-width="1.5"></path><path d="M658.47 508.19L658.47 508.19" stroke="hsla(153.5, 48.1%, 71.1%, 0.68)" stroke-width="1.5"></path><path d="M658.47 508.19L823.26 516.58" stroke="hsla(153.5, 48.1%, 71.1%, 0.68)" stroke-width="1.5"></path><path d="M658.47 508.19L710.46 680.5" stroke="hsla(153.5, 48.1%, 71.1%, 0.68)" stroke-width="1.5"></path><path d="M658.47 508.19L496.43 659.87" stroke="hsla(153.5, 48.1%, 71.1%, 0.68)" stroke-width="1.5"></path><path d="M710.46 680.5L710.46 680.5" stroke="hsla(153.5, 48.1%, 71.1%, 0.68)" stroke-width="1.5"></path><path d="M710.46 680.5L823.26 516.58" stroke="hsla(153.5, 48.1%, 71.1%, 0.68)" stroke-width="1.5"></path><path d="M710.46 680.5L496.43 659.87" stroke="hsla(153.5, 48.1%, 71.1%, 0.68)" stroke-width="1.5"></path><path d="M860.92 411.38L860.92 411.38" stroke="hsla(153.5, 48.1%, 71.1%, 0.68)" stroke-width="1.5"></path><path d="M860.92 411.38L823.26 516.58" stroke="hsla(153.5, 48.1%, 71.1%, 0.68)" stroke-width="1.5"></path><path d="M823.26 516.58L823.26 516.58" stroke="hsla(153.5, 48.1%, 71.1%, 0.68)" stroke-width="1.5"></path><path d="M823.26 516.58L952.95 557.94" stroke="hsla(153.5, 48.1%, 71.1%, 0.68)" stroke-width="1.5"></path><path d="M994.15 247.84L994.15 247.84" stroke="hsla(153.5, 48.1%, 71.1%, 0.68)" stroke-width="1.5"></path><path d="M994.15 247.84L1125.94 409.4" stroke="hsla(153.5, 48.1%, 71.1%, 0.68)" stroke-width="1.5"></path><path d="M994.15 247.84L860.92 411.38" stroke="hsla(153.5, 48.1%, 71.1%, 0.68)" stroke-width="1.5"></path><path d="M994.15 247.84L1245.48 222.02" stroke="hsla(153.5, 48.1%, 71.1%, 0.68)" stroke-width="1.5"></path><path d="M952.95 557.94L952.95 557.94" stroke="hsla(153.5, 48.1%, 71.1%, 0.68)" stroke-width="1.5"></path><path d="M952.95 557.94L941.43 682.08" stroke="hsla(153.5, 48.1%, 71.1%, 0.68)" stroke-width="1.5"></path><path d="M952.95 557.94L860.92 411.38" stroke="hsla(153.5, 48.1%, 71.1%, 0.68)" stroke-width="1.5"></path><path d="M952.95 557.94L1161.44 543.48" stroke="hsla(153.5, 48.1%, 71.1%, 0.68)" stroke-width="1.5"></path><path d="M941.43 682.08L941.43 682.08" stroke="hsla(153.5, 48.1%, 71.1%, 0.68)" stroke-width="1.5"></path><path d="M941.43 682.08L1123.27 684.71" stroke="hsla(153.5, 48.1%, 71.1%, 0.68)" stroke-width="1.5"></path><path d="M1125.94 409.4L1125.94 409.4" stroke="hsla(153.5, 48.1%, 71.1%, 0.68)" stroke-width="1.5"></path><path d="M1125.94 409.4L1161.44 543.48" stroke="hsla(153.5, 48.1%, 71.1%, 0.68)" stroke-width="1.5"></path><path d="M1125.94 409.4L1265.11 508.59" stroke="hsla(153.5, 48.1%, 71.1%, 0.68)" stroke-width="1.5"></path><path d="M1161.44 543.48L1161.44 543.48" stroke="hsla(153.5, 48.1%, 71.1%, 0.68)" stroke-width="1.5"></path><path d="M1161.44 543.48L1123.27 684.71" stroke="hsla(153.5, 48.1%, 71.1%, 0.68)" stroke-width="1.5"></path><path d="M1161.44 543.48L1289.62 648.41" stroke="hsla(153.5, 48.1%, 71.1%, 0.68)" stroke-width="1.5"></path><path d="M1123.27 684.71L1123.27 684.71" stroke="hsla(153.5, 48.1%, 71.1%, 0.68)" stroke-width="1.5"></path><path d="M1123.27 684.71L1289.62 648.41" stroke="hsla(153.5, 48.1%, 71.1%, 0.68)" stroke-width="1.5"></path><path d="M1294.25 68.1L1294.25 68.1" stroke="hsla(153.5, 48.1%, 71.1%, 0.68)" stroke-width="1.5"></path><path d="M1294.25 68.1L1245.48 222.02" stroke="hsla(153.5, 48.1%, 71.1%, 0.68)" stroke-width="1.5"></path><path d="M1294.25 68.1L1458.96 108.47" stroke="hsla(153.5, 48.1%, 71.1%, 0.68)" stroke-width="1.5"></path><path d="M1294.25 68.1L1420.43 -100.67" stroke="hsla(153.5, 48.1%, 71.1%, 0.68)" stroke-width="1.5"></path><path d="M1294.25 68.1L1447.69 237.63" stroke="hsla(153.5, 48.1%, 71.1%, 0.68)" stroke-width="1.5"></path><path d="M1245.48 222.02L1245.48 222.02" stroke="hsla(153.5, 48.1%, 71.1%, 0.68)" stroke-width="1.5"></path><path d="M1245.48 222.02L1388.97 361.89" stroke="hsla(153.5, 48.1%, 71.1%, 0.68)" stroke-width="1.5"></path><path d="M1245.48 222.02L1447.69 237.63" stroke="hsla(153.5, 48.1%, 71.1%, 0.68)" stroke-width="1.5"></path><path d="M1245.48 222.02L1125.94 409.4" stroke="hsla(153.5, 48.1%, 71.1%, 0.68)" stroke-width="1.5"></path><path d="M1289.62 648.41L1289.62 648.41" stroke="hsla(153.5, 48.1%, 71.1%, 0.68)" stroke-width="1.5"></path><path d="M1289.62 648.41L1455.94 692.68" stroke="hsla(153.5, 48.1%, 71.1%, 0.68)" stroke-width="1.5"></path><path d="M1420.43 -100.67L1420.43 -100.67" stroke="hsla(153.5, 48.1%, 71.1%, 0.68)" stroke-width="1.5"></path><path d="M1420.43 -100.67L1571.32 -76.49" stroke="hsla(153.5, 48.1%, 71.1%, 0.68)" stroke-width="1.5"></path><path d="M1458.96 108.47L1458.96 108.47" stroke="hsla(153.5, 48.1%, 71.1%, 0.68)" stroke-width="1.5"></path><path d="M1458.96 108.47L1447.69 237.63" stroke="hsla(153.5, 48.1%, 71.1%, 0.68)" stroke-width="1.5"></path><path d="M1447.69 237.63L1447.69 237.63" stroke="hsla(153.5, 48.1%, 71.1%, 0.68)" stroke-width="1.5"></path><path d="M1447.69 237.63L1570 243.54" stroke="hsla(153.5, 48.1%, 71.1%, 0.68)" stroke-width="1.5"></path><path d="M1388.97 361.89L1388.97 361.89" stroke="hsla(153.5, 48.1%, 71.1%, 0.68)" stroke-width="1.5"></path><path d="M1388.97 361.89L1447.69 237.63" stroke="hsla(153.5, 48.1%, 71.1%, 0.68)" stroke-width="1.5"></path><path d="M1388.97 361.89L1422.34 537.55" stroke="hsla(153.5, 48.1%, 71.1%, 0.68)" stroke-width="1.5"></path><path d="M1388.97 361.89L1265.11 508.59" stroke="hsla(153.5, 48.1%, 71.1%, 0.68)" stroke-width="1.5"></path><path d="M1455.94 692.68L1455.94 692.68" stroke="hsla(153.5, 48.1%, 71.1%, 0.68)" stroke-width="1.5"></path><path d="M1455.94 692.68L1541.72 680.96" stroke="hsla(153.5, 48.1%, 71.1%, 0.68)" stroke-width="1.5"></path><path d="M1455.94 692.68L1558.39 560.82" stroke="hsla(153.5, 48.1%, 71.1%, 0.68)" stroke-width="1.5"></path><path d="M1571.32 -76.49L1571.32 -76.49" stroke="hsla(153.5, 48.1%, 71.1%, 0.68)" stroke-width="1.5"></path><path d="M1570 243.54L1570 243.54" stroke="hsla(153.5, 48.1%, 71.1%, 0.68)" stroke-width="1.5"></path><path d="M1570 243.54L1458.96 108.47" stroke="hsla(153.5, 48.1%, 71.1%, 0.68)" stroke-width="1.5"></path><path d="M1570 243.54L1388.97 361.89" stroke="hsla(153.5, 48.1%, 71.1%, 0.68)" stroke-width="1.5"></path><path d="M1558.39 560.82L1558.39 560.82" stroke="hsla(153.5, 48.1%, 71.1%, 0.68)" stroke-width="1.5"></path><path d="M1558.39 560.82L1541.72 680.96" stroke="hsla(153.5, 48.1%, 71.1%, 0.68)" stroke-width="1.5"></path><path d="M1558.39 560.82L1388.97 361.89" stroke="hsla(153.5, 48.1%, 71.1%, 0.68)" stroke-width="1.5"></path><path d="M1541.72 680.96L1541.72 680.96" stroke="hsla(153.5, 48.1%, 71.1%, 0.68)" stroke-width="1.5"></path><path d="M1541.72 680.96L1422.34 537.55" stroke="hsla(153.5, 48.1%, 71.1%, 0.68)" stroke-width="1.5"></path><circle r="25" cx="-58.57" cy="650.91" fill="url(&quot;#SvgjsRadialGradient2008&quot;)"></circle><circle r="25" cx="70.09" cy="492.21" fill="url(&quot;#SvgjsRadialGradient2008&quot;)"></circle><circle r="25" cx="391.32" cy="518.72" fill="url(&quot;#SvgjsRadialGradient2008&quot;)"></circle><circle r="25" cx="695.75" cy="398.54" fill="url(&quot;#SvgjsRadialGradient2008&quot;)"></circle><circle r="25" cx="844.5" cy="703.94" fill="url(&quot;#SvgjsRadialGradient2008&quot;)"></circle><circle r="25" cx="1011.86" cy="401.56" fill="url(&quot;#SvgjsRadialGradient2008&quot;)"></circle><circle r="25" cx="1089.98" cy="219.92" fill="url(&quot;#SvgjsRadialGradient2008&quot;)"></circle><circle r="25" cx="1261.59" cy="-101.22" fill="url(&quot;#SvgjsRadialGradient2008&quot;)"></circle><circle r="25" cx="1265.11" cy="508.59" fill="url(&quot;#SvgjsRadialGradient2008&quot;)"></circle><circle r="25" cx="1422.34" cy="537.55" fill="url(&quot;#SvgjsRadialGradient2008&quot;)"></circle><circle r="25" cx="1585.79" cy="86.29" fill="url(&quot;#SvgjsRadialGradient2008&quot;)"></circle><circle r="5" cx="-112.1" cy="528.38" fill="rgba(197, 235, 218, 0.8400000000000001)"></circle><circle r="5" cx="93.98" cy="666.2" fill="rgba(197, 235, 218, 0.8400000000000001)"></circle><circle r="5" cx="257.11" cy="533.72" fill="rgba(197, 235, 218, 0.8400000000000001)"></circle><circle r="5" cx="224.92" cy="707.65" fill="rgba(197, 235, 218, 0.8400000000000001)"></circle><circle r="5" cx="342.01" cy="677.53" fill="rgba(197, 235, 218, 0.8400000000000001)"></circle><circle r="5" cx="539.76" cy="489.39" fill="rgba(197, 235, 218, 0.8400000000000001)"></circle><circle r="5" cx="496.43" cy="659.87" fill="rgba(197, 235, 218, 0.8400000000000001)"></circle><circle r="5" cx="658.47" cy="508.19" fill="rgba(197, 235, 218, 0.8400000000000001)"></circle><circle r="5" cx="710.46" cy="680.5" fill="rgba(197, 235, 218, 0.8400000000000001)"></circle><circle r="5" cx="860.92" cy="411.38" fill="rgba(197, 235, 218, 0.8400000000000001)"></circle><circle r="5" cx="823.26" cy="516.58" fill="rgba(197, 235, 218, 0.8400000000000001)"></circle><circle r="5" cx="994.15" cy="247.84" fill="rgba(197, 235, 218, 0.8400000000000001)"></circle><circle r="5" cx="952.95" cy="557.94" fill="rgba(197, 235, 218, 0.8400000000000001)"></circle><circle r="5" cx="941.43" cy="682.08" fill="rgba(197, 235, 218, 0.8400000000000001)"></circle><circle r="5" cx="1125.94" cy="409.4" fill="rgba(197, 235, 218, 0.8400000000000001)"></circle><circle r="5" cx="1161.44" cy="543.48" fill="rgba(197, 235, 218, 0.8400000000000001)"></circle><circle r="5" cx="1123.27" cy="684.71" fill="rgba(197, 235, 218, 0.8400000000000001)"></circle><circle r="5" cx="1294.25" cy="68.1" fill="rgba(197, 235, 218, 0.8400000000000001)"></circle><circle r="5" cx="1245.48" cy="222.02" fill="rgba(197, 235, 218, 0.8400000000000001)"></circle><circle r="5" cx="1289.62" cy="648.41" fill="rgba(197, 235, 218, 0.8400000000000001)"></circle><circle r="5" cx="1420.43" cy="-100.67" fill="rgba(197, 235, 218, 0.8400000000000001)"></circle><circle r="5" cx="1458.96" cy="108.47" fill="rgba(197, 235, 218, 0.8400000000000001)"></circle><circle r="5" cx="1447.69" cy="237.63" fill="rgba(197, 235, 218, 0.8400000000000001)"></circle><circle r="5" cx="1388.97" cy="361.89" fill="rgba(197, 235, 218, 0.8400000000000001)"></circle><circle r="5" cx="1455.94" cy="692.68" fill="rgba(197, 235, 218, 0.8400000000000001)"></circle><circle r="5" cx="1571.32" cy="-76.49" fill="rgba(197, 235, 218, 0.8400000000000001)"></circle><circle r="5" cx="1570" cy="243.54" fill="rgba(197, 235, 218, 0.8400000000000001)"></circle><circle r="5" cx="1558.39" cy="560.82" fill="rgba(197, 235, 218, 0.8400000000000001)"></circle><circle r="5" cx="1541.72" cy="680.96" fill="rgba(197, 235, 218, 0.8400000000000001)"></circle></g><defs><mask id="SvgjsMask2006"><rect width="1440" height="560" fill="#ffffff"></rect></mask><linearGradient x1="0%" y1="50%" x2="100%" y2="50%" gradientUnits="userSpaceOnUse" id="SvgjsLinearGradient2007"><stop stop-color="rgba(30, 153, 145, 1)" offset="0"></stop><stop stop-color="rgba(21, 179, 146, 1)" offset="1"></stop></linearGradient><radialGradient id="SvgjsRadialGradient2008"><stop stop-color="#ffffff" offset="0.1"></stop><stop stop-color="rgba(84, 195, 146, 0.68)" offset="0.2"></stop><stop stop-color="rgba(84, 195, 146, 0)" offset="1"></stop></radialGradient></defs></svg>