<svg xmlns="http://www.w3.org/2000/svg" version="1.1" xmlns:xlink="http://www.w3.org/1999/xlink" xmlns:svgjs="http://svgjs.dev/svgjs" width="1500" height="560" preserveAspectRatio="none" viewBox="0 0 1500 560"><g mask="url(&quot;#SvgjsMask1601&quot;)" fill="none"><rect width="1500" height="560" x="0" y="0" fill="rgba(80, 180, 152, 1)"></rect><g mask="url(&quot;#SvgjsMask1602&quot;)"><path d="M1529.5 287.5L1506.5 287.5L1483.5 287.5L1460.5 287.5L1437.5 287.5L1414.5 287.5L1391.5 287.5L1368.5 287.5" stroke="rgba(17, 211, 221, 0.68)" stroke-width="3.83"></path><path d="M1362.75 287.5 a5.75 5.75 0 1 0 11.5 0 a5.75 5.75 0 1 0 -11.5 0z" fill="rgba(17, 211, 221, 0.68)"></path><path d="M1483.5 264.5L1460.5 241.5L1437.5 241.5M1506.5 264.5L1483.5 241.5M1414.5 264.5L1391.5 241.5L1368.5 241.5M1529.5 264.5L1506.5 264.5L1483.5 264.5L1460.5 264.5L1437.5 264.5L1414.5 264.5L1391.5 264.5" stroke="rgba(17, 211, 221, 0.68)" stroke-width="3.83"></path><path d="M1385.75 264.5 a5.75 5.75 0 1 0 11.5 0 a5.75 5.75 0 1 0 -11.5 0zM1431.75 241.5 a5.75 5.75 0 1 0 11.5 0 a5.75 5.75 0 1 0 -11.5 0zM1477.75 241.5 a5.75 5.75 0 1 0 11.5 0 a5.75 5.75 0 1 0 -11.5 0zM1362.75 241.5 a5.75 5.75 0 1 0 11.5 0 a5.75 5.75 0 1 0 -11.5 0z" fill="rgba(17, 211, 221, 0.68)"></path><path d="M1207.5 333.5L1184.5 310.5L1161.5 310.5L1138.5 287.5L1115.5 287.5L1092.5 287.5L1069.5 287.5M586.5 287.5L563.5 287.5L540.5 287.5L517.5 287.5M885.5 287.5L862.5 310.5L839.5 310.5L816.5 310.5L793.5 310.5M1023.5 310.5L1000.5 333.5L977.5 333.5L954.5 333.5L931.5 333.5L908.5 333.5L885.5 333.5L862.5 333.5L839.5 333.5L816.5 333.5M747.5 287.5L724.5 310.5L701.5 310.5L678.5 333.5L655.5 356.5L632.5 356.5L609.5 356.5L586.5 356.5L563.5 356.5L540.5 356.5L517.5 356.5L494.5 333.5L471.5 333.5L448.5 333.5L425.5 333.5L402.5 333.5L379.5 333.5L356.5 333.5L333.5 333.5L310.5 333.5M1253.5 310.5L1230.5 310.5M1000.5 310.5L977.5 287.5L954.5 264.5L931.5 264.5L908.5 264.5L885.5 264.5M816.5 287.5L793.5 264.5L770.5 264.5L747.5 264.5L724.5 264.5L701.5 264.5L678.5 264.5L655.5 264.5L632.5 264.5L609.5 264.5L586.5 264.5L563.5 241.5L540.5 241.5L517.5 241.5L494.5 241.5L471.5 241.5L448.5 241.5M1046.5 310.5L1023.5 287.5L1000.5 287.5M931.5 310.5L908.5 310.5L885.5 310.5M1345.5 310.5L1322.5 287.5L1299.5 264.5M379.5 264.5L356.5 287.5L333.5 287.5L310.5 287.5M425.5 264.5L402.5 287.5L379.5 287.5L356.5 310.5L333.5 310.5L310.5 310.5M1529.5 310.5L1506.5 310.5L1483.5 310.5L1460.5 310.5L1437.5 310.5L1414.5 310.5L1391.5 310.5L1368.5 310.5L1345.5 310.5L1322.5 310.5L1299.5 310.5L1276.5 310.5L1253.5 310.5L1230.5 333.5L1207.5 333.5L1184.5 333.5L1161.5 333.5L1138.5 310.5L1115.5 310.5L1092.5 310.5L1069.5 310.5L1046.5 310.5L1023.5 310.5L1000.5 310.5L977.5 310.5L954.5 310.5L931.5 310.5L908.5 287.5L885.5 287.5L862.5 287.5L839.5 287.5L816.5 287.5L793.5 287.5L770.5 287.5L747.5 287.5L724.5 287.5L701.5 287.5L678.5 287.5L655.5 287.5L632.5 287.5L609.5 287.5L586.5 287.5L563.5 264.5L540.5 264.5L517.5 264.5L494.5 264.5L471.5 264.5L448.5 264.5L425.5 264.5L402.5 264.5L379.5 264.5L356.5 264.5" stroke="rgba(58, 195, 174, 0.58)" stroke-width="3.83"></path><path d="M350.75 264.5 a5.75 5.75 0 1 0 11.5 0 a5.75 5.75 0 1 0 -11.5 0zM1063.75 287.5 a5.75 5.75 0 1 0 11.5 0 a5.75 5.75 0 1 0 -11.5 0zM511.75 287.5 a5.75 5.75 0 1 0 11.5 0 a5.75 5.75 0 1 0 -11.5 0zM787.75 310.5 a5.75 5.75 0 1 0 11.5 0 a5.75 5.75 0 1 0 -11.5 0zM810.75 333.5 a5.75 5.75 0 1 0 11.5 0 a5.75 5.75 0 1 0 -11.5 0zM304.75 333.5 a5.75 5.75 0 1 0 11.5 0 a5.75 5.75 0 1 0 -11.5 0zM1224.75 310.5 a5.75 5.75 0 1 0 11.5 0 a5.75 5.75 0 1 0 -11.5 0zM879.75 264.5 a5.75 5.75 0 1 0 11.5 0 a5.75 5.75 0 1 0 -11.5 0zM442.75 241.5 a5.75 5.75 0 1 0 11.5 0 a5.75 5.75 0 1 0 -11.5 0zM994.75 287.5 a5.75 5.75 0 1 0 11.5 0 a5.75 5.75 0 1 0 -11.5 0zM879.75 310.5 a5.75 5.75 0 1 0 11.5 0 a5.75 5.75 0 1 0 -11.5 0zM1293.75 264.5 a5.75 5.75 0 1 0 11.5 0 a5.75 5.75 0 1 0 -11.5 0zM304.75 287.5 a5.75 5.75 0 1 0 11.5 0 a5.75 5.75 0 1 0 -11.5 0zM304.75 310.5 a5.75 5.75 0 1 0 11.5 0 a5.75 5.75 0 1 0 -11.5 0z" fill="rgba(58, 195, 174, 0.58)"></path><path d="M908.5 172.5L885.5 149.5L862.5 149.5L839.5 149.5L816.5 149.5L793.5 149.5L770.5 149.5L747.5 149.5L724.5 149.5L701.5 149.5L678.5 149.5L655.5 149.5L632.5 149.5M586.5 172.5L563.5 195.5M1069.5 172.5L1046.5 149.5L1023.5 149.5M954.5 195.5L931.5 172.5L908.5 149.5M1437.5 218.5L1414.5 218.5L1391.5 218.5L1368.5 218.5L1345.5 241.5M816.5 172.5L793.5 195.5L770.5 195.5L747.5 195.5L724.5 195.5M678.5 172.5L655.5 195.5L632.5 195.5L609.5 195.5L586.5 195.5L563.5 218.5L540.5 218.5M540.5 172.5L517.5 195.5L494.5 195.5L471.5 195.5L448.5 195.5M563.5 172.5L540.5 149.5L517.5 149.5L494.5 149.5L471.5 149.5M1322.5 195.5L1299.5 218.5M1092.5 172.5L1069.5 149.5L1046.5 126.5L1023.5 126.5L1000.5 126.5L977.5 126.5L954.5 126.5L931.5 126.5L908.5 126.5L885.5 126.5L862.5 126.5L839.5 126.5L816.5 126.5L793.5 126.5L770.5 126.5L747.5 126.5L724.5 126.5L701.5 126.5M1529.5 241.5L1506.5 218.5L1483.5 218.5L1460.5 218.5L1437.5 218.5L1414.5 195.5L1391.5 195.5L1368.5 195.5L1345.5 195.5L1322.5 195.5L1299.5 195.5L1276.5 172.5L1253.5 172.5L1230.5 172.5L1207.5 172.5L1184.5 172.5L1161.5 172.5L1138.5 172.5L1115.5 172.5L1092.5 172.5L1069.5 172.5L1046.5 172.5L1023.5 172.5L1000.5 195.5L977.5 195.5L954.5 195.5L931.5 195.5L908.5 172.5L885.5 172.5L862.5 172.5L839.5 172.5L816.5 172.5L793.5 172.5L770.5 172.5L747.5 172.5L724.5 172.5L701.5 172.5L678.5 172.5L655.5 172.5L632.5 172.5L609.5 172.5L586.5 172.5L563.5 172.5L540.5 172.5L517.5 172.5L494.5 172.5L471.5 172.5" stroke="rgba(58, 195, 174, 0.58)" stroke-width="3.83"></path><path d="M465.75 172.5 a5.75 5.75 0 1 0 11.5 0 a5.75 5.75 0 1 0 -11.5 0zM626.75 149.5 a5.75 5.75 0 1 0 11.5 0 a5.75 5.75 0 1 0 -11.5 0zM557.75 195.5 a5.75 5.75 0 1 0 11.5 0 a5.75 5.75 0 1 0 -11.5 0zM1017.75 149.5 a5.75 5.75 0 1 0 11.5 0 a5.75 5.75 0 1 0 -11.5 0zM902.75 149.5 a5.75 5.75 0 1 0 11.5 0 a5.75 5.75 0 1 0 -11.5 0zM1339.75 241.5 a5.75 5.75 0 1 0 11.5 0 a5.75 5.75 0 1 0 -11.5 0zM718.75 195.5 a5.75 5.75 0 1 0 11.5 0 a5.75 5.75 0 1 0 -11.5 0zM534.75 218.5 a5.75 5.75 0 1 0 11.5 0 a5.75 5.75 0 1 0 -11.5 0zM442.75 195.5 a5.75 5.75 0 1 0 11.5 0 a5.75 5.75 0 1 0 -11.5 0zM465.75 149.5 a5.75 5.75 0 1 0 11.5 0 a5.75 5.75 0 1 0 -11.5 0zM1293.75 218.5 a5.75 5.75 0 1 0 11.5 0 a5.75 5.75 0 1 0 -11.5 0zM695.75 126.5 a5.75 5.75 0 1 0 11.5 0 a5.75 5.75 0 1 0 -11.5 0z" fill="rgba(58, 195, 174, 0.58)"></path><path d="M655.5 402.5L632.5 402.5L609.5 402.5L586.5 402.5M1161.5 356.5L1138.5 356.5M1092.5 402.5L1069.5 379.5L1046.5 379.5L1023.5 379.5L1000.5 379.5M448.5 379.5L425.5 356.5L402.5 356.5L379.5 356.5L356.5 356.5L333.5 356.5L310.5 356.5M885.5 402.5L862.5 379.5L839.5 379.5L816.5 379.5L793.5 379.5L770.5 379.5L747.5 379.5L724.5 379.5L701.5 379.5L678.5 379.5L655.5 379.5M931.5 402.5L908.5 379.5L885.5 379.5L862.5 356.5L839.5 356.5M1184.5 356.5L1161.5 379.5M1138.5 379.5L1115.5 379.5L1092.5 379.5M954.5 402.5L931.5 379.5L908.5 356.5M494.5 379.5L471.5 356.5L448.5 356.5M1529.5 333.5L1506.5 333.5L1483.5 333.5L1460.5 333.5L1437.5 333.5L1414.5 333.5L1391.5 333.5L1368.5 333.5L1345.5 333.5L1322.5 333.5L1299.5 333.5L1276.5 333.5L1253.5 333.5L1230.5 356.5L1207.5 356.5L1184.5 356.5L1161.5 356.5L1138.5 379.5L1115.5 402.5L1092.5 402.5L1069.5 402.5L1046.5 402.5L1023.5 402.5L1000.5 402.5L977.5 402.5L954.5 402.5L931.5 402.5L908.5 402.5L885.5 402.5L862.5 402.5L839.5 402.5L816.5 402.5L793.5 402.5L770.5 402.5L747.5 402.5L724.5 402.5L701.5 402.5L678.5 402.5L655.5 402.5L632.5 379.5L609.5 379.5L586.5 379.5L563.5 379.5L540.5 379.5L517.5 379.5L494.5 379.5L471.5 379.5L448.5 379.5L425.5 379.5L402.5 379.5" stroke="rgba(58, 195, 174, 0.58)" stroke-width="3.83"></path><path d="M396.75 379.5 a5.75 5.75 0 1 0 11.5 0 a5.75 5.75 0 1 0 -11.5 0zM580.75 402.5 a5.75 5.75 0 1 0 11.5 0 a5.75 5.75 0 1 0 -11.5 0zM1132.75 356.5 a5.75 5.75 0 1 0 11.5 0 a5.75 5.75 0 1 0 -11.5 0zM994.75 379.5 a5.75 5.75 0 1 0 11.5 0 a5.75 5.75 0 1 0 -11.5 0zM304.75 356.5 a5.75 5.75 0 1 0 11.5 0 a5.75 5.75 0 1 0 -11.5 0zM649.75 379.5 a5.75 5.75 0 1 0 11.5 0 a5.75 5.75 0 1 0 -11.5 0zM833.75 356.5 a5.75 5.75 0 1 0 11.5 0 a5.75 5.75 0 1 0 -11.5 0zM1155.75 379.5 a5.75 5.75 0 1 0 11.5 0 a5.75 5.75 0 1 0 -11.5 0zM1086.75 379.5 a5.75 5.75 0 1 0 11.5 0 a5.75 5.75 0 1 0 -11.5 0zM902.75 356.5 a5.75 5.75 0 1 0 11.5 0 a5.75 5.75 0 1 0 -11.5 0zM442.75 356.5 a5.75 5.75 0 1 0 11.5 0 a5.75 5.75 0 1 0 -11.5 0z" fill="rgba(58, 195, 174, 0.58)"></path><path d="M1276.5 356.5L1253.5 356.5M1529.5 356.5L1506.5 356.5L1483.5 356.5L1460.5 356.5L1437.5 356.5L1414.5 356.5L1391.5 356.5L1368.5 356.5L1345.5 356.5L1322.5 356.5L1299.5 356.5L1276.5 356.5L1253.5 379.5L1230.5 379.5L1207.5 379.5" stroke="rgba(17, 211, 221, 0.68)" stroke-width="3.83"></path><path d="M1201.75 379.5 a5.75 5.75 0 1 0 11.5 0 a5.75 5.75 0 1 0 -11.5 0zM1247.75 356.5 a5.75 5.75 0 1 0 11.5 0 a5.75 5.75 0 1 0 -11.5 0z" fill="rgba(17, 211, 221, 0.68)"></path><path d="M1207.5 149.5L1184.5 126.5L1161.5 126.5M1529.5 195.5L1506.5 195.5L1483.5 195.5L1460.5 195.5L1437.5 195.5L1414.5 172.5L1391.5 172.5L1368.5 172.5L1345.5 172.5L1322.5 172.5L1299.5 172.5L1276.5 149.5L1253.5 149.5L1230.5 149.5L1207.5 149.5L1184.5 149.5L1161.5 149.5" stroke="rgba(58, 195, 174, 0.58)" stroke-width="3.83"></path><path d="M1155.75 149.5 a5.75 5.75 0 1 0 11.5 0 a5.75 5.75 0 1 0 -11.5 0zM1155.75 126.5 a5.75 5.75 0 1 0 11.5 0 a5.75 5.75 0 1 0 -11.5 0z" fill="rgba(58, 195, 174, 0.58)"></path><path d="M586.5 425.5L563.5 448.5L540.5 448.5L517.5 448.5L494.5 448.5M885.5 425.5L862.5 448.5L839.5 448.5L816.5 448.5L793.5 448.5L770.5 471.5L747.5 471.5L724.5 471.5L701.5 471.5L678.5 471.5L655.5 471.5L632.5 471.5L609.5 471.5L586.5 471.5L563.5 471.5M678.5 425.5L655.5 448.5M977.5 425.5L954.5 448.5L931.5 448.5M563.5 402.5L540.5 425.5L517.5 425.5L494.5 425.5L471.5 425.5L448.5 448.5L425.5 448.5L402.5 448.5M356.5 425.5L333.5 448.5L310.5 448.5M724.5 425.5L701.5 448.5L678.5 448.5M448.5 402.5L425.5 425.5L402.5 425.5M1046.5 425.5L1023.5 448.5L1000.5 448.5L977.5 448.5L954.5 471.5L931.5 471.5L908.5 448.5L885.5 448.5L862.5 471.5L839.5 471.5M402.5 402.5L379.5 402.5L356.5 402.5L333.5 402.5L310.5 402.5M632.5 425.5L609.5 448.5M770.5 425.5L747.5 448.5L724.5 448.5M379.5 425.5L356.5 448.5L333.5 471.5L310.5 494.5M1529.5 379.5L1506.5 379.5L1483.5 379.5L1460.5 379.5L1437.5 379.5L1414.5 379.5L1391.5 379.5L1368.5 379.5L1345.5 379.5L1322.5 379.5L1299.5 379.5L1276.5 379.5L1253.5 402.5L1230.5 402.5L1207.5 402.5L1184.5 402.5L1161.5 402.5L1138.5 402.5L1115.5 425.5L1092.5 425.5L1069.5 425.5L1046.5 425.5L1023.5 425.5L1000.5 425.5L977.5 425.5L954.5 425.5L931.5 425.5L908.5 425.5L885.5 425.5L862.5 425.5L839.5 425.5L816.5 425.5L793.5 425.5L770.5 425.5L747.5 425.5L724.5 425.5L701.5 425.5L678.5 425.5L655.5 425.5L632.5 425.5L609.5 425.5L586.5 425.5L563.5 402.5L540.5 402.5L517.5 402.5L494.5 402.5L471.5 402.5L448.5 402.5L425.5 402.5L402.5 402.5L379.5 425.5L356.5 425.5L333.5 425.5" stroke="rgba(58, 195, 174, 0.58)" stroke-width="3.83"></path><path d="M327.75 425.5 a5.75 5.75 0 1 0 11.5 0 a5.75 5.75 0 1 0 -11.5 0zM488.75 448.5 a5.75 5.75 0 1 0 11.5 0 a5.75 5.75 0 1 0 -11.5 0zM557.75 471.5 a5.75 5.75 0 1 0 11.5 0 a5.75 5.75 0 1 0 -11.5 0zM649.75 448.5 a5.75 5.75 0 1 0 11.5 0 a5.75 5.75 0 1 0 -11.5 0zM925.75 448.5 a5.75 5.75 0 1 0 11.5 0 a5.75 5.75 0 1 0 -11.5 0zM396.75 448.5 a5.75 5.75 0 1 0 11.5 0 a5.75 5.75 0 1 0 -11.5 0zM304.75 448.5 a5.75 5.75 0 1 0 11.5 0 a5.75 5.75 0 1 0 -11.5 0zM672.75 448.5 a5.75 5.75 0 1 0 11.5 0 a5.75 5.75 0 1 0 -11.5 0zM396.75 425.5 a5.75 5.75 0 1 0 11.5 0 a5.75 5.75 0 1 0 -11.5 0zM833.75 471.5 a5.75 5.75 0 1 0 11.5 0 a5.75 5.75 0 1 0 -11.5 0zM304.75 402.5 a5.75 5.75 0 1 0 11.5 0 a5.75 5.75 0 1 0 -11.5 0zM603.75 448.5 a5.75 5.75 0 1 0 11.5 0 a5.75 5.75 0 1 0 -11.5 0zM718.75 448.5 a5.75 5.75 0 1 0 11.5 0 a5.75 5.75 0 1 0 -11.5 0zM304.75 494.5 a5.75 5.75 0 1 0 11.5 0 a5.75 5.75 0 1 0 -11.5 0z" fill="rgba(58, 195, 174, 0.58)"></path><path d="M1230.5 126.5L1207.5 126.5M1529.5 172.5L1506.5 172.5L1483.5 172.5L1460.5 172.5L1437.5 172.5L1414.5 149.5L1391.5 149.5L1368.5 149.5L1345.5 149.5L1322.5 149.5L1299.5 149.5L1276.5 126.5L1253.5 126.5L1230.5 126.5L1207.5 103.5" stroke="rgba(17, 211, 221, 0.68)" stroke-width="3.83"></path><path d="M1201.75 103.5 a5.75 5.75 0 1 0 11.5 0 a5.75 5.75 0 1 0 -11.5 0zM1201.75 126.5 a5.75 5.75 0 1 0 11.5 0 a5.75 5.75 0 1 0 -11.5 0z" fill="rgba(17, 211, 221, 0.68)"></path><path d="M1230.5 425.5L1207.5 448.5M1115.5 448.5L1092.5 471.5L1069.5 471.5L1046.5 494.5L1023.5 517.5M977.5 494.5L954.5 517.5L931.5 517.5L908.5 517.5L885.5 517.5M1299.5 402.5L1276.5 425.5L1253.5 448.5L1230.5 448.5M1046.5 471.5L1023.5 471.5L1000.5 471.5L977.5 471.5M839.5 494.5L816.5 517.5L793.5 517.5L770.5 517.5L747.5 517.5M1000.5 494.5L977.5 517.5M908.5 494.5L885.5 471.5M1529.5 402.5L1506.5 402.5L1483.5 402.5L1460.5 402.5L1437.5 402.5L1414.5 402.5L1391.5 402.5L1368.5 402.5L1345.5 402.5L1322.5 402.5L1299.5 402.5L1276.5 402.5L1253.5 425.5L1230.5 425.5L1207.5 425.5L1184.5 425.5L1161.5 425.5L1138.5 425.5L1115.5 448.5L1092.5 448.5L1069.5 448.5L1046.5 471.5L1023.5 494.5L1000.5 494.5L977.5 494.5L954.5 494.5L931.5 494.5L908.5 494.5L885.5 494.5L862.5 494.5L839.5 494.5L816.5 494.5L793.5 494.5L770.5 494.5" stroke="rgba(58, 195, 174, 0.58)" stroke-width="3.83"></path><path d="M764.75 494.5 a5.75 5.75 0 1 0 11.5 0 a5.75 5.75 0 1 0 -11.5 0zM1201.75 448.5 a5.75 5.75 0 1 0 11.5 0 a5.75 5.75 0 1 0 -11.5 0zM1017.75 517.5 a5.75 5.75 0 1 0 11.5 0 a5.75 5.75 0 1 0 -11.5 0zM879.75 517.5 a5.75 5.75 0 1 0 11.5 0 a5.75 5.75 0 1 0 -11.5 0zM1224.75 448.5 a5.75 5.75 0 1 0 11.5 0 a5.75 5.75 0 1 0 -11.5 0zM971.75 471.5 a5.75 5.75 0 1 0 11.5 0 a5.75 5.75 0 1 0 -11.5 0zM741.75 517.5 a5.75 5.75 0 1 0 11.5 0 a5.75 5.75 0 1 0 -11.5 0zM971.75 517.5 a5.75 5.75 0 1 0 11.5 0 a5.75 5.75 0 1 0 -11.5 0zM879.75 471.5 a5.75 5.75 0 1 0 11.5 0 a5.75 5.75 0 1 0 -11.5 0z" fill="rgba(58, 195, 174, 0.58)"></path><path d="M1276.5 103.5L1253.5 80.5L1230.5 80.5L1207.5 57.5L1184.5 57.5L1161.5 57.5L1138.5 57.5L1115.5 57.5L1092.5 57.5L1069.5 57.5L1046.5 57.5L1023.5 57.5L1000.5 57.5M1483.5 149.5L1460.5 126.5M724.5 57.5L701.5 80.5L678.5 80.5L655.5 80.5L632.5 80.5L609.5 80.5L586.5 80.5L563.5 57.5L540.5 57.5L517.5 57.5L494.5 80.5L471.5 80.5L448.5 80.5L425.5 80.5L402.5 80.5L379.5 80.5M885.5 80.5L862.5 57.5L839.5 57.5M1092.5 80.5L1069.5 103.5L1046.5 103.5L1023.5 103.5L1000.5 103.5L977.5 103.5L954.5 103.5L931.5 103.5M747.5 57.5L724.5 80.5L701.5 103.5L678.5 103.5L655.5 103.5L632.5 103.5L609.5 103.5L586.5 103.5L563.5 80.5L540.5 80.5L517.5 80.5L494.5 103.5L471.5 103.5L448.5 103.5L425.5 103.5L402.5 103.5L379.5 103.5M862.5 80.5L839.5 103.5M770.5 57.5L747.5 80.5M908.5 80.5L885.5 103.5L862.5 103.5M1529.5 149.5L1506.5 149.5L1483.5 149.5L1460.5 149.5L1437.5 149.5L1414.5 126.5L1391.5 126.5L1368.5 126.5L1345.5 126.5L1322.5 126.5L1299.5 126.5L1276.5 103.5L1253.5 103.5L1230.5 103.5L1207.5 80.5L1184.5 80.5L1161.5 80.5L1138.5 80.5L1115.5 80.5L1092.5 80.5L1069.5 80.5L1046.5 80.5L1023.5 80.5L1000.5 80.5L977.5 80.5L954.5 80.5L931.5 80.5L908.5 80.5L885.5 80.5L862.5 80.5L839.5 80.5L816.5 80.5L793.5 57.5L770.5 57.5L747.5 57.5L724.5 57.5L701.5 57.5L678.5 57.5L655.5 57.5" stroke="rgba(17, 211, 221, 0.68)" stroke-width="3.83"></path><path d="M649.75 57.5 a5.75 5.75 0 1 0 11.5 0 a5.75 5.75 0 1 0 -11.5 0zM994.75 57.5 a5.75 5.75 0 1 0 11.5 0 a5.75 5.75 0 1 0 -11.5 0zM1454.75 126.5 a5.75 5.75 0 1 0 11.5 0 a5.75 5.75 0 1 0 -11.5 0zM373.75 80.5 a5.75 5.75 0 1 0 11.5 0 a5.75 5.75 0 1 0 -11.5 0zM833.75 57.5 a5.75 5.75 0 1 0 11.5 0 a5.75 5.75 0 1 0 -11.5 0zM925.75 103.5 a5.75 5.75 0 1 0 11.5 0 a5.75 5.75 0 1 0 -11.5 0zM373.75 103.5 a5.75 5.75 0 1 0 11.5 0 a5.75 5.75 0 1 0 -11.5 0zM833.75 103.5 a5.75 5.75 0 1 0 11.5 0 a5.75 5.75 0 1 0 -11.5 0zM741.75 80.5 a5.75 5.75 0 1 0 11.5 0 a5.75 5.75 0 1 0 -11.5 0zM856.75 103.5 a5.75 5.75 0 1 0 11.5 0 a5.75 5.75 0 1 0 -11.5 0z" fill="rgba(17, 211, 221, 0.68)"></path></g></g><defs><mask id="SvgjsMask1601"><rect width="1500" height="560" fill="#ffffff"></rect></mask><mask id="SvgjsMask1602"><rect width="1500" height="560" fill="white"></rect><path d="M1365.62 287.5 a2.88 2.88 0 1 0 5.76 0 a2.88 2.88 0 1 0 -5.76 0z" fill="black"></path><path d="M1388.62 264.5 a2.88 2.88 0 1 0 5.76 0 a2.88 2.88 0 1 0 -5.76 0zM1434.62 241.5 a2.88 2.88 0 1 0 5.76 0 a2.88 2.88 0 1 0 -5.76 0zM1480.62 241.5 a2.88 2.88 0 1 0 5.76 0 a2.88 2.88 0 1 0 -5.76 0zM1365.62 241.5 a2.88 2.88 0 1 0 5.76 0 a2.88 2.88 0 1 0 -5.76 0z" fill="black"></path><path d="M353.62 264.5 a2.88 2.88 0 1 0 5.76 0 a2.88 2.88 0 1 0 -5.76 0zM1066.62 287.5 a2.88 2.88 0 1 0 5.76 0 a2.88 2.88 0 1 0 -5.76 0zM514.62 287.5 a2.88 2.88 0 1 0 5.76 0 a2.88 2.88 0 1 0 -5.76 0zM790.62 310.5 a2.88 2.88 0 1 0 5.76 0 a2.88 2.88 0 1 0 -5.76 0zM813.62 333.5 a2.88 2.88 0 1 0 5.76 0 a2.88 2.88 0 1 0 -5.76 0zM307.62 333.5 a2.88 2.88 0 1 0 5.76 0 a2.88 2.88 0 1 0 -5.76 0zM1227.62 310.5 a2.88 2.88 0 1 0 5.76 0 a2.88 2.88 0 1 0 -5.76 0zM882.62 264.5 a2.88 2.88 0 1 0 5.76 0 a2.88 2.88 0 1 0 -5.76 0zM445.62 241.5 a2.88 2.88 0 1 0 5.76 0 a2.88 2.88 0 1 0 -5.76 0zM997.62 287.5 a2.88 2.88 0 1 0 5.76 0 a2.88 2.88 0 1 0 -5.76 0zM882.62 310.5 a2.88 2.88 0 1 0 5.76 0 a2.88 2.88 0 1 0 -5.76 0zM1296.62 264.5 a2.88 2.88 0 1 0 5.76 0 a2.88 2.88 0 1 0 -5.76 0zM307.62 287.5 a2.88 2.88 0 1 0 5.76 0 a2.88 2.88 0 1 0 -5.76 0zM307.62 310.5 a2.88 2.88 0 1 0 5.76 0 a2.88 2.88 0 1 0 -5.76 0z" fill="black"></path><path d="M468.62 172.5 a2.88 2.88 0 1 0 5.76 0 a2.88 2.88 0 1 0 -5.76 0zM629.62 149.5 a2.88 2.88 0 1 0 5.76 0 a2.88 2.88 0 1 0 -5.76 0zM560.62 195.5 a2.88 2.88 0 1 0 5.76 0 a2.88 2.88 0 1 0 -5.76 0zM1020.62 149.5 a2.88 2.88 0 1 0 5.76 0 a2.88 2.88 0 1 0 -5.76 0zM905.62 149.5 a2.88 2.88 0 1 0 5.76 0 a2.88 2.88 0 1 0 -5.76 0zM1342.62 241.5 a2.88 2.88 0 1 0 5.76 0 a2.88 2.88 0 1 0 -5.76 0zM721.62 195.5 a2.88 2.88 0 1 0 5.76 0 a2.88 2.88 0 1 0 -5.76 0zM537.62 218.5 a2.88 2.88 0 1 0 5.76 0 a2.88 2.88 0 1 0 -5.76 0zM445.62 195.5 a2.88 2.88 0 1 0 5.76 0 a2.88 2.88 0 1 0 -5.76 0zM468.62 149.5 a2.88 2.88 0 1 0 5.76 0 a2.88 2.88 0 1 0 -5.76 0zM1296.62 218.5 a2.88 2.88 0 1 0 5.76 0 a2.88 2.88 0 1 0 -5.76 0zM698.62 126.5 a2.88 2.88 0 1 0 5.76 0 a2.88 2.88 0 1 0 -5.76 0z" fill="black"></path><path d="M399.62 379.5 a2.88 2.88 0 1 0 5.76 0 a2.88 2.88 0 1 0 -5.76 0zM583.62 402.5 a2.88 2.88 0 1 0 5.76 0 a2.88 2.88 0 1 0 -5.76 0zM1135.62 356.5 a2.88 2.88 0 1 0 5.76 0 a2.88 2.88 0 1 0 -5.76 0zM997.62 379.5 a2.88 2.88 0 1 0 5.76 0 a2.88 2.88 0 1 0 -5.76 0zM307.62 356.5 a2.88 2.88 0 1 0 5.76 0 a2.88 2.88 0 1 0 -5.76 0zM652.62 379.5 a2.88 2.88 0 1 0 5.76 0 a2.88 2.88 0 1 0 -5.76 0zM836.62 356.5 a2.88 2.88 0 1 0 5.76 0 a2.88 2.88 0 1 0 -5.76 0zM1158.62 379.5 a2.88 2.88 0 1 0 5.76 0 a2.88 2.88 0 1 0 -5.76 0zM1089.62 379.5 a2.88 2.88 0 1 0 5.76 0 a2.88 2.88 0 1 0 -5.76 0zM905.62 356.5 a2.88 2.88 0 1 0 5.76 0 a2.88 2.88 0 1 0 -5.76 0zM445.62 356.5 a2.88 2.88 0 1 0 5.76 0 a2.88 2.88 0 1 0 -5.76 0z" fill="black"></path><path d="M1204.62 379.5 a2.88 2.88 0 1 0 5.76 0 a2.88 2.88 0 1 0 -5.76 0zM1250.62 356.5 a2.88 2.88 0 1 0 5.76 0 a2.88 2.88 0 1 0 -5.76 0z" fill="black"></path><path d="M1158.62 149.5 a2.88 2.88 0 1 0 5.76 0 a2.88 2.88 0 1 0 -5.76 0zM1158.62 126.5 a2.88 2.88 0 1 0 5.76 0 a2.88 2.88 0 1 0 -5.76 0z" fill="black"></path><path d="M330.62 425.5 a2.88 2.88 0 1 0 5.76 0 a2.88 2.88 0 1 0 -5.76 0zM491.62 448.5 a2.88 2.88 0 1 0 5.76 0 a2.88 2.88 0 1 0 -5.76 0zM560.62 471.5 a2.88 2.88 0 1 0 5.76 0 a2.88 2.88 0 1 0 -5.76 0zM652.62 448.5 a2.88 2.88 0 1 0 5.76 0 a2.88 2.88 0 1 0 -5.76 0zM928.62 448.5 a2.88 2.88 0 1 0 5.76 0 a2.88 2.88 0 1 0 -5.76 0zM399.62 448.5 a2.88 2.88 0 1 0 5.76 0 a2.88 2.88 0 1 0 -5.76 0zM307.62 448.5 a2.88 2.88 0 1 0 5.76 0 a2.88 2.88 0 1 0 -5.76 0zM675.62 448.5 a2.88 2.88 0 1 0 5.76 0 a2.88 2.88 0 1 0 -5.76 0zM399.62 425.5 a2.88 2.88 0 1 0 5.76 0 a2.88 2.88 0 1 0 -5.76 0zM836.62 471.5 a2.88 2.88 0 1 0 5.76 0 a2.88 2.88 0 1 0 -5.76 0zM307.62 402.5 a2.88 2.88 0 1 0 5.76 0 a2.88 2.88 0 1 0 -5.76 0zM606.62 448.5 a2.88 2.88 0 1 0 5.76 0 a2.88 2.88 0 1 0 -5.76 0zM721.62 448.5 a2.88 2.88 0 1 0 5.76 0 a2.88 2.88 0 1 0 -5.76 0zM307.62 494.5 a2.88 2.88 0 1 0 5.76 0 a2.88 2.88 0 1 0 -5.76 0z" fill="black"></path><path d="M1204.62 103.5 a2.88 2.88 0 1 0 5.76 0 a2.88 2.88 0 1 0 -5.76 0zM1204.62 126.5 a2.88 2.88 0 1 0 5.76 0 a2.88 2.88 0 1 0 -5.76 0z" fill="black"></path><path d="M767.62 494.5 a2.88 2.88 0 1 0 5.76 0 a2.88 2.88 0 1 0 -5.76 0zM1204.62 448.5 a2.88 2.88 0 1 0 5.76 0 a2.88 2.88 0 1 0 -5.76 0zM1020.62 517.5 a2.88 2.88 0 1 0 5.76 0 a2.88 2.88 0 1 0 -5.76 0zM882.62 517.5 a2.88 2.88 0 1 0 5.76 0 a2.88 2.88 0 1 0 -5.76 0zM1227.62 448.5 a2.88 2.88 0 1 0 5.76 0 a2.88 2.88 0 1 0 -5.76 0zM974.62 471.5 a2.88 2.88 0 1 0 5.76 0 a2.88 2.88 0 1 0 -5.76 0zM744.62 517.5 a2.88 2.88 0 1 0 5.76 0 a2.88 2.88 0 1 0 -5.76 0zM974.62 517.5 a2.88 2.88 0 1 0 5.76 0 a2.88 2.88 0 1 0 -5.76 0zM882.62 471.5 a2.88 2.88 0 1 0 5.76 0 a2.88 2.88 0 1 0 -5.76 0z" fill="black"></path><path d="M652.62 57.5 a2.88 2.88 0 1 0 5.76 0 a2.88 2.88 0 1 0 -5.76 0zM997.62 57.5 a2.88 2.88 0 1 0 5.76 0 a2.88 2.88 0 1 0 -5.76 0zM1457.62 126.5 a2.88 2.88 0 1 0 5.76 0 a2.88 2.88 0 1 0 -5.76 0zM376.62 80.5 a2.88 2.88 0 1 0 5.76 0 a2.88 2.88 0 1 0 -5.76 0zM836.62 57.5 a2.88 2.88 0 1 0 5.76 0 a2.88 2.88 0 1 0 -5.76 0zM928.62 103.5 a2.88 2.88 0 1 0 5.76 0 a2.88 2.88 0 1 0 -5.76 0zM376.62 103.5 a2.88 2.88 0 1 0 5.76 0 a2.88 2.88 0 1 0 -5.76 0zM836.62 103.5 a2.88 2.88 0 1 0 5.76 0 a2.88 2.88 0 1 0 -5.76 0zM744.62 80.5 a2.88 2.88 0 1 0 5.76 0 a2.88 2.88 0 1 0 -5.76 0zM859.62 103.5 a2.88 2.88 0 1 0 5.76 0 a2.88 2.88 0 1 0 -5.76 0z" fill="black"></path></mask></defs></svg>