<svg xmlns="http://www.w3.org/2000/svg" version="1.1" xmlns:xlink="http://www.w3.org/1999/xlink" xmlns:svgjs="http://svgjs.dev/svgjs" width="1500" height="560" preserveAspectRatio="none" viewBox="0 0 1500 560"><g mask="url(&quot;#SvgjsMask1060&quot;)" fill="none"><rect width="1500" height="560" x="0" y="0" fill="rgba(8, 68, 77, 1)"></rect><g mask="url(&quot;#SvgjsMask1061&quot;)"><path d="M243 279L261 261L279 261L297 261M225 279L243 261M207 279L225 261M-9 279L9 279L27 279L45 279L63 279L81 279L99 279L117 279L135 279L153 279L171 279L189 279L207 279L225 279L243 279L261 279L279 279" stroke="rgba(58, 195, 174, 0.33)" stroke-width="3"></path><path d="M274.5 279 a4.5 4.5 0 1 0 9 0 a4.5 4.5 0 1 0 -9 0zM292.5 261 a4.5 4.5 0 1 0 9 0 a4.5 4.5 0 1 0 -9 0zM238.5 261 a4.5 4.5 0 1 0 9 0 a4.5 4.5 0 1 0 -9 0zM220.5 261 a4.5 4.5 0 1 0 9 0 a4.5 4.5 0 1 0 -9 0z" fill="rgba(58, 195, 174, 0.33)"></path><path d="M351 297L369 315L387 315M135 297L153 315L171 333L189 333L207 333M243 297L261 315M549 297L567 279L585 279L603 297L621 297M459 297L477 315L495 315M279 315L297 297L315 279L333 279L351 279M405 297L423 315L441 315L459 315L477 333L495 333M207 297L225 315L243 315M-9 297L9 297L27 297L45 297L63 297L81 297L99 297L117 297L135 297L153 297L171 297L189 297L207 297L225 297L243 297L261 297L279 315L297 315L315 297L333 297L351 297L369 297L387 297L405 297L423 297L441 297L459 297L477 297L495 297L513 297L531 297L549 297L567 297" stroke="rgba(16, 85, 96, 0.27)" stroke-width="3"></path><path d="M562.5 297 a4.5 4.5 0 1 0 9 0 a4.5 4.5 0 1 0 -9 0zM382.5 315 a4.5 4.5 0 1 0 9 0 a4.5 4.5 0 1 0 -9 0zM202.5 333 a4.5 4.5 0 1 0 9 0 a4.5 4.5 0 1 0 -9 0zM256.5 315 a4.5 4.5 0 1 0 9 0 a4.5 4.5 0 1 0 -9 0zM616.5 297 a4.5 4.5 0 1 0 9 0 a4.5 4.5 0 1 0 -9 0zM490.5 315 a4.5 4.5 0 1 0 9 0 a4.5 4.5 0 1 0 -9 0zM346.5 279 a4.5 4.5 0 1 0 9 0 a4.5 4.5 0 1 0 -9 0zM490.5 333 a4.5 4.5 0 1 0 9 0 a4.5 4.5 0 1 0 -9 0zM238.5 315 a4.5 4.5 0 1 0 9 0 a4.5 4.5 0 1 0 -9 0z" fill="rgba(16, 85, 96, 0.27)"></path><path d="M27 261L45 243L63 243L81 243M387 243L405 261L423 261M333 243L351 261M9 261L27 243M315 243L333 261M369 243L387 261L405 279L423 279L441 279L459 261L477 261L495 261L513 261L531 261M-9 261L9 261L27 261L45 261L63 261L81 261L99 261L117 261L135 261L153 261L171 261L189 261L207 243L225 243L243 243L261 243L279 243L297 243L315 243L333 243L351 243L369 243L387 243L405 243" stroke="rgba(58, 195, 174, 0.33)" stroke-width="3"></path><path d="M400.5 243 a4.5 4.5 0 1 0 9 0 a4.5 4.5 0 1 0 -9 0zM76.5 243 a4.5 4.5 0 1 0 9 0 a4.5 4.5 0 1 0 -9 0zM418.5 261 a4.5 4.5 0 1 0 9 0 a4.5 4.5 0 1 0 -9 0zM346.5 261 a4.5 4.5 0 1 0 9 0 a4.5 4.5 0 1 0 -9 0zM22.5 243 a4.5 4.5 0 1 0 9 0 a4.5 4.5 0 1 0 -9 0zM328.5 261 a4.5 4.5 0 1 0 9 0 a4.5 4.5 0 1 0 -9 0zM526.5 261 a4.5 4.5 0 1 0 9 0 a4.5 4.5 0 1 0 -9 0z" fill="rgba(58, 195, 174, 0.33)"></path><path d="M405 351L423 333L441 333M45 333L63 315L81 315L99 315L117 315L135 315L153 333M171 351L189 369L207 369M315 333L333 351L351 351L369 351M567 333L585 315L603 315L621 315L639 315L657 315L675 315L693 315L711 315L729 315L747 315M675 333L693 333L711 333L729 333M729 351L747 351L765 351M477 351L495 369L513 369M531 333L549 315L567 315M27 315L45 315M-9 315L9 315L27 315L45 333L63 333L81 351L99 351L117 351L135 351L153 351L171 351L189 351L207 351L225 351L243 351L261 333L279 333L297 333L315 333L333 333L351 333L369 333L387 351L405 351L423 351L441 351L459 351L477 351L495 351L513 351L531 333L549 333L567 333L585 333L603 333L621 333L639 333L657 333L675 333L693 351L711 351L729 351L747 333" stroke="rgba(58, 195, 174, 0.33)" stroke-width="3"></path><path d="M742.5 333 a4.5 4.5 0 1 0 9 0 a4.5 4.5 0 1 0 -9 0zM436.5 333 a4.5 4.5 0 1 0 9 0 a4.5 4.5 0 1 0 -9 0zM148.5 333 a4.5 4.5 0 1 0 9 0 a4.5 4.5 0 1 0 -9 0zM202.5 369 a4.5 4.5 0 1 0 9 0 a4.5 4.5 0 1 0 -9 0zM364.5 351 a4.5 4.5 0 1 0 9 0 a4.5 4.5 0 1 0 -9 0zM742.5 315 a4.5 4.5 0 1 0 9 0 a4.5 4.5 0 1 0 -9 0zM724.5 333 a4.5 4.5 0 1 0 9 0 a4.5 4.5 0 1 0 -9 0zM760.5 351 a4.5 4.5 0 1 0 9 0 a4.5 4.5 0 1 0 -9 0zM508.5 369 a4.5 4.5 0 1 0 9 0 a4.5 4.5 0 1 0 -9 0zM562.5 315 a4.5 4.5 0 1 0 9 0 a4.5 4.5 0 1 0 -9 0zM40.5 315 a4.5 4.5 0 1 0 9 0 a4.5 4.5 0 1 0 -9 0z" fill="rgba(58, 195, 174, 0.33)"></path><path d="M279 351L297 369L315 387L333 387L351 387L369 387M423 369L441 387L459 387M135 387L153 369L171 369M261 351L279 369L297 387M297 351L315 351M99 369L117 369L135 369M-9 333L9 333L27 333L45 351L63 351L81 369L99 369L117 387L135 387L153 387L171 387L189 387L207 387L225 369L243 369L261 351L279 351L297 351L315 369L333 369L351 369L369 369L387 369L405 369L423 369L441 369L459 369" stroke="rgba(58, 195, 174, 0.33)" stroke-width="3"></path><path d="M454.5 369 a4.5 4.5 0 1 0 9 0 a4.5 4.5 0 1 0 -9 0zM364.5 387 a4.5 4.5 0 1 0 9 0 a4.5 4.5 0 1 0 -9 0zM454.5 387 a4.5 4.5 0 1 0 9 0 a4.5 4.5 0 1 0 -9 0zM166.5 369 a4.5 4.5 0 1 0 9 0 a4.5 4.5 0 1 0 -9 0zM292.5 387 a4.5 4.5 0 1 0 9 0 a4.5 4.5 0 1 0 -9 0zM310.5 351 a4.5 4.5 0 1 0 9 0 a4.5 4.5 0 1 0 -9 0zM130.5 369 a4.5 4.5 0 1 0 9 0 a4.5 4.5 0 1 0 -9 0z" fill="rgba(58, 195, 174, 0.33)"></path><path d="M81 225L99 207M423 225L441 243L459 243L477 243L495 243L513 243L531 243L549 261L567 261L585 261M513 225L531 207M387 225L405 207L423 207M99 225L117 243L135 243L153 243L171 243L189 243M279 225L297 207L315 207M369 225L387 207L405 189L423 189L441 189L459 189L477 189L495 189M531 225L549 225L567 225L585 225L603 225M-9 225L9 225L27 225L45 225L63 225L81 225L99 225L117 225L135 225L153 225L171 225L189 225L207 225L225 225L243 225L261 225L279 225L297 225L315 225L333 225L351 225L369 225L387 225L405 225L423 225L441 225L459 225L477 225L495 225L513 225L531 225L549 207L567 207L585 207" stroke="rgba(16, 85, 96, 0.27)" stroke-width="3"></path><path d="M580.5 207 a4.5 4.5 0 1 0 9 0 a4.5 4.5 0 1 0 -9 0zM94.5 207 a4.5 4.5 0 1 0 9 0 a4.5 4.5 0 1 0 -9 0zM580.5 261 a4.5 4.5 0 1 0 9 0 a4.5 4.5 0 1 0 -9 0zM526.5 207 a4.5 4.5 0 1 0 9 0 a4.5 4.5 0 1 0 -9 0zM418.5 207 a4.5 4.5 0 1 0 9 0 a4.5 4.5 0 1 0 -9 0zM184.5 243 a4.5 4.5 0 1 0 9 0 a4.5 4.5 0 1 0 -9 0zM310.5 207 a4.5 4.5 0 1 0 9 0 a4.5 4.5 0 1 0 -9 0zM490.5 189 a4.5 4.5 0 1 0 9 0 a4.5 4.5 0 1 0 -9 0zM598.5 225 a4.5 4.5 0 1 0 9 0 a4.5 4.5 0 1 0 -9 0z" fill="rgba(16, 85, 96, 0.27)"></path><path d="M243 405L261 387L279 387M-9 351L9 351L27 351L45 369L63 369L81 387L99 387L117 405L135 405L153 405L171 405L189 405L207 405L225 405L243 405L261 405L279 405L297 405" stroke="rgba(16, 85, 96, 0.27)" stroke-width="3"></path><path d="M292.5 405 a4.5 4.5 0 1 0 9 0 a4.5 4.5 0 1 0 -9 0zM274.5 387 a4.5 4.5 0 1 0 9 0 a4.5 4.5 0 1 0 -9 0z" fill="rgba(16, 85, 96, 0.27)"></path><path d="M153 189L171 189L189 189M45 207L63 207L81 207M315 189L333 189L351 189M117 189L135 207L153 207M261 189L279 207M-9 207L9 207L27 207L45 207L63 189L81 189L99 189L117 189L135 189L153 189L171 207L189 207L207 207L225 207L243 207L261 189L279 189L297 189L315 189L333 171" stroke="rgba(58, 195, 174, 0.33)" stroke-width="3"></path><path d="M328.5 171 a4.5 4.5 0 1 0 9 0 a4.5 4.5 0 1 0 -9 0zM184.5 189 a4.5 4.5 0 1 0 9 0 a4.5 4.5 0 1 0 -9 0zM76.5 207 a4.5 4.5 0 1 0 9 0 a4.5 4.5 0 1 0 -9 0zM346.5 189 a4.5 4.5 0 1 0 9 0 a4.5 4.5 0 1 0 -9 0zM148.5 207 a4.5 4.5 0 1 0 9 0 a4.5 4.5 0 1 0 -9 0zM274.5 207 a4.5 4.5 0 1 0 9 0 a4.5 4.5 0 1 0 -9 0z" fill="rgba(58, 195, 174, 0.33)"></path><path d="M603 423L621 405L639 405L657 405L675 405L693 405L711 405L729 405L747 405M927 405L945 423L963 423L981 423L999 423L1017 423L1035 423L1053 423L1071 423L1089 423L1107 423L1125 423M945 405L963 387L981 369L999 369L1017 369L1035 369L1053 351L1071 333L1089 333L1107 351L1125 351L1143 351M369 405L387 423L405 423L423 423L441 423L459 423L477 423L495 423L513 423M819 405L837 387L855 387L873 387L891 387L909 387L927 387L945 369M243 423L261 441L279 441L297 441L315 441M585 423L603 405L621 387L639 387L657 387L675 387L693 387L711 369L729 369L747 369L765 369L783 369L801 369L819 369L837 369L855 369L873 369L891 369M891 405L909 423L927 423L945 441L963 441M873 405L891 423L909 441L927 441M477 405L495 387L513 387L531 369L549 369L567 369L585 369L603 369M531 423L549 405L567 405L585 405L603 387M513 405L531 405L549 387L567 387L585 387M783 423L801 423L819 423M405 405L423 387M-9 369L9 369L27 369L45 387L63 387L81 405L99 405L117 423L135 423L153 423L171 423L189 423L207 423L225 423L243 423L261 423L279 423L297 423L315 423L333 405L351 405L369 405L387 405L405 405L423 405L441 405L459 405L477 405L495 405L513 405L531 423L549 423L567 423L585 423L603 423L621 423L639 423L657 423L675 423L693 423L711 423L729 423L747 423L765 423L783 423L801 405L819 405L837 405L855 405L873 405L891 405L909 405L927 405L945 405L963 405L981 405" stroke="rgba(16, 85, 96, 0.27)" stroke-width="3"></path><path d="M976.5 405 a4.5 4.5 0 1 0 9 0 a4.5 4.5 0 1 0 -9 0zM742.5 405 a4.5 4.5 0 1 0 9 0 a4.5 4.5 0 1 0 -9 0zM1120.5 423 a4.5 4.5 0 1 0 9 0 a4.5 4.5 0 1 0 -9 0zM1138.5 351 a4.5 4.5 0 1 0 9 0 a4.5 4.5 0 1 0 -9 0zM508.5 423 a4.5 4.5 0 1 0 9 0 a4.5 4.5 0 1 0 -9 0zM940.5 369 a4.5 4.5 0 1 0 9 0 a4.5 4.5 0 1 0 -9 0zM310.5 441 a4.5 4.5 0 1 0 9 0 a4.5 4.5 0 1 0 -9 0zM886.5 369 a4.5 4.5 0 1 0 9 0 a4.5 4.5 0 1 0 -9 0zM958.5 441 a4.5 4.5 0 1 0 9 0 a4.5 4.5 0 1 0 -9 0zM922.5 441 a4.5 4.5 0 1 0 9 0 a4.5 4.5 0 1 0 -9 0zM598.5 369 a4.5 4.5 0 1 0 9 0 a4.5 4.5 0 1 0 -9 0zM598.5 387 a4.5 4.5 0 1 0 9 0 a4.5 4.5 0 1 0 -9 0zM580.5 387 a4.5 4.5 0 1 0 9 0 a4.5 4.5 0 1 0 -9 0zM814.5 423 a4.5 4.5 0 1 0 9 0 a4.5 4.5 0 1 0 -9 0zM418.5 387 a4.5 4.5 0 1 0 9 0 a4.5 4.5 0 1 0 -9 0z" fill="rgba(16, 85, 96, 0.27)"></path><path d="M423 153L441 135L459 135L477 135M297 171L315 153L333 135L351 135M207 171L225 189L243 189M405 153L423 135L441 117L459 117M117 171L135 153L153 153L171 153L189 153M225 171L243 153L261 153L279 153L297 153M549 153L567 171L585 171L603 171L621 171L639 171L657 171M639 135L657 153M459 153L477 171M99 171L117 153L135 135L153 135L171 135L189 135L207 135L225 135L243 135L261 135L279 135M-9 189L9 189L27 189L45 189L63 171L81 171L99 171L117 171L135 171L153 171L171 171L189 171L207 171L225 171L243 171L261 171L279 171L297 171L315 171L333 153L351 153L369 153L387 153L405 153L423 153L441 153L459 153L477 153L495 153L513 153L531 153L549 153L567 153L585 153L603 153L621 153L639 135L657 135L675 153L693 153" stroke="rgba(58, 195, 174, 0.33)" stroke-width="3"></path><path d="M688.5 153 a4.5 4.5 0 1 0 9 0 a4.5 4.5 0 1 0 -9 0zM472.5 135 a4.5 4.5 0 1 0 9 0 a4.5 4.5 0 1 0 -9 0zM346.5 135 a4.5 4.5 0 1 0 9 0 a4.5 4.5 0 1 0 -9 0zM238.5 189 a4.5 4.5 0 1 0 9 0 a4.5 4.5 0 1 0 -9 0zM454.5 117 a4.5 4.5 0 1 0 9 0 a4.5 4.5 0 1 0 -9 0zM184.5 153 a4.5 4.5 0 1 0 9 0 a4.5 4.5 0 1 0 -9 0zM292.5 153 a4.5 4.5 0 1 0 9 0 a4.5 4.5 0 1 0 -9 0zM652.5 171 a4.5 4.5 0 1 0 9 0 a4.5 4.5 0 1 0 -9 0zM652.5 153 a4.5 4.5 0 1 0 9 0 a4.5 4.5 0 1 0 -9 0zM472.5 171 a4.5 4.5 0 1 0 9 0 a4.5 4.5 0 1 0 -9 0zM274.5 135 a4.5 4.5 0 1 0 9 0 a4.5 4.5 0 1 0 -9 0z" fill="rgba(58, 195, 174, 0.33)"></path><path d="M819 459L837 441L855 441L873 441L891 441M729 441L747 459M351 441L369 423M333 441L351 459L369 459L387 459L405 459L423 459M855 459L873 477L891 477L909 477M801 459L819 477L837 477L855 477L873 495L891 495L909 495L927 495L945 513M225 441L243 441M963 459L981 459L999 459L1017 459L1035 459M927 459L945 477L963 495L981 495L999 495L1017 495L1035 495L1053 495L1071 495L1089 495L1107 495L1125 495L1143 495M9 387L27 387M315 459L333 459M783 441L801 441L819 441M765 441L783 459L801 477L819 495M45 405L63 423M-9 387L9 387L27 405L45 405L63 405L81 423L99 423L117 441L135 441L153 441L171 441L189 441L207 441L225 441L243 459L261 459L279 459L297 459L315 459L333 441L351 441L369 441L387 441L405 441L423 441L441 441L459 441L477 441L495 441L513 441L531 441L549 441L567 441L585 441L603 441L621 441L639 441L657 441L675 441L693 441L711 441L729 441L747 441L765 441L783 441L801 459L819 459L837 459L855 459L873 459L891 459L909 459L927 459L945 459L963 459L981 441" stroke="rgba(58, 195, 174, 0.33)" stroke-width="3"></path><path d="M976.5 441 a4.5 4.5 0 1 0 9 0 a4.5 4.5 0 1 0 -9 0zM886.5 441 a4.5 4.5 0 1 0 9 0 a4.5 4.5 0 1 0 -9 0zM742.5 459 a4.5 4.5 0 1 0 9 0 a4.5 4.5 0 1 0 -9 0zM364.5 423 a4.5 4.5 0 1 0 9 0 a4.5 4.5 0 1 0 -9 0zM418.5 459 a4.5 4.5 0 1 0 9 0 a4.5 4.5 0 1 0 -9 0zM904.5 477 a4.5 4.5 0 1 0 9 0 a4.5 4.5 0 1 0 -9 0zM940.5 513 a4.5 4.5 0 1 0 9 0 a4.5 4.5 0 1 0 -9 0zM238.5 441 a4.5 4.5 0 1 0 9 0 a4.5 4.5 0 1 0 -9 0zM1030.5 459 a4.5 4.5 0 1 0 9 0 a4.5 4.5 0 1 0 -9 0zM1138.5 495 a4.5 4.5 0 1 0 9 0 a4.5 4.5 0 1 0 -9 0zM22.5 387 a4.5 4.5 0 1 0 9 0 a4.5 4.5 0 1 0 -9 0zM328.5 459 a4.5 4.5 0 1 0 9 0 a4.5 4.5 0 1 0 -9 0zM814.5 441 a4.5 4.5 0 1 0 9 0 a4.5 4.5 0 1 0 -9 0zM814.5 495 a4.5 4.5 0 1 0 9 0 a4.5 4.5 0 1 0 -9 0zM58.5 423 a4.5 4.5 0 1 0 9 0 a4.5 4.5 0 1 0 -9 0z" fill="rgba(58, 195, 174, 0.33)"></path><path d="M81 153L99 153M-9 171L9 171L27 171L45 171L63 153L81 153L99 135" stroke="rgba(58, 195, 174, 0.33)" stroke-width="3"></path><path d="M94.5 135 a4.5 4.5 0 1 0 9 0 a4.5 4.5 0 1 0 -9 0zM94.5 153 a4.5 4.5 0 1 0 9 0 a4.5 4.5 0 1 0 -9 0z" fill="rgba(58, 195, 174, 0.33)"></path><path d="M243 477L261 495L279 495L297 495L315 495L333 495L351 495L369 495L387 495L405 495L423 495M495 459L513 477L531 477M459 459L477 477L495 477L513 495M639 459L657 477L675 477L693 477L711 477L729 495L747 495L765 513M207 459L225 459M603 459L621 477M747 477L765 477L783 477M27 423L45 423M189 459L207 477L225 495L243 495L261 513L279 513L297 513L315 513L333 513L351 513L369 513L387 513L405 513M63 441L81 459L99 459M153 459L171 477L189 477L207 495M-9 405L9 405L27 423L45 441L63 441L81 441L99 441L117 459L135 459L153 459L171 459L189 459L207 459L225 477L243 477L261 477L279 477L297 477L315 477L333 477L351 477L369 477L387 477L405 477L423 477L441 459L459 459L477 459L495 459L513 459L531 459L549 459L567 459L585 459L603 459L621 459L639 459L657 459L675 459L693 459L711 459L729 477L747 477L765 495L783 495" stroke="rgba(58, 195, 174, 0.33)" stroke-width="3"></path><path d="M778.5 495 a4.5 4.5 0 1 0 9 0 a4.5 4.5 0 1 0 -9 0zM418.5 495 a4.5 4.5 0 1 0 9 0 a4.5 4.5 0 1 0 -9 0zM526.5 477 a4.5 4.5 0 1 0 9 0 a4.5 4.5 0 1 0 -9 0zM508.5 495 a4.5 4.5 0 1 0 9 0 a4.5 4.5 0 1 0 -9 0zM760.5 513 a4.5 4.5 0 1 0 9 0 a4.5 4.5 0 1 0 -9 0zM220.5 459 a4.5 4.5 0 1 0 9 0 a4.5 4.5 0 1 0 -9 0zM616.5 477 a4.5 4.5 0 1 0 9 0 a4.5 4.5 0 1 0 -9 0zM778.5 477 a4.5 4.5 0 1 0 9 0 a4.5 4.5 0 1 0 -9 0zM40.5 423 a4.5 4.5 0 1 0 9 0 a4.5 4.5 0 1 0 -9 0zM400.5 513 a4.5 4.5 0 1 0 9 0 a4.5 4.5 0 1 0 -9 0zM94.5 459 a4.5 4.5 0 1 0 9 0 a4.5 4.5 0 1 0 -9 0zM202.5 495 a4.5 4.5 0 1 0 9 0 a4.5 4.5 0 1 0 -9 0z" fill="rgba(58, 195, 174, 0.33)"></path><path d="M9 153L27 135M63 135L81 117M99 117L117 135M-9 153L9 153L27 153L45 153L63 135L81 135L99 117L117 99" stroke="rgba(16, 85, 96, 0.27)" stroke-width="3"></path><path d="M112.5 99 a4.5 4.5 0 1 0 9 0 a4.5 4.5 0 1 0 -9 0zM22.5 135 a4.5 4.5 0 1 0 9 0 a4.5 4.5 0 1 0 -9 0zM76.5 117 a4.5 4.5 0 1 0 9 0 a4.5 4.5 0 1 0 -9 0zM112.5 135 a4.5 4.5 0 1 0 9 0 a4.5 4.5 0 1 0 -9 0z" fill="rgba(16, 85, 96, 0.27)"></path></g></g><defs><mask id="SvgjsMask1060"><rect width="1500" height="560" fill="#ffffff"></rect></mask><mask id="SvgjsMask1061"><rect width="1500" height="560" fill="white"></rect><path d="M276.75 279 a2.25 2.25 0 1 0 4.5 0 a2.25 2.25 0 1 0 -4.5 0zM294.75 261 a2.25 2.25 0 1 0 4.5 0 a2.25 2.25 0 1 0 -4.5 0zM240.75 261 a2.25 2.25 0 1 0 4.5 0 a2.25 2.25 0 1 0 -4.5 0zM222.75 261 a2.25 2.25 0 1 0 4.5 0 a2.25 2.25 0 1 0 -4.5 0z" fill="black"></path><path d="M564.75 297 a2.25 2.25 0 1 0 4.5 0 a2.25 2.25 0 1 0 -4.5 0zM384.75 315 a2.25 2.25 0 1 0 4.5 0 a2.25 2.25 0 1 0 -4.5 0zM204.75 333 a2.25 2.25 0 1 0 4.5 0 a2.25 2.25 0 1 0 -4.5 0zM258.75 315 a2.25 2.25 0 1 0 4.5 0 a2.25 2.25 0 1 0 -4.5 0zM618.75 297 a2.25 2.25 0 1 0 4.5 0 a2.25 2.25 0 1 0 -4.5 0zM492.75 315 a2.25 2.25 0 1 0 4.5 0 a2.25 2.25 0 1 0 -4.5 0zM348.75 279 a2.25 2.25 0 1 0 4.5 0 a2.25 2.25 0 1 0 -4.5 0zM492.75 333 a2.25 2.25 0 1 0 4.5 0 a2.25 2.25 0 1 0 -4.5 0zM240.75 315 a2.25 2.25 0 1 0 4.5 0 a2.25 2.25 0 1 0 -4.5 0z" fill="black"></path><path d="M402.75 243 a2.25 2.25 0 1 0 4.5 0 a2.25 2.25 0 1 0 -4.5 0zM78.75 243 a2.25 2.25 0 1 0 4.5 0 a2.25 2.25 0 1 0 -4.5 0zM420.75 261 a2.25 2.25 0 1 0 4.5 0 a2.25 2.25 0 1 0 -4.5 0zM348.75 261 a2.25 2.25 0 1 0 4.5 0 a2.25 2.25 0 1 0 -4.5 0zM24.75 243 a2.25 2.25 0 1 0 4.5 0 a2.25 2.25 0 1 0 -4.5 0zM330.75 261 a2.25 2.25 0 1 0 4.5 0 a2.25 2.25 0 1 0 -4.5 0zM528.75 261 a2.25 2.25 0 1 0 4.5 0 a2.25 2.25 0 1 0 -4.5 0z" fill="black"></path><path d="M744.75 333 a2.25 2.25 0 1 0 4.5 0 a2.25 2.25 0 1 0 -4.5 0zM438.75 333 a2.25 2.25 0 1 0 4.5 0 a2.25 2.25 0 1 0 -4.5 0zM150.75 333 a2.25 2.25 0 1 0 4.5 0 a2.25 2.25 0 1 0 -4.5 0zM204.75 369 a2.25 2.25 0 1 0 4.5 0 a2.25 2.25 0 1 0 -4.5 0zM366.75 351 a2.25 2.25 0 1 0 4.5 0 a2.25 2.25 0 1 0 -4.5 0zM744.75 315 a2.25 2.25 0 1 0 4.5 0 a2.25 2.25 0 1 0 -4.5 0zM726.75 333 a2.25 2.25 0 1 0 4.5 0 a2.25 2.25 0 1 0 -4.5 0zM762.75 351 a2.25 2.25 0 1 0 4.5 0 a2.25 2.25 0 1 0 -4.5 0zM510.75 369 a2.25 2.25 0 1 0 4.5 0 a2.25 2.25 0 1 0 -4.5 0zM564.75 315 a2.25 2.25 0 1 0 4.5 0 a2.25 2.25 0 1 0 -4.5 0zM42.75 315 a2.25 2.25 0 1 0 4.5 0 a2.25 2.25 0 1 0 -4.5 0z" fill="black"></path><path d="M456.75 369 a2.25 2.25 0 1 0 4.5 0 a2.25 2.25 0 1 0 -4.5 0zM366.75 387 a2.25 2.25 0 1 0 4.5 0 a2.25 2.25 0 1 0 -4.5 0zM456.75 387 a2.25 2.25 0 1 0 4.5 0 a2.25 2.25 0 1 0 -4.5 0zM168.75 369 a2.25 2.25 0 1 0 4.5 0 a2.25 2.25 0 1 0 -4.5 0zM294.75 387 a2.25 2.25 0 1 0 4.5 0 a2.25 2.25 0 1 0 -4.5 0zM312.75 351 a2.25 2.25 0 1 0 4.5 0 a2.25 2.25 0 1 0 -4.5 0zM132.75 369 a2.25 2.25 0 1 0 4.5 0 a2.25 2.25 0 1 0 -4.5 0z" fill="black"></path><path d="M582.75 207 a2.25 2.25 0 1 0 4.5 0 a2.25 2.25 0 1 0 -4.5 0zM96.75 207 a2.25 2.25 0 1 0 4.5 0 a2.25 2.25 0 1 0 -4.5 0zM582.75 261 a2.25 2.25 0 1 0 4.5 0 a2.25 2.25 0 1 0 -4.5 0zM528.75 207 a2.25 2.25 0 1 0 4.5 0 a2.25 2.25 0 1 0 -4.5 0zM420.75 207 a2.25 2.25 0 1 0 4.5 0 a2.25 2.25 0 1 0 -4.5 0zM186.75 243 a2.25 2.25 0 1 0 4.5 0 a2.25 2.25 0 1 0 -4.5 0zM312.75 207 a2.25 2.25 0 1 0 4.5 0 a2.25 2.25 0 1 0 -4.5 0zM492.75 189 a2.25 2.25 0 1 0 4.5 0 a2.25 2.25 0 1 0 -4.5 0zM600.75 225 a2.25 2.25 0 1 0 4.5 0 a2.25 2.25 0 1 0 -4.5 0z" fill="black"></path><path d="M294.75 405 a2.25 2.25 0 1 0 4.5 0 a2.25 2.25 0 1 0 -4.5 0zM276.75 387 a2.25 2.25 0 1 0 4.5 0 a2.25 2.25 0 1 0 -4.5 0z" fill="black"></path><path d="M330.75 171 a2.25 2.25 0 1 0 4.5 0 a2.25 2.25 0 1 0 -4.5 0zM186.75 189 a2.25 2.25 0 1 0 4.5 0 a2.25 2.25 0 1 0 -4.5 0zM78.75 207 a2.25 2.25 0 1 0 4.5 0 a2.25 2.25 0 1 0 -4.5 0zM348.75 189 a2.25 2.25 0 1 0 4.5 0 a2.25 2.25 0 1 0 -4.5 0zM150.75 207 a2.25 2.25 0 1 0 4.5 0 a2.25 2.25 0 1 0 -4.5 0zM276.75 207 a2.25 2.25 0 1 0 4.5 0 a2.25 2.25 0 1 0 -4.5 0z" fill="black"></path><path d="M978.75 405 a2.25 2.25 0 1 0 4.5 0 a2.25 2.25 0 1 0 -4.5 0zM744.75 405 a2.25 2.25 0 1 0 4.5 0 a2.25 2.25 0 1 0 -4.5 0zM1122.75 423 a2.25 2.25 0 1 0 4.5 0 a2.25 2.25 0 1 0 -4.5 0zM1140.75 351 a2.25 2.25 0 1 0 4.5 0 a2.25 2.25 0 1 0 -4.5 0zM510.75 423 a2.25 2.25 0 1 0 4.5 0 a2.25 2.25 0 1 0 -4.5 0zM942.75 369 a2.25 2.25 0 1 0 4.5 0 a2.25 2.25 0 1 0 -4.5 0zM312.75 441 a2.25 2.25 0 1 0 4.5 0 a2.25 2.25 0 1 0 -4.5 0zM888.75 369 a2.25 2.25 0 1 0 4.5 0 a2.25 2.25 0 1 0 -4.5 0zM960.75 441 a2.25 2.25 0 1 0 4.5 0 a2.25 2.25 0 1 0 -4.5 0zM924.75 441 a2.25 2.25 0 1 0 4.5 0 a2.25 2.25 0 1 0 -4.5 0zM600.75 369 a2.25 2.25 0 1 0 4.5 0 a2.25 2.25 0 1 0 -4.5 0zM600.75 387 a2.25 2.25 0 1 0 4.5 0 a2.25 2.25 0 1 0 -4.5 0zM582.75 387 a2.25 2.25 0 1 0 4.5 0 a2.25 2.25 0 1 0 -4.5 0zM816.75 423 a2.25 2.25 0 1 0 4.5 0 a2.25 2.25 0 1 0 -4.5 0zM420.75 387 a2.25 2.25 0 1 0 4.5 0 a2.25 2.25 0 1 0 -4.5 0z" fill="black"></path><path d="M690.75 153 a2.25 2.25 0 1 0 4.5 0 a2.25 2.25 0 1 0 -4.5 0zM474.75 135 a2.25 2.25 0 1 0 4.5 0 a2.25 2.25 0 1 0 -4.5 0zM348.75 135 a2.25 2.25 0 1 0 4.5 0 a2.25 2.25 0 1 0 -4.5 0zM240.75 189 a2.25 2.25 0 1 0 4.5 0 a2.25 2.25 0 1 0 -4.5 0zM456.75 117 a2.25 2.25 0 1 0 4.5 0 a2.25 2.25 0 1 0 -4.5 0zM186.75 153 a2.25 2.25 0 1 0 4.5 0 a2.25 2.25 0 1 0 -4.5 0zM294.75 153 a2.25 2.25 0 1 0 4.5 0 a2.25 2.25 0 1 0 -4.5 0zM654.75 171 a2.25 2.25 0 1 0 4.5 0 a2.25 2.25 0 1 0 -4.5 0zM654.75 153 a2.25 2.25 0 1 0 4.5 0 a2.25 2.25 0 1 0 -4.5 0zM474.75 171 a2.25 2.25 0 1 0 4.5 0 a2.25 2.25 0 1 0 -4.5 0zM276.75 135 a2.25 2.25 0 1 0 4.5 0 a2.25 2.25 0 1 0 -4.5 0z" fill="black"></path><path d="M978.75 441 a2.25 2.25 0 1 0 4.5 0 a2.25 2.25 0 1 0 -4.5 0zM888.75 441 a2.25 2.25 0 1 0 4.5 0 a2.25 2.25 0 1 0 -4.5 0zM744.75 459 a2.25 2.25 0 1 0 4.5 0 a2.25 2.25 0 1 0 -4.5 0zM366.75 423 a2.25 2.25 0 1 0 4.5 0 a2.25 2.25 0 1 0 -4.5 0zM420.75 459 a2.25 2.25 0 1 0 4.5 0 a2.25 2.25 0 1 0 -4.5 0zM906.75 477 a2.25 2.25 0 1 0 4.5 0 a2.25 2.25 0 1 0 -4.5 0zM942.75 513 a2.25 2.25 0 1 0 4.5 0 a2.25 2.25 0 1 0 -4.5 0zM240.75 441 a2.25 2.25 0 1 0 4.5 0 a2.25 2.25 0 1 0 -4.5 0zM1032.75 459 a2.25 2.25 0 1 0 4.5 0 a2.25 2.25 0 1 0 -4.5 0zM1140.75 495 a2.25 2.25 0 1 0 4.5 0 a2.25 2.25 0 1 0 -4.5 0zM24.75 387 a2.25 2.25 0 1 0 4.5 0 a2.25 2.25 0 1 0 -4.5 0zM330.75 459 a2.25 2.25 0 1 0 4.5 0 a2.25 2.25 0 1 0 -4.5 0zM816.75 441 a2.25 2.25 0 1 0 4.5 0 a2.25 2.25 0 1 0 -4.5 0zM816.75 495 a2.25 2.25 0 1 0 4.5 0 a2.25 2.25 0 1 0 -4.5 0zM60.75 423 a2.25 2.25 0 1 0 4.5 0 a2.25 2.25 0 1 0 -4.5 0z" fill="black"></path><path d="M96.75 135 a2.25 2.25 0 1 0 4.5 0 a2.25 2.25 0 1 0 -4.5 0zM96.75 153 a2.25 2.25 0 1 0 4.5 0 a2.25 2.25 0 1 0 -4.5 0z" fill="black"></path><path d="M780.75 495 a2.25 2.25 0 1 0 4.5 0 a2.25 2.25 0 1 0 -4.5 0zM420.75 495 a2.25 2.25 0 1 0 4.5 0 a2.25 2.25 0 1 0 -4.5 0zM528.75 477 a2.25 2.25 0 1 0 4.5 0 a2.25 2.25 0 1 0 -4.5 0zM510.75 495 a2.25 2.25 0 1 0 4.5 0 a2.25 2.25 0 1 0 -4.5 0zM762.75 513 a2.25 2.25 0 1 0 4.5 0 a2.25 2.25 0 1 0 -4.5 0zM222.75 459 a2.25 2.25 0 1 0 4.5 0 a2.25 2.25 0 1 0 -4.5 0zM618.75 477 a2.25 2.25 0 1 0 4.5 0 a2.25 2.25 0 1 0 -4.5 0zM780.75 477 a2.25 2.25 0 1 0 4.5 0 a2.25 2.25 0 1 0 -4.5 0zM42.75 423 a2.25 2.25 0 1 0 4.5 0 a2.25 2.25 0 1 0 -4.5 0zM402.75 513 a2.25 2.25 0 1 0 4.5 0 a2.25 2.25 0 1 0 -4.5 0zM96.75 459 a2.25 2.25 0 1 0 4.5 0 a2.25 2.25 0 1 0 -4.5 0zM204.75 495 a2.25 2.25 0 1 0 4.5 0 a2.25 2.25 0 1 0 -4.5 0z" fill="black"></path><path d="M114.75 99 a2.25 2.25 0 1 0 4.5 0 a2.25 2.25 0 1 0 -4.5 0zM24.75 135 a2.25 2.25 0 1 0 4.5 0 a2.25 2.25 0 1 0 -4.5 0zM78.75 117 a2.25 2.25 0 1 0 4.5 0 a2.25 2.25 0 1 0 -4.5 0zM114.75 135 a2.25 2.25 0 1 0 4.5 0 a2.25 2.25 0 1 0 -4.5 0z" fill="black"></path></mask></defs></svg>