<svg xmlns="http://www.w3.org/2000/svg" version="1.1" xmlns:xlink="http://www.w3.org/1999/xlink" xmlns:svgjs="http://svgjs.dev/svgjs" width="1500" height="560" preserveAspectRatio="none" viewBox="0 0 1500 560"><g mask="url(&quot;#SvgjsMask1308&quot;)" fill="none"><rect width="1500" height="560" x="0" y="0" fill="rgba(8, 68, 77, 1)"></rect><g mask="url(&quot;#SvgjsMask1309&quot;)"><path d="M225 279L243 261L261 261L279 261L297 261M189 279L207 297L225 297L243 297L261 297M171 279L189 261L207 261L225 261M153 279L171 297L189 297M-9 279L9 279L27 279L45 279L63 279L81 279L99 279L117 279L135 279L153 279L171 279L189 279L207 279L225 279L243 279L261 279L279 279" stroke="rgba(16, 85, 96, 0.19)" stroke-width="3"></path><path d="M274.5 279 a4.5 4.5 0 1 0 9 0 a4.5 4.5 0 1 0 -9 0zM292.5 261 a4.5 4.5 0 1 0 9 0 a4.5 4.5 0 1 0 -9 0zM256.5 297 a4.5 4.5 0 1 0 9 0 a4.5 4.5 0 1 0 -9 0zM220.5 261 a4.5 4.5 0 1 0 9 0 a4.5 4.5 0 1 0 -9 0zM184.5 297 a4.5 4.5 0 1 0 9 0 a4.5 4.5 0 1 0 -9 0z" fill="rgba(16, 85, 96, 0.19)"></path><path d="M135 297L153 297M-9 297L9 297L27 297L45 297L63 297L81 297L99 297L117 297L135 297L153 315L171 315L189 315" stroke="rgba(58, 195, 174, 0.2)" stroke-width="3"></path><path d="M184.5 315 a4.5 4.5 0 1 0 9 0 a4.5 4.5 0 1 0 -9 0zM148.5 297 a4.5 4.5 0 1 0 9 0 a4.5 4.5 0 1 0 -9 0z" fill="rgba(58, 195, 174, 0.2)"></path><path d="M369 243L387 261L405 261M495 225L513 207L531 207L549 207L567 207M135 261L153 261L171 261M549 225L567 243L585 243L603 243L621 243L639 243L657 243L675 243L693 261L711 261L729 261M477 243L495 243M315 243L333 261L351 261M441 243L459 261L477 261L495 261L513 261M513 225L531 243L549 243L567 261L585 261L603 261L621 261M-9 261L9 261L27 261L45 261L63 261L81 261L99 261L117 261L135 261L153 243L171 243L189 243L207 243L225 243L243 243L261 243L279 243L297 243L315 243L333 243L351 243L369 243L387 243L405 243L423 243L441 243L459 243L477 243L495 225L513 225L531 225L549 225L567 225" stroke="rgba(58, 195, 174, 0.2)" stroke-width="3"></path><path d="M562.5 225 a4.5 4.5 0 1 0 9 0 a4.5 4.5 0 1 0 -9 0zM400.5 261 a4.5 4.5 0 1 0 9 0 a4.5 4.5 0 1 0 -9 0zM562.5 207 a4.5 4.5 0 1 0 9 0 a4.5 4.5 0 1 0 -9 0zM166.5 261 a4.5 4.5 0 1 0 9 0 a4.5 4.5 0 1 0 -9 0zM724.5 261 a4.5 4.5 0 1 0 9 0 a4.5 4.5 0 1 0 -9 0zM490.5 243 a4.5 4.5 0 1 0 9 0 a4.5 4.5 0 1 0 -9 0zM346.5 261 a4.5 4.5 0 1 0 9 0 a4.5 4.5 0 1 0 -9 0zM508.5 261 a4.5 4.5 0 1 0 9 0 a4.5 4.5 0 1 0 -9 0zM616.5 261 a4.5 4.5 0 1 0 9 0 a4.5 4.5 0 1 0 -9 0z" fill="rgba(58, 195, 174, 0.2)"></path><path d="M603 405L621 387L639 387L657 387L675 387L693 387L711 387L729 387L747 387M909 423L927 405L945 405L963 387L981 387L999 387M513 405L531 387L549 387L567 387M243 369L261 351L279 351L297 351L315 351L333 351L351 351L369 351L387 351L405 351L423 351L441 351L459 351L477 351M153 333L171 333L189 333L207 333L225 333L243 333M945 423L963 441L981 441L999 441M441 405L459 387L477 387L495 387L513 387L531 369M783 405L801 387M927 423L945 441L963 459L981 459L999 459M765 405L783 387L801 369L819 369L837 351L855 351L873 351L891 351L909 351L927 351L945 351L963 351L981 351L999 351M387 405L405 387L423 387M819 405L837 387L855 387M585 405L603 387L621 369M-9 315L9 315L27 315L45 315L63 315L81 315L99 315L117 315L135 315L153 333L171 351L189 351L207 351L225 351L243 369L261 369L279 369L297 369L315 369L333 369L351 369L369 387L387 405L405 405L423 405L441 405L459 405L477 405L495 405L513 405L531 405L549 405L567 405L585 405L603 405L621 405L639 405L657 405L675 405L693 405L711 405L729 405L747 405L765 405L783 405L801 405L819 405L837 405L855 405L873 405L891 423L909 423L927 423L945 423L963 423" stroke="rgba(16, 85, 96, 0.19)" stroke-width="3"></path><path d="M958.5 423 a4.5 4.5 0 1 0 9 0 a4.5 4.5 0 1 0 -9 0zM742.5 387 a4.5 4.5 0 1 0 9 0 a4.5 4.5 0 1 0 -9 0zM994.5 387 a4.5 4.5 0 1 0 9 0 a4.5 4.5 0 1 0 -9 0zM562.5 387 a4.5 4.5 0 1 0 9 0 a4.5 4.5 0 1 0 -9 0zM472.5 351 a4.5 4.5 0 1 0 9 0 a4.5 4.5 0 1 0 -9 0zM238.5 333 a4.5 4.5 0 1 0 9 0 a4.5 4.5 0 1 0 -9 0zM994.5 441 a4.5 4.5 0 1 0 9 0 a4.5 4.5 0 1 0 -9 0zM526.5 369 a4.5 4.5 0 1 0 9 0 a4.5 4.5 0 1 0 -9 0zM796.5 387 a4.5 4.5 0 1 0 9 0 a4.5 4.5 0 1 0 -9 0zM994.5 459 a4.5 4.5 0 1 0 9 0 a4.5 4.5 0 1 0 -9 0zM994.5 351 a4.5 4.5 0 1 0 9 0 a4.5 4.5 0 1 0 -9 0zM418.5 387 a4.5 4.5 0 1 0 9 0 a4.5 4.5 0 1 0 -9 0zM850.5 387 a4.5 4.5 0 1 0 9 0 a4.5 4.5 0 1 0 -9 0zM616.5 369 a4.5 4.5 0 1 0 9 0 a4.5 4.5 0 1 0 -9 0z" fill="rgba(16, 85, 96, 0.19)"></path><path d="M387 225L405 207M297 225L315 207L333 207L351 207M27 243L45 225L63 225L81 225L99 225L117 225L135 225M189 225L207 207L225 207L243 207L261 207L279 189L297 189M369 225L387 207L405 189L423 189L441 189L459 189L477 189L495 189L513 189L531 189L549 189M441 225L459 207L477 207L495 207M-9 243L9 243L27 243L45 243L63 243L81 243L99 243L117 243L135 243L153 225L171 225L189 225L207 225L225 225L243 225L261 225L279 225L297 225L315 225L333 225L351 225L369 225L387 225L405 225L423 225L441 225L459 225" stroke="rgba(16, 85, 96, 0.19)" stroke-width="3"></path><path d="M454.5 225 a4.5 4.5 0 1 0 9 0 a4.5 4.5 0 1 0 -9 0zM400.5 207 a4.5 4.5 0 1 0 9 0 a4.5 4.5 0 1 0 -9 0zM346.5 207 a4.5 4.5 0 1 0 9 0 a4.5 4.5 0 1 0 -9 0zM130.5 225 a4.5 4.5 0 1 0 9 0 a4.5 4.5 0 1 0 -9 0zM292.5 189 a4.5 4.5 0 1 0 9 0 a4.5 4.5 0 1 0 -9 0zM544.5 189 a4.5 4.5 0 1 0 9 0 a4.5 4.5 0 1 0 -9 0zM490.5 207 a4.5 4.5 0 1 0 9 0 a4.5 4.5 0 1 0 -9 0z" fill="rgba(16, 85, 96, 0.19)"></path><path d="M63 333L81 351L99 351L117 351L135 351M693 423L711 441L729 441L747 441L765 441M513 423L531 441M27 333L45 351L63 351M801 423L819 441L837 441L855 441L873 441L891 441L909 441M387 423L405 441L423 441M441 423L459 441L477 441L495 441L513 441M783 423L801 441L819 459L837 459L855 459L873 459L891 459L909 459L927 459L945 459M-9 333L9 333L27 333L45 333L63 333L81 333L99 333L117 333L135 333L153 351L171 369L189 369L207 369L225 369L243 387L261 387L279 387L297 387L315 387L333 387L351 387L369 405L387 423L405 423L423 423L441 423L459 423L477 423L495 423L513 423L531 423L549 423L567 423L585 423L603 423L621 423L639 423L657 423L675 423L693 423L711 423L729 423L747 423L765 423L783 423L801 423L819 423L837 423L855 423" stroke="rgba(58, 195, 174, 0.2)" stroke-width="3"></path><path d="M850.5 423 a4.5 4.5 0 1 0 9 0 a4.5 4.5 0 1 0 -9 0zM130.5 351 a4.5 4.5 0 1 0 9 0 a4.5 4.5 0 1 0 -9 0zM760.5 441 a4.5 4.5 0 1 0 9 0 a4.5 4.5 0 1 0 -9 0zM526.5 441 a4.5 4.5 0 1 0 9 0 a4.5 4.5 0 1 0 -9 0zM58.5 351 a4.5 4.5 0 1 0 9 0 a4.5 4.5 0 1 0 -9 0zM904.5 441 a4.5 4.5 0 1 0 9 0 a4.5 4.5 0 1 0 -9 0zM418.5 441 a4.5 4.5 0 1 0 9 0 a4.5 4.5 0 1 0 -9 0zM508.5 441 a4.5 4.5 0 1 0 9 0 a4.5 4.5 0 1 0 -9 0zM940.5 459 a4.5 4.5 0 1 0 9 0 a4.5 4.5 0 1 0 -9 0z" fill="rgba(58, 195, 174, 0.2)"></path><path d="M-9 225L9 225" stroke="rgba(58, 195, 174, 0.2)" stroke-width="3"></path><path d="M4.5 225 a4.5 4.5 0 1 0 9 0 a4.5 4.5 0 1 0 -9 0z" fill="rgba(58, 195, 174, 0.2)"></path><path d="M297 405L315 423L333 423M9 351L27 351M-9 351L9 351L27 369L45 369L63 369L81 369L99 369L117 369L135 369L153 369L171 387L189 387L207 387L225 387L243 405L261 405L279 405L297 405L315 405L333 405L351 405" stroke="rgba(16, 85, 96, 0.19)" stroke-width="3"></path><path d="M346.5 405 a4.5 4.5 0 1 0 9 0 a4.5 4.5 0 1 0 -9 0zM328.5 423 a4.5 4.5 0 1 0 9 0 a4.5 4.5 0 1 0 -9 0zM22.5 351 a4.5 4.5 0 1 0 9 0 a4.5 4.5 0 1 0 -9 0z" fill="rgba(16, 85, 96, 0.19)"></path><path d="M171 207L189 207M-9 207L9 207L27 207L45 207L63 207L81 207L99 207L117 207L135 207L153 207L171 207L189 189L207 189" stroke="rgba(58, 195, 174, 0.2)" stroke-width="3"></path><path d="M202.5 189 a4.5 4.5 0 1 0 9 0 a4.5 4.5 0 1 0 -9 0zM184.5 207 a4.5 4.5 0 1 0 9 0 a4.5 4.5 0 1 0 -9 0z" fill="rgba(58, 195, 174, 0.2)"></path><path d="M567 441L585 459L603 459L621 459M549 441L567 459M135 387L153 405M657 441L675 459L693 477L711 477L729 477M117 387L135 405M477 459L495 477L513 477L531 477M279 423L297 423M333 441L351 459M351 441L369 423M675 441L693 441M369 441L387 441M-9 369L9 387L27 387L45 387L63 387L81 387L99 387L117 387L135 387L153 387L171 405L189 405L207 405L225 405L243 423L261 423L279 423L297 441L315 441L333 441L351 441L369 441L387 459L405 459L423 459L441 459L459 459L477 459L495 459L513 459L531 459L549 441L567 441L585 441L603 441L621 441L639 441L657 441L675 441L693 459L711 459L729 459L747 459L765 459" stroke="rgba(16, 85, 96, 0.19)" stroke-width="3"></path><path d="M760.5 459 a4.5 4.5 0 1 0 9 0 a4.5 4.5 0 1 0 -9 0zM616.5 459 a4.5 4.5 0 1 0 9 0 a4.5 4.5 0 1 0 -9 0zM562.5 459 a4.5 4.5 0 1 0 9 0 a4.5 4.5 0 1 0 -9 0zM148.5 405 a4.5 4.5 0 1 0 9 0 a4.5 4.5 0 1 0 -9 0zM724.5 477 a4.5 4.5 0 1 0 9 0 a4.5 4.5 0 1 0 -9 0zM130.5 405 a4.5 4.5 0 1 0 9 0 a4.5 4.5 0 1 0 -9 0zM526.5 477 a4.5 4.5 0 1 0 9 0 a4.5 4.5 0 1 0 -9 0zM292.5 423 a4.5 4.5 0 1 0 9 0 a4.5 4.5 0 1 0 -9 0zM346.5 459 a4.5 4.5 0 1 0 9 0 a4.5 4.5 0 1 0 -9 0zM364.5 423 a4.5 4.5 0 1 0 9 0 a4.5 4.5 0 1 0 -9 0zM688.5 441 a4.5 4.5 0 1 0 9 0 a4.5 4.5 0 1 0 -9 0zM382.5 441 a4.5 4.5 0 1 0 9 0 a4.5 4.5 0 1 0 -9 0z" fill="rgba(16, 85, 96, 0.19)"></path><path d="M225 171L243 189M135 189L153 171L171 171M243 171L261 171M423 171L441 153L459 135L477 135M495 171L513 153M369 153L387 171L405 171M279 153L297 171M351 153L369 171L387 189M-9 189L9 189L27 189L45 189L63 189L81 189L99 189L117 189L135 189L153 189L171 189L189 171L207 171L225 171L243 171L261 153L279 153L297 153L315 153L333 153L351 153L369 153L387 153L405 153L423 171L441 171L459 171L477 171L495 171L513 171L531 171L549 171L567 171" stroke="rgba(16, 85, 96, 0.19)" stroke-width="3"></path><path d="M562.5 171 a4.5 4.5 0 1 0 9 0 a4.5 4.5 0 1 0 -9 0zM238.5 189 a4.5 4.5 0 1 0 9 0 a4.5 4.5 0 1 0 -9 0zM166.5 171 a4.5 4.5 0 1 0 9 0 a4.5 4.5 0 1 0 -9 0zM256.5 171 a4.5 4.5 0 1 0 9 0 a4.5 4.5 0 1 0 -9 0zM472.5 135 a4.5 4.5 0 1 0 9 0 a4.5 4.5 0 1 0 -9 0zM508.5 153 a4.5 4.5 0 1 0 9 0 a4.5 4.5 0 1 0 -9 0zM400.5 171 a4.5 4.5 0 1 0 9 0 a4.5 4.5 0 1 0 -9 0zM292.5 171 a4.5 4.5 0 1 0 9 0 a4.5 4.5 0 1 0 -9 0zM382.5 189 a4.5 4.5 0 1 0 9 0 a4.5 4.5 0 1 0 -9 0z" fill="rgba(16, 85, 96, 0.19)"></path><path d="M99 405L117 405M-9 387L9 405L27 405L45 405L63 405L81 405L99 405L117 423L135 423L153 423L171 423L189 423L207 423L225 423L243 441L261 441L279 441L297 459L315 459" stroke="rgba(16, 85, 96, 0.19)" stroke-width="3"></path><path d="M310.5 459 a4.5 4.5 0 1 0 9 0 a4.5 4.5 0 1 0 -9 0zM112.5 405 a4.5 4.5 0 1 0 9 0 a4.5 4.5 0 1 0 -9 0z" fill="rgba(16, 85, 96, 0.19)"></path><path d="M225 135L243 153M369 135L387 117M567 153L585 135M783 135L801 153L819 171M621 135L639 153M117 171L135 171M585 153L603 153L621 153L639 171L657 171L675 171L693 189L711 189M747 135L765 117L783 117L801 117L819 117M549 153L567 135M819 153L837 153L855 153L873 135L891 135L909 135M423 117L441 135M765 135L783 153L801 171L819 189L837 189L855 189L873 189L891 189L909 189L927 189M-9 171L9 171L27 171L45 171L63 171L81 171L99 171L117 171L135 153L153 153L171 153L189 153L207 153L225 135L243 135L261 135L279 135L297 135L315 135L333 135L351 135L369 135L387 135L405 117L423 117L441 117L459 117L477 117L495 117L513 135L531 153L549 153L567 153L585 153L603 135L621 135L639 135L657 135L675 135L693 135L711 135L729 135L747 135L765 135L783 135L801 135L819 153L837 171" stroke="rgba(58, 195, 174, 0.2)" stroke-width="3"></path><path d="M832.5 171 a4.5 4.5 0 1 0 9 0 a4.5 4.5 0 1 0 -9 0zM238.5 153 a4.5 4.5 0 1 0 9 0 a4.5 4.5 0 1 0 -9 0zM382.5 117 a4.5 4.5 0 1 0 9 0 a4.5 4.5 0 1 0 -9 0zM580.5 135 a4.5 4.5 0 1 0 9 0 a4.5 4.5 0 1 0 -9 0zM814.5 171 a4.5 4.5 0 1 0 9 0 a4.5 4.5 0 1 0 -9 0zM634.5 153 a4.5 4.5 0 1 0 9 0 a4.5 4.5 0 1 0 -9 0zM130.5 171 a4.5 4.5 0 1 0 9 0 a4.5 4.5 0 1 0 -9 0zM706.5 189 a4.5 4.5 0 1 0 9 0 a4.5 4.5 0 1 0 -9 0zM814.5 117 a4.5 4.5 0 1 0 9 0 a4.5 4.5 0 1 0 -9 0zM562.5 135 a4.5 4.5 0 1 0 9 0 a4.5 4.5 0 1 0 -9 0zM904.5 135 a4.5 4.5 0 1 0 9 0 a4.5 4.5 0 1 0 -9 0zM436.5 135 a4.5 4.5 0 1 0 9 0 a4.5 4.5 0 1 0 -9 0zM922.5 189 a4.5 4.5 0 1 0 9 0 a4.5 4.5 0 1 0 -9 0z" fill="rgba(58, 195, 174, 0.2)"></path><path d="M135 441L153 459L171 477L189 477M207 441L225 459L243 477L261 477L279 495M315 477L333 495L351 495L369 495L387 495L405 495M423 477L441 495L459 495L477 495M81 423L99 441L117 459L135 459M171 441L189 459L207 459L225 477L243 495M-9 405L9 423L27 423L45 423L63 423L81 423L99 423L117 441L135 441L153 441L171 441L189 441L207 441L225 441L243 459L261 459L279 459L297 477L315 477L333 477L351 477L369 477L387 477L405 477L423 477L441 477L459 477" stroke="rgba(16, 85, 96, 0.19)" stroke-width="3"></path><path d="M454.5 477 a4.5 4.5 0 1 0 9 0 a4.5 4.5 0 1 0 -9 0zM184.5 477 a4.5 4.5 0 1 0 9 0 a4.5 4.5 0 1 0 -9 0zM274.5 495 a4.5 4.5 0 1 0 9 0 a4.5 4.5 0 1 0 -9 0zM400.5 495 a4.5 4.5 0 1 0 9 0 a4.5 4.5 0 1 0 -9 0zM472.5 495 a4.5 4.5 0 1 0 9 0 a4.5 4.5 0 1 0 -9 0zM130.5 459 a4.5 4.5 0 1 0 9 0 a4.5 4.5 0 1 0 -9 0zM238.5 495 a4.5 4.5 0 1 0 9 0 a4.5 4.5 0 1 0 -9 0z" fill="rgba(16, 85, 96, 0.19)"></path><path d="M531 99L549 81L567 81L585 81L603 81L621 99L639 99L657 99M63 153L81 135L99 135L117 135L135 117L153 117M297 117L315 99L333 99M171 135L189 117M225 117L243 99L261 99L279 99L297 81M477 99L495 81L513 81L531 81L549 63M27 153L45 135L63 135L81 117L99 117L117 117M369 99L387 81L405 63L423 63M423 99L441 81L459 81L477 63L495 63M-9 153L9 153L27 153L45 153L63 153L81 153L99 153L117 153L135 135L153 135L171 135L189 135L207 135L225 117L243 117L261 117L279 117L297 117L315 117L333 117L351 99L369 99L387 99L405 99L423 99L441 99L459 99L477 99L495 99L513 99L531 99L549 99L567 99L585 117L603 117L621 117L639 117" stroke="rgba(16, 85, 96, 0.19)" stroke-width="3"></path><path d="M634.5 117 a4.5 4.5 0 1 0 9 0 a4.5 4.5 0 1 0 -9 0zM652.5 99 a4.5 4.5 0 1 0 9 0 a4.5 4.5 0 1 0 -9 0zM148.5 117 a4.5 4.5 0 1 0 9 0 a4.5 4.5 0 1 0 -9 0zM328.5 99 a4.5 4.5 0 1 0 9 0 a4.5 4.5 0 1 0 -9 0zM184.5 117 a4.5 4.5 0 1 0 9 0 a4.5 4.5 0 1 0 -9 0zM292.5 81 a4.5 4.5 0 1 0 9 0 a4.5 4.5 0 1 0 -9 0zM544.5 63 a4.5 4.5 0 1 0 9 0 a4.5 4.5 0 1 0 -9 0zM112.5 117 a4.5 4.5 0 1 0 9 0 a4.5 4.5 0 1 0 -9 0zM418.5 63 a4.5 4.5 0 1 0 9 0 a4.5 4.5 0 1 0 -9 0zM490.5 63 a4.5 4.5 0 1 0 9 0 a4.5 4.5 0 1 0 -9 0z" fill="rgba(16, 85, 96, 0.19)"></path></g></g><defs><mask id="SvgjsMask1308"><rect width="1500" height="560" fill="#ffffff"></rect></mask><mask id="SvgjsMask1309"><rect width="1500" height="560" fill="white"></rect><path d="M276.75 279 a2.25 2.25 0 1 0 4.5 0 a2.25 2.25 0 1 0 -4.5 0zM294.75 261 a2.25 2.25 0 1 0 4.5 0 a2.25 2.25 0 1 0 -4.5 0zM258.75 297 a2.25 2.25 0 1 0 4.5 0 a2.25 2.25 0 1 0 -4.5 0zM222.75 261 a2.25 2.25 0 1 0 4.5 0 a2.25 2.25 0 1 0 -4.5 0zM186.75 297 a2.25 2.25 0 1 0 4.5 0 a2.25 2.25 0 1 0 -4.5 0z" fill="black"></path><path d="M186.75 315 a2.25 2.25 0 1 0 4.5 0 a2.25 2.25 0 1 0 -4.5 0zM150.75 297 a2.25 2.25 0 1 0 4.5 0 a2.25 2.25 0 1 0 -4.5 0z" fill="black"></path><path d="M564.75 225 a2.25 2.25 0 1 0 4.5 0 a2.25 2.25 0 1 0 -4.5 0zM402.75 261 a2.25 2.25 0 1 0 4.5 0 a2.25 2.25 0 1 0 -4.5 0zM564.75 207 a2.25 2.25 0 1 0 4.5 0 a2.25 2.25 0 1 0 -4.5 0zM168.75 261 a2.25 2.25 0 1 0 4.5 0 a2.25 2.25 0 1 0 -4.5 0zM726.75 261 a2.25 2.25 0 1 0 4.5 0 a2.25 2.25 0 1 0 -4.5 0zM492.75 243 a2.25 2.25 0 1 0 4.5 0 a2.25 2.25 0 1 0 -4.5 0zM348.75 261 a2.25 2.25 0 1 0 4.5 0 a2.25 2.25 0 1 0 -4.5 0zM510.75 261 a2.25 2.25 0 1 0 4.5 0 a2.25 2.25 0 1 0 -4.5 0zM618.75 261 a2.25 2.25 0 1 0 4.5 0 a2.25 2.25 0 1 0 -4.5 0z" fill="black"></path><path d="M960.75 423 a2.25 2.25 0 1 0 4.5 0 a2.25 2.25 0 1 0 -4.5 0zM744.75 387 a2.25 2.25 0 1 0 4.5 0 a2.25 2.25 0 1 0 -4.5 0zM996.75 387 a2.25 2.25 0 1 0 4.5 0 a2.25 2.25 0 1 0 -4.5 0zM564.75 387 a2.25 2.25 0 1 0 4.5 0 a2.25 2.25 0 1 0 -4.5 0zM474.75 351 a2.25 2.25 0 1 0 4.5 0 a2.25 2.25 0 1 0 -4.5 0zM240.75 333 a2.25 2.25 0 1 0 4.5 0 a2.25 2.25 0 1 0 -4.5 0zM996.75 441 a2.25 2.25 0 1 0 4.5 0 a2.25 2.25 0 1 0 -4.5 0zM528.75 369 a2.25 2.25 0 1 0 4.5 0 a2.25 2.25 0 1 0 -4.5 0zM798.75 387 a2.25 2.25 0 1 0 4.5 0 a2.25 2.25 0 1 0 -4.5 0zM996.75 459 a2.25 2.25 0 1 0 4.5 0 a2.25 2.25 0 1 0 -4.5 0zM996.75 351 a2.25 2.25 0 1 0 4.5 0 a2.25 2.25 0 1 0 -4.5 0zM420.75 387 a2.25 2.25 0 1 0 4.5 0 a2.25 2.25 0 1 0 -4.5 0zM852.75 387 a2.25 2.25 0 1 0 4.5 0 a2.25 2.25 0 1 0 -4.5 0zM618.75 369 a2.25 2.25 0 1 0 4.5 0 a2.25 2.25 0 1 0 -4.5 0z" fill="black"></path><path d="M456.75 225 a2.25 2.25 0 1 0 4.5 0 a2.25 2.25 0 1 0 -4.5 0zM402.75 207 a2.25 2.25 0 1 0 4.5 0 a2.25 2.25 0 1 0 -4.5 0zM348.75 207 a2.25 2.25 0 1 0 4.5 0 a2.25 2.25 0 1 0 -4.5 0zM132.75 225 a2.25 2.25 0 1 0 4.5 0 a2.25 2.25 0 1 0 -4.5 0zM294.75 189 a2.25 2.25 0 1 0 4.5 0 a2.25 2.25 0 1 0 -4.5 0zM546.75 189 a2.25 2.25 0 1 0 4.5 0 a2.25 2.25 0 1 0 -4.5 0zM492.75 207 a2.25 2.25 0 1 0 4.5 0 a2.25 2.25 0 1 0 -4.5 0z" fill="black"></path><path d="M852.75 423 a2.25 2.25 0 1 0 4.5 0 a2.25 2.25 0 1 0 -4.5 0zM132.75 351 a2.25 2.25 0 1 0 4.5 0 a2.25 2.25 0 1 0 -4.5 0zM762.75 441 a2.25 2.25 0 1 0 4.5 0 a2.25 2.25 0 1 0 -4.5 0zM528.75 441 a2.25 2.25 0 1 0 4.5 0 a2.25 2.25 0 1 0 -4.5 0zM60.75 351 a2.25 2.25 0 1 0 4.5 0 a2.25 2.25 0 1 0 -4.5 0zM906.75 441 a2.25 2.25 0 1 0 4.5 0 a2.25 2.25 0 1 0 -4.5 0zM420.75 441 a2.25 2.25 0 1 0 4.5 0 a2.25 2.25 0 1 0 -4.5 0zM510.75 441 a2.25 2.25 0 1 0 4.5 0 a2.25 2.25 0 1 0 -4.5 0zM942.75 459 a2.25 2.25 0 1 0 4.5 0 a2.25 2.25 0 1 0 -4.5 0z" fill="black"></path><path d="M6.75 225 a2.25 2.25 0 1 0 4.5 0 a2.25 2.25 0 1 0 -4.5 0z" fill="black"></path><path d="M348.75 405 a2.25 2.25 0 1 0 4.5 0 a2.25 2.25 0 1 0 -4.5 0zM330.75 423 a2.25 2.25 0 1 0 4.5 0 a2.25 2.25 0 1 0 -4.5 0zM24.75 351 a2.25 2.25 0 1 0 4.5 0 a2.25 2.25 0 1 0 -4.5 0z" fill="black"></path><path d="M204.75 189 a2.25 2.25 0 1 0 4.5 0 a2.25 2.25 0 1 0 -4.5 0zM186.75 207 a2.25 2.25 0 1 0 4.5 0 a2.25 2.25 0 1 0 -4.5 0z" fill="black"></path><path d="M762.75 459 a2.25 2.25 0 1 0 4.5 0 a2.25 2.25 0 1 0 -4.5 0zM618.75 459 a2.25 2.25 0 1 0 4.5 0 a2.25 2.25 0 1 0 -4.5 0zM564.75 459 a2.25 2.25 0 1 0 4.5 0 a2.25 2.25 0 1 0 -4.5 0zM150.75 405 a2.25 2.25 0 1 0 4.5 0 a2.25 2.25 0 1 0 -4.5 0zM726.75 477 a2.25 2.25 0 1 0 4.5 0 a2.25 2.25 0 1 0 -4.5 0zM132.75 405 a2.25 2.25 0 1 0 4.5 0 a2.25 2.25 0 1 0 -4.5 0zM528.75 477 a2.25 2.25 0 1 0 4.5 0 a2.25 2.25 0 1 0 -4.5 0zM294.75 423 a2.25 2.25 0 1 0 4.5 0 a2.25 2.25 0 1 0 -4.5 0zM348.75 459 a2.25 2.25 0 1 0 4.5 0 a2.25 2.25 0 1 0 -4.5 0zM366.75 423 a2.25 2.25 0 1 0 4.5 0 a2.25 2.25 0 1 0 -4.5 0zM690.75 441 a2.25 2.25 0 1 0 4.5 0 a2.25 2.25 0 1 0 -4.5 0zM384.75 441 a2.25 2.25 0 1 0 4.5 0 a2.25 2.25 0 1 0 -4.5 0z" fill="black"></path><path d="M564.75 171 a2.25 2.25 0 1 0 4.5 0 a2.25 2.25 0 1 0 -4.5 0zM240.75 189 a2.25 2.25 0 1 0 4.5 0 a2.25 2.25 0 1 0 -4.5 0zM168.75 171 a2.25 2.25 0 1 0 4.5 0 a2.25 2.25 0 1 0 -4.5 0zM258.75 171 a2.25 2.25 0 1 0 4.5 0 a2.25 2.25 0 1 0 -4.5 0zM474.75 135 a2.25 2.25 0 1 0 4.5 0 a2.25 2.25 0 1 0 -4.5 0zM510.75 153 a2.25 2.25 0 1 0 4.5 0 a2.25 2.25 0 1 0 -4.5 0zM402.75 171 a2.25 2.25 0 1 0 4.5 0 a2.25 2.25 0 1 0 -4.5 0zM294.75 171 a2.25 2.25 0 1 0 4.5 0 a2.25 2.25 0 1 0 -4.5 0zM384.75 189 a2.25 2.25 0 1 0 4.5 0 a2.25 2.25 0 1 0 -4.5 0z" fill="black"></path><path d="M312.75 459 a2.25 2.25 0 1 0 4.5 0 a2.25 2.25 0 1 0 -4.5 0zM114.75 405 a2.25 2.25 0 1 0 4.5 0 a2.25 2.25 0 1 0 -4.5 0z" fill="black"></path><path d="M834.75 171 a2.25 2.25 0 1 0 4.5 0 a2.25 2.25 0 1 0 -4.5 0zM240.75 153 a2.25 2.25 0 1 0 4.5 0 a2.25 2.25 0 1 0 -4.5 0zM384.75 117 a2.25 2.25 0 1 0 4.5 0 a2.25 2.25 0 1 0 -4.5 0zM582.75 135 a2.25 2.25 0 1 0 4.5 0 a2.25 2.25 0 1 0 -4.5 0zM816.75 171 a2.25 2.25 0 1 0 4.5 0 a2.25 2.25 0 1 0 -4.5 0zM636.75 153 a2.25 2.25 0 1 0 4.5 0 a2.25 2.25 0 1 0 -4.5 0zM132.75 171 a2.25 2.25 0 1 0 4.5 0 a2.25 2.25 0 1 0 -4.5 0zM708.75 189 a2.25 2.25 0 1 0 4.5 0 a2.25 2.25 0 1 0 -4.5 0zM816.75 117 a2.25 2.25 0 1 0 4.5 0 a2.25 2.25 0 1 0 -4.5 0zM564.75 135 a2.25 2.25 0 1 0 4.5 0 a2.25 2.25 0 1 0 -4.5 0zM906.75 135 a2.25 2.25 0 1 0 4.5 0 a2.25 2.25 0 1 0 -4.5 0zM438.75 135 a2.25 2.25 0 1 0 4.5 0 a2.25 2.25 0 1 0 -4.5 0zM924.75 189 a2.25 2.25 0 1 0 4.5 0 a2.25 2.25 0 1 0 -4.5 0z" fill="black"></path><path d="M456.75 477 a2.25 2.25 0 1 0 4.5 0 a2.25 2.25 0 1 0 -4.5 0zM186.75 477 a2.25 2.25 0 1 0 4.5 0 a2.25 2.25 0 1 0 -4.5 0zM276.75 495 a2.25 2.25 0 1 0 4.5 0 a2.25 2.25 0 1 0 -4.5 0zM402.75 495 a2.25 2.25 0 1 0 4.5 0 a2.25 2.25 0 1 0 -4.5 0zM474.75 495 a2.25 2.25 0 1 0 4.5 0 a2.25 2.25 0 1 0 -4.5 0zM132.75 459 a2.25 2.25 0 1 0 4.5 0 a2.25 2.25 0 1 0 -4.5 0zM240.75 495 a2.25 2.25 0 1 0 4.5 0 a2.25 2.25 0 1 0 -4.5 0z" fill="black"></path><path d="M636.75 117 a2.25 2.25 0 1 0 4.5 0 a2.25 2.25 0 1 0 -4.5 0zM654.75 99 a2.25 2.25 0 1 0 4.5 0 a2.25 2.25 0 1 0 -4.5 0zM150.75 117 a2.25 2.25 0 1 0 4.5 0 a2.25 2.25 0 1 0 -4.5 0zM330.75 99 a2.25 2.25 0 1 0 4.5 0 a2.25 2.25 0 1 0 -4.5 0zM186.75 117 a2.25 2.25 0 1 0 4.5 0 a2.25 2.25 0 1 0 -4.5 0zM294.75 81 a2.25 2.25 0 1 0 4.5 0 a2.25 2.25 0 1 0 -4.5 0zM546.75 63 a2.25 2.25 0 1 0 4.5 0 a2.25 2.25 0 1 0 -4.5 0zM114.75 117 a2.25 2.25 0 1 0 4.5 0 a2.25 2.25 0 1 0 -4.5 0zM420.75 63 a2.25 2.25 0 1 0 4.5 0 a2.25 2.25 0 1 0 -4.5 0zM492.75 63 a2.25 2.25 0 1 0 4.5 0 a2.25 2.25 0 1 0 -4.5 0z" fill="black"></path></mask></defs></svg>