<svg xmlns="http://www.w3.org/2000/svg" version="1.1" xmlns:xlink="http://www.w3.org/1999/xlink" xmlns:svgjs="http://svgjs.dev/svgjs" width="1440" height="560" preserveAspectRatio="none" viewBox="0 0 1440 560"><g mask="url(&quot;#SvgjsMask1024&quot;)" fill="none"><rect width="1440" height="560" x="0" y="0" fill="rgba(243, 244, 246, 1)"></rect><path d="M-103.34 230.54C84.47 235.7 231.5 506.68 594.08 510.54 956.66 514.4 1114.69 627.68 1291.5 628.09" stroke="rgba(220, 220, 220, 0.28)" stroke-width="2"></path><path d="M-29.55 164.59C84.19 164.8 195.23 234.59 420 234.59 644.78 234.59 628.09 158.3 869.56 164.59 1111.03 170.88 1167.92 556.79 1319.11 588.36" stroke="rgba(220, 220, 220, 0.28)" stroke-width="2"></path><path d="M-146.32 133.8C-32.52 134.01 78.58 203.8 303.47 203.8 528.37 203.8 510.84 127.04 753.27 133.8 995.7 140.56 1050.53 533.69 1203.06 566.9" stroke="rgba(220, 220, 220, 0.28)" stroke-width="2"></path><path d="M-166.09 87.74C-6.76 88.25 191.84 187.99 460.27 205.34 728.7 222.69 653.18 567.32 773.45 612.14" stroke="rgba(220, 220, 220, 0.28)" stroke-width="2"></path><path d="M-27.69 188.93C119.96 196.06 213.83 442.65 501.8 452.13 789.77 461.61 890.55 640.83 1031.29 643.75" stroke="rgba(220, 220, 220, 0.28)" stroke-width="2"></path></g><defs><mask id="SvgjsMask1024"><rect width="1440" height="560" fill="#ffffff"></rect></mask></defs></svg>