<svg xmlns="http://www.w3.org/2000/svg" version="1.1" xmlns:xlink="http://www.w3.org/1999/xlink" xmlns:svgjs="http://svgjs.dev/svgjs" width="1440" height="560" preserveAspectRatio="none" viewBox="0 0 1440 560"><g mask="url(&quot;#SvgjsMask1265&quot;)" fill="none"><rect width="1440" height="560" x="0" y="0" fill="rgba(8, 68, 77, 1)"></rect><path d="M49.95 -40.57L101.05 -11.07L101.05 47.93L49.95 77.43L-1.15 47.93L-1.15 -11.07zM49.95 136.43L101.05 165.93L101.05 224.93L49.95 254.43L-1.15 224.93L-1.15 165.93zM49.95 490.43L101.05 519.93L101.05 578.93L49.95 608.43L-1.15 578.93L-1.15 519.93zM152.14 -40.57L203.24 -11.07L203.24 47.93L152.14 77.43L101.05 47.93L101.05 -11.07zM203.24 47.93L254.34 77.43L254.34 136.43L203.24 165.93L152.14 136.43L152.14 77.43zM203.24 224.93L254.34 254.43L254.34 313.43L203.24 342.93L152.14 313.43L152.14 254.43zM254.34 -40.57L305.43 -11.07L305.43 47.93L254.34 77.43L203.24 47.93L203.24 -11.07zM254.34 136.43L305.43 165.93L305.43 224.93L254.34 254.43L203.24 224.93L203.24 165.93zM254.34 313.43L305.43 342.93L305.43 401.93L254.34 431.43L203.24 401.93L203.24 342.93zM254.34 490.43L305.43 519.93L305.43 578.93L254.34 608.43L203.24 578.93L203.24 519.93zM356.53 -40.57L407.63 -11.07L407.63 47.93L356.53 77.43L305.43 47.93L305.43 -11.07zM407.63 47.93L458.73 77.43L458.73 136.43L407.63 165.93L356.53 136.43L356.53 77.43zM356.53 313.43L407.63 342.93L407.63 401.93L356.53 431.43L305.43 401.93L305.43 342.93zM356.53 490.43L407.63 519.93L407.63 578.93L356.53 608.43L305.43 578.93L305.43 519.93zM458.73 313.43L509.82 342.93L509.82 401.93L458.73 431.43L407.63 401.93L407.63 342.93zM509.82 401.93L560.92 431.43L560.92 490.43L509.82 519.93L458.73 490.43L458.73 431.43zM560.92 -40.57L612.02 -11.07L612.02 47.93L560.92 77.43L509.82 47.93L509.82 -11.07zM612.02 47.93L663.11 77.43L663.11 136.43L612.02 165.93L560.92 136.43L560.92 77.43zM560.92 313.43L612.02 342.93L612.02 401.93L560.92 431.43L509.82 401.93L509.82 342.93zM612.02 401.93L663.11 431.43L663.11 490.43L612.02 519.93L560.92 490.43L560.92 431.43zM560.92 490.43L612.02 519.93L612.02 578.93L560.92 608.43L509.82 578.93L509.82 519.93zM663.11 136.43L714.21 165.93L714.21 224.93L663.11 254.43L612.02 224.93L612.02 165.93zM714.21 224.93L765.31 254.43L765.31 313.43L714.21 342.93L663.11 313.43L663.11 254.43zM714.21 401.93L765.31 431.43L765.31 490.43L714.21 519.93L663.11 490.43L663.11 431.43zM765.31 136.43L816.4 165.93L816.4 224.93L765.31 254.43L714.21 224.93L714.21 165.93zM918.6 47.93L969.7 77.43L969.7 136.43L918.6 165.93L867.5 136.43L867.5 77.43zM867.5 313.43L918.6 342.93L918.6 401.93L867.5 431.43L816.4 401.93L816.4 342.93zM969.7 -40.57L1020.79 -11.07L1020.79 47.93L969.7 77.43L918.6 47.93L918.6 -11.07zM1020.79 47.93L1071.89 77.43L1071.89 136.43L1020.79 165.93L969.7 136.43L969.7 77.43zM1020.79 401.93L1071.89 431.43L1071.89 490.43L1020.79 519.93L969.7 490.43L969.7 431.43zM1122.99 224.93L1174.08 254.43L1174.08 313.43L1122.99 342.93L1071.89 313.43L1071.89 254.43zM1174.08 -40.57L1225.18 -11.07L1225.18 47.93L1174.08 77.43L1122.99 47.93L1122.99 -11.07zM1225.18 47.93L1276.28 77.43L1276.28 136.43L1225.18 165.93L1174.08 136.43L1174.08 77.43zM1174.08 136.43L1225.18 165.93L1225.18 224.93L1174.08 254.43L1122.99 224.93L1122.99 165.93zM1276.28 -40.57L1327.37 -11.07L1327.37 47.93L1276.28 77.43L1225.18 47.93L1225.18 -11.07zM1327.37 47.93L1378.47 77.43L1378.47 136.43L1327.37 165.93L1276.28 136.43L1276.28 77.43zM1276.28 313.43L1327.37 342.93L1327.37 401.93L1276.28 431.43L1225.18 401.93L1225.18 342.93zM1327.37 401.93L1378.47 431.43L1378.47 490.43L1327.37 519.93L1276.28 490.43L1276.28 431.43zM1378.47 -40.57L1429.57 -11.07L1429.57 47.93L1378.47 77.43L1327.37 47.93L1327.37 -11.07zM1429.57 47.93L1480.66 77.43L1480.66 136.43L1429.57 165.93L1378.47 136.43L1378.47 77.43zM1429.57 224.93L1480.66 254.43L1480.66 313.43L1429.57 342.93L1378.47 313.43L1378.47 254.43zM1378.47 313.43L1429.57 342.93L1429.57 401.93L1378.47 431.43L1327.37 401.93L1327.37 342.93zM1378.47 490.43L1429.57 519.93L1429.57 578.93L1378.47 608.43L1327.37 578.93L1327.37 519.93zM1531.76 47.93L1582.86 77.43L1582.86 136.43L1531.76 165.93L1480.66 136.43L1480.66 77.43zM1480.66 136.43L1531.76 165.93L1531.76 224.93L1480.66 254.43L1429.57 224.93L1429.57 165.93zM1531.76 224.93L1582.86 254.43L1582.86 313.43L1531.76 342.93L1480.66 313.43L1480.66 254.43z" stroke="rgba(13, 126, 142, 0.43)" stroke-width="2"></path><path d="M128.18 400.03L190.54 436.03L190.54 508.03L128.18 544.03L65.83 508.03L65.83 436.03zM315.25 292.03L377.6 328.03L377.6 400.03L315.25 436.03L252.89 400.03L252.89 328.03zM252.89 400.03L315.25 436.03L315.25 508.03L252.89 544.03L190.54 508.03L190.54 436.03zM439.96 292.03L502.31 328.03L502.31 400.03L439.96 436.03L377.6 400.03L377.6 328.03zM564.67 292.03L627.03 328.03L627.03 400.03L564.67 436.03L502.31 400.03L502.31 328.03zM564.67 508.03L627.03 544.03L627.03 616.03L564.67 652.03L502.31 616.03L502.31 544.03zM627.03 400.03L689.38 436.03L689.38 508.03L627.03 544.03L564.67 508.03L564.67 436.03zM938.8 508.03L1001.16 544.03L1001.16 616.03L938.8 652.03L876.45 616.03L876.45 544.03zM1125.87 -31.97L1188.23 4.03L1188.23 76.03L1125.87 112.03L1063.52 76.03L1063.52 4.03zM1125.87 184.03L1188.23 220.03L1188.23 292.03L1125.87 328.03L1063.52 292.03L1063.52 220.03zM1125.87 400.03L1188.23 436.03L1188.23 508.03L1125.87 544.03L1063.52 508.03L1063.52 436.03zM1312.94 292.03L1375.29 328.03L1375.29 400.03L1312.94 436.03L1250.58 400.03L1250.58 328.03zM1250.58 400.03L1312.94 436.03L1312.94 508.03L1250.58 544.03L1188.23 508.03L1188.23 436.03z" stroke="rgba(10, 85, 97, 0.44)" stroke-width="2"></path></g><defs><mask id="SvgjsMask1265"><rect width="1440" height="560" fill="#ffffff"></rect></mask></defs></svg>