<svg xmlns="http://www.w3.org/2000/svg" version="1.1" xmlns:xlink="http://www.w3.org/1999/xlink" xmlns:svgjs="http://svgjs.dev/svgjs" width="1440" height="560" preserveAspectRatio="none" viewBox="0 0 1440 560"><g mask="url(&quot;#SvgjsMask1032&quot;)" fill="none"><rect width="1440" height="560" x="0" y="0" fill="rgba(12, 97, 112, 1)"></rect><path d="M-51.34 393.19L-51.34 393.19" stroke="rgba(55, 190, 176, 0.1)" stroke-width="1.5"></path><path d="M-51.34 393.19L-84.79 493.43" stroke="rgba(55, 190, 176, 0.1)" stroke-width="1.5"></path><path d="M-51.34 393.19L82.74 347.03" stroke="rgba(55, 190, 176, 0.1)" stroke-width="1.5"></path><path d="M-51.34 393.19L74.63 511.29" stroke="rgba(55, 190, 176, 0.1)" stroke-width="1.5"></path><path d="M-51.34 393.19L194.45 383.33" stroke="rgba(55, 190, 176, 0.1)" stroke-width="1.5"></path><path d="M-84.79 493.43L-84.79 493.43" stroke="rgba(55, 190, 176, 0.1)" stroke-width="1.5"></path><path d="M-84.79 493.43L-53.28 645.61" stroke="rgba(55, 190, 176, 0.1)" stroke-width="1.5"></path><path d="M-84.79 493.43L74.63 511.29" stroke="rgba(55, 190, 176, 0.1)" stroke-width="1.5"></path><path d="M-84.79 493.43L82.74 347.03" stroke="rgba(55, 190, 176, 0.1)" stroke-width="1.5"></path><path d="M-84.79 493.43L58.06 665.53" stroke="rgba(55, 190, 176, 0.1)" stroke-width="1.5"></path><path d="M-53.28 645.61L-53.28 645.61" stroke="rgba(55, 190, 176, 0.1)" stroke-width="1.5"></path><path d="M-53.28 645.61L58.06 665.53" stroke="rgba(55, 190, 176, 0.1)" stroke-width="1.5"></path><path d="M82.74 347.03L82.74 347.03" stroke="rgba(55, 190, 176, 0.1)" stroke-width="1.5"></path><path d="M82.74 347.03L194.45 383.33" stroke="rgba(55, 190, 176, 0.1)" stroke-width="1.5"></path><path d="M82.74 347.03L74.63 511.29" stroke="rgba(55, 190, 176, 0.1)" stroke-width="1.5"></path><path d="M74.63 511.29L74.63 511.29" stroke="rgba(55, 190, 176, 0.1)" stroke-width="1.5"></path><path d="M74.63 511.29L58.06 665.53" stroke="rgba(55, 190, 176, 0.1)" stroke-width="1.5"></path><path d="M58.06 665.53L58.06 665.53" stroke="rgba(55, 190, 176, 0.1)" stroke-width="1.5"></path><path d="M194.45 383.33L194.45 383.33" stroke="rgba(55, 190, 176, 0.1)" stroke-width="1.5"></path><path d="M194.45 383.33L256.17 537.43" stroke="rgba(55, 190, 176, 0.1)" stroke-width="1.5"></path><path d="M256.17 537.43L256.17 537.43" stroke="rgba(55, 190, 176, 0.1)" stroke-width="1.5"></path><path d="M256.17 537.43L368.25 489.12" stroke="rgba(55, 190, 176, 0.1)" stroke-width="1.5"></path><path d="M256.17 537.43L228.82 702.07" stroke="rgba(55, 190, 176, 0.1)" stroke-width="1.5"></path><path d="M256.17 537.43L74.63 511.29" stroke="rgba(55, 190, 176, 0.1)" stroke-width="1.5"></path><path d="M228.82 702.07L228.82 702.07" stroke="rgba(55, 190, 176, 0.1)" stroke-width="1.5"></path><path d="M228.82 702.07L360.61 700.45" stroke="rgba(55, 190, 176, 0.1)" stroke-width="1.5"></path><path d="M396.03 385.02L396.03 385.02" stroke="rgba(55, 190, 176, 0.1)" stroke-width="1.5"></path><path d="M396.03 385.02L368.25 489.12" stroke="rgba(55, 190, 176, 0.1)" stroke-width="1.5"></path><path d="M396.03 385.02L517.39 501.79" stroke="rgba(55, 190, 176, 0.1)" stroke-width="1.5"></path><path d="M396.03 385.02L194.45 383.33" stroke="rgba(55, 190, 176, 0.1)" stroke-width="1.5"></path><path d="M396.03 385.02L256.17 537.43" stroke="rgba(55, 190, 176, 0.1)" stroke-width="1.5"></path><path d="M396.03 385.02L660.44 380.02" stroke="rgba(55, 190, 176, 0.1)" stroke-width="1.5"></path><path d="M396.03 385.02L647.34 490.62" stroke="rgba(55, 190, 176, 0.1)" stroke-width="1.5"></path><path d="M368.25 489.12L368.25 489.12" stroke="rgba(55, 190, 176, 0.1)" stroke-width="1.5"></path><path d="M360.61 700.45L360.61 700.45" stroke="rgba(55, 190, 176, 0.1)" stroke-width="1.5"></path><path d="M360.61 700.45L546.77 666.01" stroke="rgba(55, 190, 176, 0.1)" stroke-width="1.5"></path><path d="M360.61 700.45L256.17 537.43" stroke="rgba(55, 190, 176, 0.1)" stroke-width="1.5"></path><path d="M517.39 501.79L517.39 501.79" stroke="rgba(55, 190, 176, 0.1)" stroke-width="1.5"></path><path d="M517.39 501.79L647.34 490.62" stroke="rgba(55, 190, 176, 0.1)" stroke-width="1.5"></path><path d="M517.39 501.79L368.25 489.12" stroke="rgba(55, 190, 176, 0.1)" stroke-width="1.5"></path><path d="M517.39 501.79L546.77 666.01" stroke="rgba(55, 190, 176, 0.1)" stroke-width="1.5"></path><path d="M517.39 501.79L660.44 380.02" stroke="rgba(55, 190, 176, 0.1)" stroke-width="1.5"></path><path d="M517.39 501.79L664.23 689.41" stroke="rgba(55, 190, 176, 0.1)" stroke-width="1.5"></path><path d="M546.77 666.01L546.77 666.01" stroke="rgba(55, 190, 176, 0.1)" stroke-width="1.5"></path><path d="M546.77 666.01L664.23 689.41" stroke="rgba(55, 190, 176, 0.1)" stroke-width="1.5"></path><path d="M645.3 229L645.3 229" stroke="rgba(55, 190, 176, 0.1)" stroke-width="1.5"></path><path d="M645.3 229L660.44 380.02" stroke="rgba(55, 190, 176, 0.1)" stroke-width="1.5"></path><path d="M645.3 229L817.06 202.31" stroke="rgba(55, 190, 176, 0.1)" stroke-width="1.5"></path><path d="M660.44 380.02L660.44 380.02" stroke="rgba(55, 190, 176, 0.1)" stroke-width="1.5"></path><path d="M660.44 380.02L647.34 490.62" stroke="rgba(55, 190, 176, 0.1)" stroke-width="1.5"></path><path d="M660.44 380.02L831.22 342.59" stroke="rgba(55, 190, 176, 0.1)" stroke-width="1.5"></path><path d="M660.44 380.02L817.06 202.31" stroke="rgba(55, 190, 176, 0.1)" stroke-width="1.5"></path><path d="M660.44 380.02L846.46 542.47" stroke="rgba(55, 190, 176, 0.1)" stroke-width="1.5"></path><path d="M647.34 490.62L647.34 490.62" stroke="rgba(55, 190, 176, 0.1)" stroke-width="1.5"></path><path d="M647.34 490.62L664.23 689.41" stroke="rgba(55, 190, 176, 0.1)" stroke-width="1.5"></path><path d="M664.23 689.41L664.23 689.41" stroke="rgba(55, 190, 176, 0.1)" stroke-width="1.5"></path><path d="M817.06 202.31L817.06 202.31" stroke="rgba(55, 190, 176, 0.1)" stroke-width="1.5"></path><path d="M817.06 202.31L953.25 196.82" stroke="rgba(55, 190, 176, 0.1)" stroke-width="1.5"></path><path d="M817.06 202.31L831.22 342.59" stroke="rgba(55, 190, 176, 0.1)" stroke-width="1.5"></path><path d="M817.06 202.31L974.3 79.48" stroke="rgba(55, 190, 176, 0.1)" stroke-width="1.5"></path><path d="M831.22 342.59L831.22 342.59" stroke="rgba(55, 190, 176, 0.1)" stroke-width="1.5"></path><path d="M846.46 542.47L846.46 542.47" stroke="rgba(55, 190, 176, 0.1)" stroke-width="1.5"></path><path d="M846.46 542.47L859.68 642.57" stroke="rgba(55, 190, 176, 0.1)" stroke-width="1.5"></path><path d="M846.46 542.47L988.28 493.87" stroke="rgba(55, 190, 176, 0.1)" stroke-width="1.5"></path><path d="M846.46 542.47L944.88 691.94" stroke="rgba(55, 190, 176, 0.1)" stroke-width="1.5"></path><path d="M859.68 642.57L859.68 642.57" stroke="rgba(55, 190, 176, 0.1)" stroke-width="1.5"></path><path d="M859.68 642.57L944.88 691.94" stroke="rgba(55, 190, 176, 0.1)" stroke-width="1.5"></path><path d="M859.68 642.57L988.28 493.87" stroke="rgba(55, 190, 176, 0.1)" stroke-width="1.5"></path><path d="M859.68 642.57L664.23 689.41" stroke="rgba(55, 190, 176, 0.1)" stroke-width="1.5"></path><path d="M859.68 642.57L647.34 490.62" stroke="rgba(55, 190, 176, 0.1)" stroke-width="1.5"></path><path d="M859.68 642.57L990.14 409.17" stroke="rgba(55, 190, 176, 0.1)" stroke-width="1.5"></path><path d="M961.25 -61.61L961.25 -61.61" stroke="rgba(55, 190, 176, 0.1)" stroke-width="1.5"></path><path d="M961.25 -61.61L974.3 79.48" stroke="rgba(55, 190, 176, 0.1)" stroke-width="1.5"></path><path d="M961.25 -61.61L1099.11 -104.41" stroke="rgba(55, 190, 176, 0.1)" stroke-width="1.5"></path><path d="M961.25 -61.61L1131.33 91.23" stroke="rgba(55, 190, 176, 0.1)" stroke-width="1.5"></path><path d="M961.25 -61.61L953.25 196.82" stroke="rgba(55, 190, 176, 0.1)" stroke-width="1.5"></path><path d="M974.3 79.48L974.3 79.48" stroke="rgba(55, 190, 176, 0.1)" stroke-width="1.5"></path><path d="M974.3 79.48L953.25 196.82" stroke="rgba(55, 190, 176, 0.1)" stroke-width="1.5"></path><path d="M974.3 79.48L1131.33 91.23" stroke="rgba(55, 190, 176, 0.1)" stroke-width="1.5"></path><path d="M953.25 196.82L953.25 196.82" stroke="rgba(55, 190, 176, 0.1)" stroke-width="1.5"></path><path d="M953.25 196.82L831.22 342.59" stroke="rgba(55, 190, 176, 0.1)" stroke-width="1.5"></path><path d="M953.25 196.82L1131.33 91.23" stroke="rgba(55, 190, 176, 0.1)" stroke-width="1.5"></path><path d="M990.14 409.17L990.14 409.17" stroke="rgba(55, 190, 176, 0.1)" stroke-width="1.5"></path><path d="M990.14 409.17L988.28 493.87" stroke="rgba(55, 190, 176, 0.1)" stroke-width="1.5"></path><path d="M990.14 409.17L831.22 342.59" stroke="rgba(55, 190, 176, 0.1)" stroke-width="1.5"></path><path d="M990.14 409.17L1119.04 533.55" stroke="rgba(55, 190, 176, 0.1)" stroke-width="1.5"></path><path d="M990.14 409.17L846.46 542.47" stroke="rgba(55, 190, 176, 0.1)" stroke-width="1.5"></path><path d="M990.14 409.17L953.25 196.82" stroke="rgba(55, 190, 176, 0.1)" stroke-width="1.5"></path><path d="M988.28 493.87L988.28 493.87" stroke="rgba(55, 190, 176, 0.1)" stroke-width="1.5"></path><path d="M988.28 493.87L1119.04 533.55" stroke="rgba(55, 190, 176, 0.1)" stroke-width="1.5"></path><path d="M944.88 691.94L944.88 691.94" stroke="rgba(55, 190, 176, 0.1)" stroke-width="1.5"></path><path d="M1099.11 -104.41L1099.11 -104.41" stroke="rgba(55, 190, 176, 0.1)" stroke-width="1.5"></path><path d="M1099.11 -104.41L1290.52 -58.5" stroke="rgba(55, 190, 176, 0.1)" stroke-width="1.5"></path><path d="M1099.11 -104.41L1131.33 91.23" stroke="rgba(55, 190, 176, 0.1)" stroke-width="1.5"></path><path d="M1099.11 -104.41L974.3 79.48" stroke="rgba(55, 190, 176, 0.1)" stroke-width="1.5"></path><path d="M1131.33 91.23L1131.33 91.23" stroke="rgba(55, 190, 176, 0.1)" stroke-width="1.5"></path><path d="M1131.33 91.23L1300.36 103.98" stroke="rgba(55, 190, 176, 0.1)" stroke-width="1.5"></path><path d="M1131.33 91.23L1261.74 237.55" stroke="rgba(55, 190, 176, 0.1)" stroke-width="1.5"></path><path d="M1131.33 91.23L1290.52 -58.5" stroke="rgba(55, 190, 176, 0.1)" stroke-width="1.5"></path><path d="M1119.04 533.55L1119.04 533.55" stroke="rgba(55, 190, 176, 0.1)" stroke-width="1.5"></path><path d="M1119.04 533.55L1145.44 648.43" stroke="rgba(55, 190, 176, 0.1)" stroke-width="1.5"></path><path d="M1145.44 648.43L1145.44 648.43" stroke="rgba(55, 190, 176, 0.1)" stroke-width="1.5"></path><path d="M1290.52 -58.5L1290.52 -58.5" stroke="rgba(55, 190, 176, 0.1)" stroke-width="1.5"></path><path d="M1290.52 -58.5L1395.49 -111.93" stroke="rgba(55, 190, 176, 0.1)" stroke-width="1.5"></path><path d="M1290.52 -58.5L1300.36 103.98" stroke="rgba(55, 190, 176, 0.1)" stroke-width="1.5"></path><path d="M1300.36 103.98L1300.36 103.98" stroke="rgba(55, 190, 176, 0.1)" stroke-width="1.5"></path><path d="M1300.36 103.98L1415.11 56.01" stroke="rgba(55, 190, 176, 0.1)" stroke-width="1.5"></path><path d="M1300.36 103.98L1261.74 237.55" stroke="rgba(55, 190, 176, 0.1)" stroke-width="1.5"></path><path d="M1261.74 237.55L1261.74 237.55" stroke="rgba(55, 190, 176, 0.1)" stroke-width="1.5"></path><path d="M1261.74 237.55L1405.36 241.55" stroke="rgba(55, 190, 176, 0.1)" stroke-width="1.5"></path><path d="M1261.74 237.55L1287.69 408.15" stroke="rgba(55, 190, 176, 0.1)" stroke-width="1.5"></path><path d="M1261.74 237.55L1415.11 56.01" stroke="rgba(55, 190, 176, 0.1)" stroke-width="1.5"></path><path d="M1261.74 237.55L1457.12 388.83" stroke="rgba(55, 190, 176, 0.1)" stroke-width="1.5"></path><path d="M1287.69 408.15L1287.69 408.15" stroke="rgba(55, 190, 176, 0.1)" stroke-width="1.5"></path><path d="M1287.69 408.15L1300.83 514.42" stroke="rgba(55, 190, 176, 0.1)" stroke-width="1.5"></path><path d="M1287.69 408.15L1403.22 531.97" stroke="rgba(55, 190, 176, 0.1)" stroke-width="1.5"></path><path d="M1287.69 408.15L1457.12 388.83" stroke="rgba(55, 190, 176, 0.1)" stroke-width="1.5"></path><path d="M1300.83 514.42L1300.83 514.42" stroke="rgba(55, 190, 176, 0.1)" stroke-width="1.5"></path><path d="M1300.83 514.42L1403.22 531.97" stroke="rgba(55, 190, 176, 0.1)" stroke-width="1.5"></path><path d="M1294.98 680.7L1294.98 680.7" stroke="rgba(55, 190, 176, 0.1)" stroke-width="1.5"></path><path d="M1294.98 680.7L1422.09 681" stroke="rgba(55, 190, 176, 0.1)" stroke-width="1.5"></path><path d="M1294.98 680.7L1145.44 648.43" stroke="rgba(55, 190, 176, 0.1)" stroke-width="1.5"></path><path d="M1294.98 680.7L1300.83 514.42" stroke="rgba(55, 190, 176, 0.1)" stroke-width="1.5"></path><path d="M1294.98 680.7L1403.22 531.97" stroke="rgba(55, 190, 176, 0.1)" stroke-width="1.5"></path><path d="M1395.49 -111.93L1395.49 -111.93" stroke="rgba(55, 190, 176, 0.1)" stroke-width="1.5"></path><path d="M1395.49 -111.93L1415.11 56.01" stroke="rgba(55, 190, 176, 0.1)" stroke-width="1.5"></path><path d="M1415.11 56.01L1415.11 56.01" stroke="rgba(55, 190, 176, 0.1)" stroke-width="1.5"></path><path d="M1415.11 56.01L1549.89 109.12" stroke="rgba(55, 190, 176, 0.1)" stroke-width="1.5"></path><path d="M1415.11 56.01L1290.52 -58.5" stroke="rgba(55, 190, 176, 0.1)" stroke-width="1.5"></path><path d="M1415.11 56.01L1405.36 241.55" stroke="rgba(55, 190, 176, 0.1)" stroke-width="1.5"></path><path d="M1405.36 241.55L1405.36 241.55" stroke="rgba(55, 190, 176, 0.1)" stroke-width="1.5"></path><path d="M1405.36 241.55L1457.12 388.83" stroke="rgba(55, 190, 176, 0.1)" stroke-width="1.5"></path><path d="M1405.36 241.55L1300.36 103.98" stroke="rgba(55, 190, 176, 0.1)" stroke-width="1.5"></path><path d="M1457.12 388.83L1457.12 388.83" stroke="rgba(55, 190, 176, 0.1)" stroke-width="1.5"></path><path d="M1457.12 388.83L1565.97 381.91" stroke="rgba(55, 190, 176, 0.1)" stroke-width="1.5"></path><path d="M1457.12 388.83L1403.22 531.97" stroke="rgba(55, 190, 176, 0.1)" stroke-width="1.5"></path><path d="M1403.22 531.97L1403.22 531.97" stroke="rgba(55, 190, 176, 0.1)" stroke-width="1.5"></path><path d="M1403.22 531.97L1422.09 681" stroke="rgba(55, 190, 176, 0.1)" stroke-width="1.5"></path><path d="M1422.09 681L1422.09 681" stroke="rgba(55, 190, 176, 0.1)" stroke-width="1.5"></path><path d="M1422.09 681L1556.28 698.52" stroke="rgba(55, 190, 176, 0.1)" stroke-width="1.5"></path><path d="M1422.09 681L1300.83 514.42" stroke="rgba(55, 190, 176, 0.1)" stroke-width="1.5"></path><path d="M1422.09 681L1600.74 530.59" stroke="rgba(55, 190, 176, 0.1)" stroke-width="1.5"></path><path d="M1422.09 681L1145.44 648.43" stroke="rgba(55, 190, 176, 0.1)" stroke-width="1.5"></path><path d="M1609.86 -81.04L1609.86 -81.04" stroke="rgba(55, 190, 176, 0.1)" stroke-width="1.5"></path><path d="M1609.86 -81.04L1549.89 109.12" stroke="rgba(55, 190, 176, 0.1)" stroke-width="1.5"></path><path d="M1609.86 -81.04L1395.49 -111.93" stroke="rgba(55, 190, 176, 0.1)" stroke-width="1.5"></path><path d="M1609.86 -81.04L1415.11 56.01" stroke="rgba(55, 190, 176, 0.1)" stroke-width="1.5"></path><path d="M1609.86 -81.04L1290.52 -58.5" stroke="rgba(55, 190, 176, 0.1)" stroke-width="1.5"></path><path d="M1549.89 109.12L1549.89 109.12" stroke="rgba(55, 190, 176, 0.1)" stroke-width="1.5"></path><path d="M1549.89 109.12L1603.91 254.12" stroke="rgba(55, 190, 176, 0.1)" stroke-width="1.5"></path><path d="M1549.89 109.12L1405.36 241.55" stroke="rgba(55, 190, 176, 0.1)" stroke-width="1.5"></path><path d="M1603.91 254.12L1603.91 254.12" stroke="rgba(55, 190, 176, 0.1)" stroke-width="1.5"></path><path d="M1603.91 254.12L1565.97 381.91" stroke="rgba(55, 190, 176, 0.1)" stroke-width="1.5"></path><path d="M1603.91 254.12L1405.36 241.55" stroke="rgba(55, 190, 176, 0.1)" stroke-width="1.5"></path><path d="M1603.91 254.12L1457.12 388.83" stroke="rgba(55, 190, 176, 0.1)" stroke-width="1.5"></path><path d="M1565.97 381.91L1565.97 381.91" stroke="rgba(55, 190, 176, 0.1)" stroke-width="1.5"></path><path d="M1600.74 530.59L1600.74 530.59" stroke="rgba(55, 190, 176, 0.1)" stroke-width="1.5"></path><path d="M1600.74 530.59L1565.97 381.91" stroke="rgba(55, 190, 176, 0.1)" stroke-width="1.5"></path><path d="M1600.74 530.59L1556.28 698.52" stroke="rgba(55, 190, 176, 0.1)" stroke-width="1.5"></path><path d="M1600.74 530.59L1403.22 531.97" stroke="rgba(55, 190, 176, 0.1)" stroke-width="1.5"></path><path d="M1600.74 530.59L1457.12 388.83" stroke="rgba(55, 190, 176, 0.1)" stroke-width="1.5"></path><path d="M1600.74 530.59L1603.91 254.12" stroke="rgba(55, 190, 176, 0.1)" stroke-width="1.5"></path><path d="M1556.28 698.52L1556.28 698.52" stroke="rgba(55, 190, 176, 0.1)" stroke-width="1.5"></path><path d="M1556.28 698.52L1403.22 531.97" stroke="rgba(55, 190, 176, 0.1)" stroke-width="1.5"></path><path d="M1556.28 698.52L1294.98 680.7" stroke="rgba(55, 190, 176, 0.1)" stroke-width="1.5"></path><path d="M1556.28 698.52L1300.83 514.42" stroke="rgba(55, 190, 176, 0.1)" stroke-width="1.5"></path><circle r="5" cx="-51.34" cy="393.19" fill="rgba(55, 190, 176, 0.1)"></circle><circle r="5" cx="-84.79" cy="493.43" fill="rgba(55, 190, 176, 0.1)"></circle><circle r="5" cx="-53.28" cy="645.61" fill="rgba(55, 190, 176, 0.1)"></circle><circle r="5" cx="82.74" cy="347.03" fill="rgba(55, 190, 176, 0.1)"></circle><circle r="5" cx="74.63" cy="511.29" fill="rgba(55, 190, 176, 0.1)"></circle><circle r="5" cx="58.06" cy="665.53" fill="rgba(55, 190, 176, 0.1)"></circle><circle r="5" cx="194.45" cy="383.33" fill="rgba(55, 190, 176, 0.1)"></circle><circle r="5" cx="256.17" cy="537.43" fill="rgba(55, 190, 176, 0.1)"></circle><circle r="5" cx="228.82" cy="702.07" fill="rgba(55, 190, 176, 0.1)"></circle><circle r="5" cx="396.03" cy="385.02" fill="rgba(55, 190, 176, 0.1)"></circle><circle r="5" cx="368.25" cy="489.12" fill="rgba(55, 190, 176, 0.1)"></circle><circle r="5" cx="360.61" cy="700.45" fill="rgba(55, 190, 176, 0.1)"></circle><circle r="5" cx="517.39" cy="501.79" fill="rgba(55, 190, 176, 0.1)"></circle><circle r="5" cx="546.77" cy="666.01" fill="rgba(55, 190, 176, 0.1)"></circle><circle r="5" cx="645.3" cy="229" fill="rgba(55, 190, 176, 0.1)"></circle><circle r="5" cx="660.44" cy="380.02" fill="rgba(55, 190, 176, 0.1)"></circle><circle r="5" cx="647.34" cy="490.62" fill="rgba(55, 190, 176, 0.1)"></circle><circle r="5" cx="664.23" cy="689.41" fill="rgba(55, 190, 176, 0.1)"></circle><circle r="5" cx="817.06" cy="202.31" fill="rgba(55, 190, 176, 0.1)"></circle><circle r="5" cx="831.22" cy="342.59" fill="rgba(55, 190, 176, 0.1)"></circle><circle r="5" cx="846.46" cy="542.47" fill="rgba(55, 190, 176, 0.1)"></circle><circle r="5" cx="859.68" cy="642.57" fill="rgba(55, 190, 176, 0.1)"></circle><circle r="5" cx="961.25" cy="-61.61" fill="rgba(55, 190, 176, 0.1)"></circle><circle r="5" cx="974.3" cy="79.48" fill="rgba(55, 190, 176, 0.1)"></circle><circle r="5" cx="953.25" cy="196.82" fill="rgba(55, 190, 176, 0.1)"></circle><circle r="5" cx="990.14" cy="409.17" fill="rgba(55, 190, 176, 0.1)"></circle><circle r="5" cx="988.28" cy="493.87" fill="rgba(55, 190, 176, 0.1)"></circle><circle r="5" cx="944.88" cy="691.94" fill="rgba(55, 190, 176, 0.1)"></circle><circle r="5" cx="1099.11" cy="-104.41" fill="rgba(55, 190, 176, 0.1)"></circle><circle r="5" cx="1131.33" cy="91.23" fill="rgba(55, 190, 176, 0.1)"></circle><circle r="5" cx="1119.04" cy="533.55" fill="rgba(55, 190, 176, 0.1)"></circle><circle r="5" cx="1145.44" cy="648.43" fill="rgba(55, 190, 176, 0.1)"></circle><circle r="5" cx="1290.52" cy="-58.5" fill="rgba(55, 190, 176, 0.1)"></circle><circle r="5" cx="1300.36" cy="103.98" fill="rgba(55, 190, 176, 0.1)"></circle><circle r="5" cx="1261.74" cy="237.55" fill="rgba(55, 190, 176, 0.1)"></circle><circle r="5" cx="1287.69" cy="408.15" fill="rgba(55, 190, 176, 0.1)"></circle><circle r="5" cx="1300.83" cy="514.42" fill="rgba(55, 190, 176, 0.1)"></circle><circle r="5" cx="1294.98" cy="680.7" fill="rgba(55, 190, 176, 0.1)"></circle><circle r="5" cx="1395.49" cy="-111.93" fill="rgba(55, 190, 176, 0.1)"></circle><circle r="5" cx="1415.11" cy="56.01" fill="rgba(55, 190, 176, 0.1)"></circle><circle r="5" cx="1405.36" cy="241.55" fill="rgba(55, 190, 176, 0.1)"></circle><circle r="5" cx="1457.12" cy="388.83" fill="rgba(55, 190, 176, 0.1)"></circle><circle r="5" cx="1403.22" cy="531.97" fill="rgba(55, 190, 176, 0.1)"></circle><circle r="5" cx="1422.09" cy="681" fill="rgba(55, 190, 176, 0.1)"></circle><circle r="5" cx="1609.86" cy="-81.04" fill="rgba(55, 190, 176, 0.1)"></circle><circle r="5" cx="1549.89" cy="109.12" fill="rgba(55, 190, 176, 0.1)"></circle><circle r="5" cx="1603.91" cy="254.12" fill="rgba(55, 190, 176, 0.1)"></circle><circle r="5" cx="1565.97" cy="381.91" fill="rgba(55, 190, 176, 0.1)"></circle><circle r="5" cx="1600.74" cy="530.59" fill="rgba(55, 190, 176, 0.1)"></circle><circle r="5" cx="1556.28" cy="698.52" fill="rgba(55, 190, 176, 0.1)"></circle><path d="M391.62 489.97L391.62 489.97" stroke="hsla(181.5, 93.8%, 33.1%, 0.2)" stroke-width="1.5"></path><path d="M391.62 489.97L497.74 530.57" stroke="hsla(181.5, 93.8%, 33.1%, 0.2)" stroke-width="1.5"></path><path d="M391.62 489.97L392.85 677.41" stroke="hsla(181.5, 93.8%, 33.1%, 0.2)" stroke-width="1.5"></path><path d="M391.62 489.97L261.19 638.05" stroke="hsla(181.5, 93.8%, 33.1%, 0.2)" stroke-width="1.5"></path><path d="M823.99 542.79L823.99 542.79" stroke="hsla(181.5, 93.8%, 33.1%, 0.2)" stroke-width="1.5"></path><path d="M823.99 542.79L860.31 402.87" stroke="hsla(181.5, 93.8%, 33.1%, 0.2)" stroke-width="1.5"></path><path d="M823.99 542.79L983.85 556.31" stroke="hsla(181.5, 93.8%, 33.1%, 0.2)" stroke-width="1.5"></path><path d="M823.99 542.79L853.12 704.91" stroke="hsla(181.5, 93.8%, 33.1%, 0.2)" stroke-width="1.5"></path><path d="M823.99 542.79L703.95 670.32" stroke="hsla(181.5, 93.8%, 33.1%, 0.2)" stroke-width="1.5"></path><path d="M968.19 373.9L968.19 373.9" stroke="hsla(181.5, 93.8%, 33.1%, 0.2)" stroke-width="1.5"></path><path d="M968.19 373.9L860.31 402.87" stroke="hsla(181.5, 93.8%, 33.1%, 0.2)" stroke-width="1.5"></path><path d="M968.19 373.9L945.52 258.34" stroke="hsla(181.5, 93.8%, 33.1%, 0.2)" stroke-width="1.5"></path><path d="M968.19 373.9L1089.87 352.13" stroke="hsla(181.5, 93.8%, 33.1%, 0.2)" stroke-width="1.5"></path><path d="M968.19 373.9L983.85 556.31" stroke="hsla(181.5, 93.8%, 33.1%, 0.2)" stroke-width="1.5"></path><path d="M1264.2 67.72L1264.2 67.72" stroke="hsla(181.5, 93.8%, 33.1%, 0.2)" stroke-width="1.5"></path><path d="M1264.2 67.72L1305.08 -72.01" stroke="hsla(181.5, 93.8%, 33.1%, 0.2)" stroke-width="1.5"></path><path d="M1264.2 67.72L1275.26 237.26" stroke="hsla(181.5, 93.8%, 33.1%, 0.2)" stroke-width="1.5"></path><path d="M1264.2 67.72L1454.94 99.87" stroke="hsla(181.5, 93.8%, 33.1%, 0.2)" stroke-width="1.5"></path><path d="M1537.67 81.35L1537.67 81.35" stroke="hsla(181.5, 93.8%, 33.1%, 0.2)" stroke-width="1.5"></path><path d="M1537.67 81.35L1454.94 99.87" stroke="hsla(181.5, 93.8%, 33.1%, 0.2)" stroke-width="1.5"></path><path d="M1537.67 81.35L1601.09 202.43" stroke="hsla(181.5, 93.8%, 33.1%, 0.2)" stroke-width="1.5"></path><path d="M1570.12 666.8L1570.12 666.8" stroke="hsla(181.5, 93.8%, 33.1%, 0.2)" stroke-width="1.5"></path><path d="M1570.12 666.8L1588.86 546.56" stroke="hsla(181.5, 93.8%, 33.1%, 0.2)" stroke-width="1.5"></path><path d="M1570.12 666.8L1442.87 540.17" stroke="hsla(181.5, 93.8%, 33.1%, 0.2)" stroke-width="1.5"></path><path d="M1570.12 666.8L1578.67 391.68" stroke="hsla(181.5, 93.8%, 33.1%, 0.2)" stroke-width="1.5"></path><path d="M-75.53 519.41L-75.53 519.41" stroke="hsla(181.5, 93.8%, 33.1%, 0.2)" stroke-width="1.5"></path><path d="M-75.53 519.41L105.18 506.54" stroke="hsla(181.5, 93.8%, 33.1%, 0.2)" stroke-width="1.5"></path><path d="M-75.53 519.41L-53.05 700.66" stroke="hsla(181.5, 93.8%, 33.1%, 0.2)" stroke-width="1.5"></path><path d="M-75.53 519.41L85.32 686.72" stroke="hsla(181.5, 93.8%, 33.1%, 0.2)" stroke-width="1.5"></path><path d="M-75.53 519.41L196.31 541.84" stroke="hsla(181.5, 93.8%, 33.1%, 0.2)" stroke-width="1.5"></path><path d="M-75.53 519.41L261.19 638.05" stroke="hsla(181.5, 93.8%, 33.1%, 0.2)" stroke-width="1.5"></path><path d="M-53.05 700.66L-53.05 700.66" stroke="hsla(181.5, 93.8%, 33.1%, 0.2)" stroke-width="1.5"></path><path d="M-53.05 700.66L85.32 686.72" stroke="hsla(181.5, 93.8%, 33.1%, 0.2)" stroke-width="1.5"></path><path d="M105.18 506.54L105.18 506.54" stroke="hsla(181.5, 93.8%, 33.1%, 0.2)" stroke-width="1.5"></path><path d="M105.18 506.54L196.31 541.84" stroke="hsla(181.5, 93.8%, 33.1%, 0.2)" stroke-width="1.5"></path><path d="M105.18 506.54L85.32 686.72" stroke="hsla(181.5, 93.8%, 33.1%, 0.2)" stroke-width="1.5"></path><path d="M105.18 506.54L261.19 638.05" stroke="hsla(181.5, 93.8%, 33.1%, 0.2)" stroke-width="1.5"></path><path d="M105.18 506.54L-53.05 700.66" stroke="hsla(181.5, 93.8%, 33.1%, 0.2)" stroke-width="1.5"></path><path d="M85.32 686.72L85.32 686.72" stroke="hsla(181.5, 93.8%, 33.1%, 0.2)" stroke-width="1.5"></path><path d="M85.32 686.72L261.19 638.05" stroke="hsla(181.5, 93.8%, 33.1%, 0.2)" stroke-width="1.5"></path><path d="M85.32 686.72L196.31 541.84" stroke="hsla(181.5, 93.8%, 33.1%, 0.2)" stroke-width="1.5"></path><path d="M196.31 541.84L196.31 541.84" stroke="hsla(181.5, 93.8%, 33.1%, 0.2)" stroke-width="1.5"></path><path d="M196.31 541.84L261.19 638.05" stroke="hsla(181.5, 93.8%, 33.1%, 0.2)" stroke-width="1.5"></path><path d="M196.31 541.84L391.62 489.97" stroke="hsla(181.5, 93.8%, 33.1%, 0.2)" stroke-width="1.5"></path><path d="M196.31 541.84L392.85 677.41" stroke="hsla(181.5, 93.8%, 33.1%, 0.2)" stroke-width="1.5"></path><path d="M261.19 638.05L261.19 638.05" stroke="hsla(181.5, 93.8%, 33.1%, 0.2)" stroke-width="1.5"></path><path d="M261.19 638.05L392.85 677.41" stroke="hsla(181.5, 93.8%, 33.1%, 0.2)" stroke-width="1.5"></path><path d="M392.85 677.41L392.85 677.41" stroke="hsla(181.5, 93.8%, 33.1%, 0.2)" stroke-width="1.5"></path><path d="M392.85 677.41L495.86 693.79" stroke="hsla(181.5, 93.8%, 33.1%, 0.2)" stroke-width="1.5"></path><path d="M392.85 677.41L497.74 530.57" stroke="hsla(181.5, 93.8%, 33.1%, 0.2)" stroke-width="1.5"></path><path d="M392.85 677.41L641.71 505.49" stroke="hsla(181.5, 93.8%, 33.1%, 0.2)" stroke-width="1.5"></path><path d="M497.74 530.57L497.74 530.57" stroke="hsla(181.5, 93.8%, 33.1%, 0.2)" stroke-width="1.5"></path><path d="M497.74 530.57L641.71 505.49" stroke="hsla(181.5, 93.8%, 33.1%, 0.2)" stroke-width="1.5"></path><path d="M495.86 693.79L495.86 693.79" stroke="hsla(181.5, 93.8%, 33.1%, 0.2)" stroke-width="1.5"></path><path d="M495.86 693.79L497.74 530.57" stroke="hsla(181.5, 93.8%, 33.1%, 0.2)" stroke-width="1.5"></path><path d="M495.86 693.79L703.95 670.32" stroke="hsla(181.5, 93.8%, 33.1%, 0.2)" stroke-width="1.5"></path><path d="M495.86 693.79L391.62 489.97" stroke="hsla(181.5, 93.8%, 33.1%, 0.2)" stroke-width="1.5"></path><path d="M495.86 693.79L641.71 505.49" stroke="hsla(181.5, 93.8%, 33.1%, 0.2)" stroke-width="1.5"></path><path d="M641.71 505.49L641.71 505.49" stroke="hsla(181.5, 93.8%, 33.1%, 0.2)" stroke-width="1.5"></path><path d="M641.71 505.49L703.95 670.32" stroke="hsla(181.5, 93.8%, 33.1%, 0.2)" stroke-width="1.5"></path><path d="M641.71 505.49L823.99 542.79" stroke="hsla(181.5, 93.8%, 33.1%, 0.2)" stroke-width="1.5"></path><path d="M641.71 505.49L860.31 402.87" stroke="hsla(181.5, 93.8%, 33.1%, 0.2)" stroke-width="1.5"></path><path d="M703.95 670.32L703.95 670.32" stroke="hsla(181.5, 93.8%, 33.1%, 0.2)" stroke-width="1.5"></path><path d="M703.95 670.32L853.12 704.91" stroke="hsla(181.5, 93.8%, 33.1%, 0.2)" stroke-width="1.5"></path><path d="M703.95 670.32L497.74 530.57" stroke="hsla(181.5, 93.8%, 33.1%, 0.2)" stroke-width="1.5"></path><path d="M860.31 402.87L860.31 402.87" stroke="hsla(181.5, 93.8%, 33.1%, 0.2)" stroke-width="1.5"></path><path d="M853.12 704.91L853.12 704.91" stroke="hsla(181.5, 93.8%, 33.1%, 0.2)" stroke-width="1.5"></path><path d="M853.12 704.91L981.52 666.97" stroke="hsla(181.5, 93.8%, 33.1%, 0.2)" stroke-width="1.5"></path><path d="M853.12 704.91L983.85 556.31" stroke="hsla(181.5, 93.8%, 33.1%, 0.2)" stroke-width="1.5"></path><path d="M853.12 704.91L1092.05 681.42" stroke="hsla(181.5, 93.8%, 33.1%, 0.2)" stroke-width="1.5"></path><path d="M853.12 704.91L641.71 505.49" stroke="hsla(181.5, 93.8%, 33.1%, 0.2)" stroke-width="1.5"></path><path d="M945.52 258.34L945.52 258.34" stroke="hsla(181.5, 93.8%, 33.1%, 0.2)" stroke-width="1.5"></path><path d="M945.52 258.34L1092.95 207.25" stroke="hsla(181.5, 93.8%, 33.1%, 0.2)" stroke-width="1.5"></path><path d="M945.52 258.34L860.31 402.87" stroke="hsla(181.5, 93.8%, 33.1%, 0.2)" stroke-width="1.5"></path><path d="M945.52 258.34L1089.87 352.13" stroke="hsla(181.5, 93.8%, 33.1%, 0.2)" stroke-width="1.5"></path><path d="M983.85 556.31L983.85 556.31" stroke="hsla(181.5, 93.8%, 33.1%, 0.2)" stroke-width="1.5"></path><path d="M983.85 556.31L981.52 666.97" stroke="hsla(181.5, 93.8%, 33.1%, 0.2)" stroke-width="1.5"></path><path d="M983.85 556.31L1092.05 681.42" stroke="hsla(181.5, 93.8%, 33.1%, 0.2)" stroke-width="1.5"></path><path d="M983.85 556.31L1145.29 517.31" stroke="hsla(181.5, 93.8%, 33.1%, 0.2)" stroke-width="1.5"></path><path d="M983.85 556.31L860.31 402.87" stroke="hsla(181.5, 93.8%, 33.1%, 0.2)" stroke-width="1.5"></path><path d="M981.52 666.97L981.52 666.97" stroke="hsla(181.5, 93.8%, 33.1%, 0.2)" stroke-width="1.5"></path><path d="M981.52 666.97L1092.05 681.42" stroke="hsla(181.5, 93.8%, 33.1%, 0.2)" stroke-width="1.5"></path><path d="M981.52 666.97L823.99 542.79" stroke="hsla(181.5, 93.8%, 33.1%, 0.2)" stroke-width="1.5"></path><path d="M981.52 666.97L1145.29 517.31" stroke="hsla(181.5, 93.8%, 33.1%, 0.2)" stroke-width="1.5"></path><path d="M1092.95 207.25L1092.95 207.25" stroke="hsla(181.5, 93.8%, 33.1%, 0.2)" stroke-width="1.5"></path><path d="M1092.95 207.25L1089.87 352.13" stroke="hsla(181.5, 93.8%, 33.1%, 0.2)" stroke-width="1.5"></path><path d="M1092.95 207.25L1275.26 237.26" stroke="hsla(181.5, 93.8%, 33.1%, 0.2)" stroke-width="1.5"></path><path d="M1092.95 207.25L968.19 373.9" stroke="hsla(181.5, 93.8%, 33.1%, 0.2)" stroke-width="1.5"></path><path d="M1089.87 352.13L1089.87 352.13" stroke="hsla(181.5, 93.8%, 33.1%, 0.2)" stroke-width="1.5"></path><path d="M1089.87 352.13L1241.48 406.93" stroke="hsla(181.5, 93.8%, 33.1%, 0.2)" stroke-width="1.5"></path><path d="M1089.87 352.13L1145.29 517.31" stroke="hsla(181.5, 93.8%, 33.1%, 0.2)" stroke-width="1.5"></path><path d="M1089.87 352.13L1275.26 237.26" stroke="hsla(181.5, 93.8%, 33.1%, 0.2)" stroke-width="1.5"></path><path d="M1145.29 517.31L1145.29 517.31" stroke="hsla(181.5, 93.8%, 33.1%, 0.2)" stroke-width="1.5"></path><path d="M1145.29 517.31L1286.7 522.57" stroke="hsla(181.5, 93.8%, 33.1%, 0.2)" stroke-width="1.5"></path><path d="M1145.29 517.31L1241.48 406.93" stroke="hsla(181.5, 93.8%, 33.1%, 0.2)" stroke-width="1.5"></path><path d="M1145.29 517.31L1092.05 681.42" stroke="hsla(181.5, 93.8%, 33.1%, 0.2)" stroke-width="1.5"></path><path d="M1092.05 681.42L1092.05 681.42" stroke="hsla(181.5, 93.8%, 33.1%, 0.2)" stroke-width="1.5"></path><path d="M1092.05 681.42L1280.9 695.67" stroke="hsla(181.5, 93.8%, 33.1%, 0.2)" stroke-width="1.5"></path><path d="M1305.08 -72.01L1305.08 -72.01" stroke="hsla(181.5, 93.8%, 33.1%, 0.2)" stroke-width="1.5"></path><path d="M1305.08 -72.01L1394.18 -107.23" stroke="hsla(181.5, 93.8%, 33.1%, 0.2)" stroke-width="1.5"></path><path d="M1275.26 237.26L1275.26 237.26" stroke="hsla(181.5, 93.8%, 33.1%, 0.2)" stroke-width="1.5"></path><path d="M1275.26 237.26L1390.11 339.74" stroke="hsla(181.5, 93.8%, 33.1%, 0.2)" stroke-width="1.5"></path><path d="M1275.26 237.26L1241.48 406.93" stroke="hsla(181.5, 93.8%, 33.1%, 0.2)" stroke-width="1.5"></path><path d="M1275.26 237.26L1455.81 255.27" stroke="hsla(181.5, 93.8%, 33.1%, 0.2)" stroke-width="1.5"></path><path d="M1241.48 406.93L1241.48 406.93" stroke="hsla(181.5, 93.8%, 33.1%, 0.2)" stroke-width="1.5"></path><path d="M1241.48 406.93L1286.7 522.57" stroke="hsla(181.5, 93.8%, 33.1%, 0.2)" stroke-width="1.5"></path><path d="M1286.7 522.57L1286.7 522.57" stroke="hsla(181.5, 93.8%, 33.1%, 0.2)" stroke-width="1.5"></path><path d="M1286.7 522.57L1442.87 540.17" stroke="hsla(181.5, 93.8%, 33.1%, 0.2)" stroke-width="1.5"></path><path d="M1286.7 522.57L1280.9 695.67" stroke="hsla(181.5, 93.8%, 33.1%, 0.2)" stroke-width="1.5"></path><path d="M1280.9 695.67L1280.9 695.67" stroke="hsla(181.5, 93.8%, 33.1%, 0.2)" stroke-width="1.5"></path><path d="M1394.18 -107.23L1394.18 -107.23" stroke="hsla(181.5, 93.8%, 33.1%, 0.2)" stroke-width="1.5"></path><path d="M1394.18 -107.23L1454.94 99.87" stroke="hsla(181.5, 93.8%, 33.1%, 0.2)" stroke-width="1.5"></path><path d="M1394.18 -107.23L1264.2 67.72" stroke="hsla(181.5, 93.8%, 33.1%, 0.2)" stroke-width="1.5"></path><path d="M1454.94 99.87L1454.94 99.87" stroke="hsla(181.5, 93.8%, 33.1%, 0.2)" stroke-width="1.5"></path><path d="M1454.94 99.87L1455.81 255.27" stroke="hsla(181.5, 93.8%, 33.1%, 0.2)" stroke-width="1.5"></path><path d="M1454.94 99.87L1601.09 202.43" stroke="hsla(181.5, 93.8%, 33.1%, 0.2)" stroke-width="1.5"></path><path d="M1454.94 99.87L1275.26 237.26" stroke="hsla(181.5, 93.8%, 33.1%, 0.2)" stroke-width="1.5"></path><path d="M1455.81 255.27L1455.81 255.27" stroke="hsla(181.5, 93.8%, 33.1%, 0.2)" stroke-width="1.5"></path><path d="M1455.81 255.27L1390.11 339.74" stroke="hsla(181.5, 93.8%, 33.1%, 0.2)" stroke-width="1.5"></path><path d="M1455.81 255.27L1601.09 202.43" stroke="hsla(181.5, 93.8%, 33.1%, 0.2)" stroke-width="1.5"></path><path d="M1390.11 339.74L1390.11 339.74" stroke="hsla(181.5, 93.8%, 33.1%, 0.2)" stroke-width="1.5"></path><path d="M1390.11 339.74L1241.48 406.93" stroke="hsla(181.5, 93.8%, 33.1%, 0.2)" stroke-width="1.5"></path><path d="M1390.11 339.74L1578.67 391.68" stroke="hsla(181.5, 93.8%, 33.1%, 0.2)" stroke-width="1.5"></path><path d="M1390.11 339.74L1442.87 540.17" stroke="hsla(181.5, 93.8%, 33.1%, 0.2)" stroke-width="1.5"></path><path d="M1442.87 540.17L1442.87 540.17" stroke="hsla(181.5, 93.8%, 33.1%, 0.2)" stroke-width="1.5"></path><path d="M1442.87 540.17L1588.86 546.56" stroke="hsla(181.5, 93.8%, 33.1%, 0.2)" stroke-width="1.5"></path><path d="M1442.87 540.17L1578.67 391.68" stroke="hsla(181.5, 93.8%, 33.1%, 0.2)" stroke-width="1.5"></path><path d="M1601.09 202.43L1601.09 202.43" stroke="hsla(181.5, 93.8%, 33.1%, 0.2)" stroke-width="1.5"></path><path d="M1601.09 202.43L1578.67 391.68" stroke="hsla(181.5, 93.8%, 33.1%, 0.2)" stroke-width="1.5"></path><path d="M1578.67 391.68L1578.67 391.68" stroke="hsla(181.5, 93.8%, 33.1%, 0.2)" stroke-width="1.5"></path><path d="M1578.67 391.68L1588.86 546.56" stroke="hsla(181.5, 93.8%, 33.1%, 0.2)" stroke-width="1.5"></path><path d="M1578.67 391.68L1455.81 255.27" stroke="hsla(181.5, 93.8%, 33.1%, 0.2)" stroke-width="1.5"></path><path d="M1588.86 546.56L1588.86 546.56" stroke="hsla(181.5, 93.8%, 33.1%, 0.2)" stroke-width="1.5"></path><circle r="25" cx="391.62" cy="489.97" fill="url(&quot;#SvgjsRadialGradient1033&quot;)"></circle><circle r="25" cx="823.99" cy="542.79" fill="url(&quot;#SvgjsRadialGradient1033&quot;)"></circle><circle r="25" cx="968.19" cy="373.9" fill="url(&quot;#SvgjsRadialGradient1033&quot;)"></circle><circle r="25" cx="1264.2" cy="67.72" fill="url(&quot;#SvgjsRadialGradient1033&quot;)"></circle><circle r="25" cx="1537.67" cy="81.35" fill="url(&quot;#SvgjsRadialGradient1033&quot;)"></circle><circle r="25" cx="1570.12" cy="666.8" fill="url(&quot;#SvgjsRadialGradient1033&quot;)"></circle><circle r="5" cx="-75.53" cy="519.41" fill="rgba(230, 242, 242, 0.6)"></circle><circle r="5" cx="-53.05" cy="700.66" fill="rgba(230, 242, 242, 0.6)"></circle><circle r="5" cx="105.18" cy="506.54" fill="rgba(230, 242, 242, 0.6)"></circle><circle r="5" cx="85.32" cy="686.72" fill="rgba(230, 242, 242, 0.6)"></circle><circle r="5" cx="196.31" cy="541.84" fill="rgba(230, 242, 242, 0.6)"></circle><circle r="5" cx="261.19" cy="638.05" fill="rgba(230, 242, 242, 0.6)"></circle><circle r="5" cx="392.85" cy="677.41" fill="rgba(230, 242, 242, 0.6)"></circle><circle r="5" cx="497.74" cy="530.57" fill="rgba(230, 242, 242, 0.6)"></circle><circle r="5" cx="495.86" cy="693.79" fill="rgba(230, 242, 242, 0.6)"></circle><circle r="5" cx="641.71" cy="505.49" fill="rgba(230, 242, 242, 0.6)"></circle><circle r="5" cx="703.95" cy="670.32" fill="rgba(230, 242, 242, 0.6)"></circle><circle r="5" cx="860.31" cy="402.87" fill="rgba(230, 242, 242, 0.6)"></circle><circle r="5" cx="853.12" cy="704.91" fill="rgba(230, 242, 242, 0.6)"></circle><circle r="5" cx="945.52" cy="258.34" fill="rgba(230, 242, 242, 0.6)"></circle><circle r="5" cx="983.85" cy="556.31" fill="rgba(230, 242, 242, 0.6)"></circle><circle r="5" cx="981.52" cy="666.97" fill="rgba(230, 242, 242, 0.6)"></circle><circle r="5" cx="1092.95" cy="207.25" fill="rgba(230, 242, 242, 0.6)"></circle><circle r="5" cx="1089.87" cy="352.13" fill="rgba(230, 242, 242, 0.6)"></circle><circle r="5" cx="1145.29" cy="517.31" fill="rgba(230, 242, 242, 0.6)"></circle><circle r="5" cx="1092.05" cy="681.42" fill="rgba(230, 242, 242, 0.6)"></circle><circle r="5" cx="1305.08" cy="-72.01" fill="rgba(230, 242, 242, 0.6)"></circle><circle r="5" cx="1275.26" cy="237.26" fill="rgba(230, 242, 242, 0.6)"></circle><circle r="5" cx="1241.48" cy="406.93" fill="rgba(230, 242, 242, 0.6)"></circle><circle r="5" cx="1286.7" cy="522.57" fill="rgba(230, 242, 242, 0.6)"></circle><circle r="5" cx="1280.9" cy="695.67" fill="rgba(230, 242, 242, 0.6)"></circle><circle r="5" cx="1394.18" cy="-107.23" fill="rgba(230, 242, 242, 0.6)"></circle><circle r="5" cx="1454.94" cy="99.87" fill="rgba(230, 242, 242, 0.6)"></circle><circle r="5" cx="1455.81" cy="255.27" fill="rgba(230, 242, 242, 0.6)"></circle><circle r="5" cx="1390.11" cy="339.74" fill="rgba(230, 242, 242, 0.6)"></circle><circle r="5" cx="1442.87" cy="540.17" fill="rgba(230, 242, 242, 0.6)"></circle><circle r="5" cx="1601.09" cy="202.43" fill="rgba(230, 242, 242, 0.6)"></circle><circle r="5" cx="1578.67" cy="391.68" fill="rgba(230, 242, 242, 0.6)"></circle><circle r="5" cx="1588.86" cy="546.56" fill="rgba(230, 242, 242, 0.6)"></circle></g><defs><mask id="SvgjsMask1032"><rect width="1440" height="560" fill="#ffffff"></rect></mask><radialGradient id="SvgjsRadialGradient1033"><stop stop-color="#ffffff" offset="0.1"></stop><stop stop-color="rgba(4, 123, 126, 0.2)" offset="0.2"></stop><stop stop-color="rgba(4, 123, 126, 0)" offset="1"></stop></radialGradient></defs></svg>